<?xml version="1.0" standalone="no"?>
<!DOCTYPE svg PUBLIC "-//W3C//DTD SVG 1.1//EN" "http://www.w3.org/Graphics/SVG/1.1/DTD/svg11.dtd" >
<svg xmlns="http://www.w3.org/2000/svg" xmlns:xlink="http://www.w3.org/1999/xlink" version="1.1">
<metadata>
Created by FontForge 20190801 at Wed Jun 11 12:43:20 2014
 By Jimmy Wärting
Based on FS Albert typeface. Copyright (c) 2005 by Fontsmith Ltd. All rights reserved. Thank you to Phil Garnham, Mitja Miklavcic, Malou Verlomme and Emanuela Conidi.
</metadata>
<defs>
<font id="FSAlbertArabic-Bold" horiz-adv-x="0" >
  <font-face 
    font-family="FS Albert Arabic"
    font-weight="700"
    font-stretch="normal"
    units-per-em="1000"
    panose-1="2 11 8 3 4 5 2 2 8 4"
    ascent="800"
    descent="-200"
    x-height="485"
    cap-height="692"
    bbox="-187.715 -549.565 1389 1075.18"
    underline-thickness="50"
    underline-position="-100"
    stemh="95"
    stemv="120"
    unicode-range="U+000D-FEFC"
  />
<missing-glyph horiz-adv-x="535" 
d="M20 0v693h495v-693h-495zM268 391l168 253h-337zM297 347l169 -253v505zM99 50h337l-168 252zM70 599v-505l168 253z" />
    <glyph glyph-name="fi" unicode="fi" horiz-adv-x="578" 
d="M509 462v-437c0 -18 -7 -25 -24 -25h-71c-18 0 -25 7 -25 25v377h-174v-374c0 -18 -6 -28 -25 -28h-72c-17 0 -24 9 -24 26v376h-54c-18 0 -22 4 -22 25v38c0 12 6 20 19 20h57v29c0 58 12 108 41 146c32 43 91 68 171 68c48 0 98 -9 126 -20c15 -6 18 -12 16 -26l-8 -51
c-2 -12 -7 -18 -24 -14c-26 6 -65 12 -91 12c-39 0 -64 -9 -81 -25c-19 -18 -29 -48 -29 -87v-32h270c16 0 24 -5 24 -23z" />
    <glyph glyph-name="fl" unicode="fl" horiz-adv-x="585" 
d="M522 695v-670c0 -17 -9 -25 -23 -25h-75c-14 0 -23 7 -23 24v591c-23 7 -60 14 -87 14c-32 0 -56 -9 -70 -22c-23 -21 -29 -55 -29 -92v-30h98c13 0 20 -4 20 -17v-47c0 -13 -7 -19 -19 -19h-99v-374c0 -18 -6 -28 -25 -28h-72c-17 0 -24 9 -24 26v376h-54
c-18 0 -22 4 -22 25v38c0 12 6 20 19 20h57v27c0 76 17 130 59 169c32 30 79 47 139 47c53 0 105 -13 137 -24l70 10c19 3 23 -3 23 -19z" />
    <glyph glyph-name="uniFEFB" unicode="&#xfedf;&#xfe8e;" horiz-adv-x="654" arabic-form="isolated" 
d="M392 110h37c39 0 48 10 48 51v519c0 17 6 22 19 24l72 10c14 2 21 -6 21 -21v-568c0 -82 -45 -125 -149 -125h-371c-18 0 -24 9 -24 25v60c0 16 6 25 24 25h207l-141 502c-6 19 0 29 18 35l53 18c18 6 30 -1 35 -20z" />
    <glyph glyph-name="uniFEFC" unicode="&#xfee0;&#xfe8e;" horiz-adv-x="699" arabic-form="final" 
d="M392 110h37c39 0 48 10 48 51v519c0 17 6 22 19 24l72 10c14 2 21 -6 21 -21v-554c22 -20 52 -29 104 -29h6v-110h-6c-58 0 -98 18 -123 50c-22 -33 -65 -50 -130 -50h-371c-18 0 -24 9 -24 25v60c0 16 6 25 24 25h207l-141 502c-6 19 0 29 18 35l53 18
c18 6 30 -1 35 -20z" />
    <glyph glyph-name="uniFEF5" unicode="&#xfedf;&#xfe82;" horiz-adv-x="654" arabic-form="isolated" 
d="M392 110h37c39 0 48 10 48 51v519c0 17 6 22 19 24l72 10c14 2 21 -6 21 -21v-568c0 -82 -45 -125 -149 -125h-371c-18 0 -24 9 -24 25v60c0 16 6 25 24 25h207l-114 404c-5 19 0 29 18 35l53 18c18 6 30 -1 35 -20zM120 737c25 0 45 -9 64 -19c20 -9 40 -19 62 -19
c17 0 28 7 41 24c5 6 11 7 15 1l20 -24c4 -5 6 -10 0 -18c-23 -34 -44 -52 -76 -52c-25 0 -43 8 -64 19c-25 12 -42 20 -63 20c-17 0 -28 -7 -41 -24c-5 -6 -11 -7 -15 -1l-20 23c-4 5 -6 11 0 19c21 34 45 51 77 51z" />
    <glyph glyph-name="uniFEF6" unicode="&#xfee0;&#xfe82;" horiz-adv-x="699" arabic-form="final" 
d="M392 110h37c39 0 48 10 48 51v519c0 17 6 22 19 24l72 10c14 2 21 -6 21 -21v-554c22 -20 52 -29 104 -29h6v-110h-6c-58 0 -98 18 -123 50c-22 -33 -65 -50 -130 -50h-371c-18 0 -24 9 -24 25v60c0 16 6 25 24 25h207l-114 404c-5 19 0 29 18 35l53 18
c18 6 30 -1 35 -20zM120 737c25 0 45 -9 64 -19c20 -9 40 -19 62 -19c17 0 28 7 41 24c5 6 11 7 15 1l20 -24c4 -5 6 -10 0 -18c-23 -34 -44 -52 -76 -52c-25 0 -43 8 -64 19c-25 12 -42 20 -63 20c-17 0 -28 -7 -41 -24c-5 -6 -11 -7 -15 -1l-20 23c-4 5 -6 11 0 19
c21 34 45 51 77 51z" />
    <glyph glyph-name="uniFEF7" unicode="&#xfedf;&#xfe84;" horiz-adv-x="654" arabic-form="isolated" 
d="M392 110h37c39 0 48 10 48 51v519c0 17 6 22 19 24l72 10c14 2 21 -6 21 -21v-568c0 -82 -45 -125 -149 -125h-371c-18 0 -24 9 -24 25v60c0 16 6 25 24 25h207l-114 404c-5 19 0 29 18 35l53 18c18 6 30 -1 35 -20zM86 702h29c-11 16 -18 38 -18 58c0 56 45 92 101 92
c28 0 53 -7 78 -23c7 -5 12 -13 7 -21l-10 -25c-4 -9 -7 -13 -17 -7c-18 9 -34 14 -51 14c-25 0 -43 -17 -43 -44c0 -13 5 -29 16 -44h102c11 0 14 -4 14 -14v-34c0 -9 -3 -14 -14 -14h-194c-11 0 -14 5 -14 15v33c0 10 3 14 14 14z" />
    <glyph glyph-name="uniFEF8" unicode="&#xfee0;&#xfe84;" horiz-adv-x="699" arabic-form="final" 
d="M392 110h37c39 0 48 10 48 51v519c0 17 6 22 19 24l72 10c14 2 21 -6 21 -21v-554c22 -20 52 -29 104 -29h6v-110h-6c-58 0 -98 18 -123 50c-22 -33 -65 -50 -130 -50h-371c-18 0 -24 9 -24 25v60c0 16 6 25 24 25h207l-114 404c-5 19 0 29 18 35l53 18
c18 6 30 -1 35 -20zM86 702h29c-11 16 -18 38 -18 58c0 56 45 92 101 92c28 0 53 -7 78 -23c7 -5 12 -13 7 -21l-10 -25c-4 -9 -7 -13 -17 -7c-18 9 -34 14 -51 14c-25 0 -43 -17 -43 -44c0 -13 5 -29 16 -44h102c11 0 14 -4 14 -14v-34c0 -9 -3 -14 -14 -14h-194
c-11 0 -14 5 -14 15v33c0 10 3 14 14 14z" />
    <glyph glyph-name="uniFEF9" unicode="&#xfedf;&#xfe88;" horiz-adv-x="654" arabic-form="isolated" 
d="M392 110h37c39 0 48 10 48 51v519c0 17 6 22 19 24l72 10c14 2 21 -6 21 -21v-568c0 -82 -45 -125 -149 -125h-371c-18 0 -24 9 -24 25v60c0 16 6 25 24 25h207l-141 502c-6 19 0 29 18 35l53 18c18 6 30 -1 35 -20zM159 -260h29c-11 18 -18 39 -18 59c0 55 45 91 101 91
c28 0 53 -7 78 -23c7 -5 12 -12 7 -21l-10 -25c-4 -9 -7 -12 -17 -7c-18 9 -34 14 -51 14c-25 0 -43 -17 -43 -44c0 -13 5 -28 16 -44h102c11 0 14 -4 14 -14v-34c0 -9 -3 -14 -14 -14h-194c-11 0 -14 5 -14 15v33c0 11 3 14 14 14z" />
    <glyph glyph-name="uniFEFA" unicode="&#xfee0;&#xfe88;" horiz-adv-x="699" arabic-form="final" 
d="M392 110h37c39 0 48 10 48 51v519c0 17 6 22 19 24l72 10c14 2 21 -6 21 -21v-554c22 -20 52 -29 104 -29h6v-110h-6c-58 0 -98 18 -123 50c-22 -33 -65 -50 -130 -50h-371c-18 0 -24 9 -24 25v60c0 16 6 25 24 25h207l-141 502c-6 19 0 29 18 35l53 18
c18 6 30 -1 35 -20zM159 -260h29c-11 18 -18 39 -18 59c0 55 45 91 101 91c28 0 53 -7 78 -23c7 -5 12 -12 7 -21l-10 -25c-4 -9 -7 -12 -17 -7c-18 9 -34 14 -51 14c-25 0 -43 -17 -43 -44c0 -13 5 -28 16 -44h102c11 0 14 -4 14 -14v-34c0 -9 -3 -14 -14 -14h-194
c-11 0 -14 5 -14 15v33c0 11 3 14 14 14z" />
    <glyph glyph-name="uni06440671" unicode="&#xfedf;&#xfb51;" horiz-adv-x="654" 
d="M392 110h37c39 0 48 10 48 51v519c0 17 6 22 19 24l72 10c14 2 21 -6 21 -21v-568c0 -82 -45 -125 -149 -125h-371c-18 0 -24 9 -24 25v60c0 16 6 25 24 25h207l-114 404c-5 19 0 29 18 35l53 18c18 6 30 -1 35 -20zM151 793v-23c23 17 45 29 72 29c36 0 77 -15 77 -85
c0 -63 -22 -83 -97 -83h-134c-8 0 -12 3 -12 11v34c0 7 4 11 12 11h19v98c0 9 4 14 12 15l35 7c9 2 16 0 16 -14zM151 687h62c18 0 27 6 27 29s-15 27 -29 27c-8 0 -37 -5 -60 -29v-27z" />
    <glyph glyph-name="uni06440671.fina" unicode="&#xfee0;&#xfb51;" horiz-adv-x="699" 
d="M392 110h37c39 0 48 10 48 51v519c0 17 6 22 19 24l72 10c14 2 21 -6 21 -21v-554c22 -20 52 -29 104 -29h6v-110h-6c-58 0 -98 18 -123 50c-22 -33 -65 -50 -130 -50h-371c-18 0 -24 9 -24 25v60c0 16 6 25 24 25h207l-114 404c-5 19 0 29 18 35l53 18
c18 6 30 -1 35 -20zM151 793v-23c23 17 45 29 72 29c36 0 77 -15 77 -85c0 -63 -22 -83 -97 -83h-134c-8 0 -12 3 -12 11v34c0 7 4 11 12 11h19v98c0 9 4 14 12 15l35 7c9 2 16 0 16 -14zM151 687h62c18 0 27 6 27 29s-15 27 -29 27c-8 0 -37 -5 -60 -29v-27z" />
    <glyph glyph-name="uniFE88" unicode="&#x625;" horiz-adv-x="276" arabic-form="final" 
d="M65 125v555c0 17 6 22 19 24l72 10c14 2 21 -6 21 -21v-532c0 -41 9 -51 48 -51h51v-110h-62c-104 0 -149 43 -149 125zM24 -260h29c-11 18 -18 39 -18 59c0 55 45 91 101 91c28 0 53 -7 78 -23c7 -5 12 -12 7 -21l-10 -25c-4 -9 -7 -12 -17 -7c-18 9 -34 14 -51 14
c-25 0 -43 -17 -43 -44c0 -13 5 -28 16 -44h102c11 0 14 -4 14 -14v-34c0 -9 -3 -14 -14 -14h-194c-11 0 -14 5 -14 15v33c0 11 3 14 14 14z" />
    <glyph glyph-name="uniFE87" unicode="&#x625;" horiz-adv-x="242" arabic-form="isolated" 
d="M151 0h-60c-18 0 -26 7 -26 25v655c0 17 6 22 19 24l72 10c14 2 21 -6 21 -21v-668c0 -18 -8 -25 -26 -25zM24 -260h29c-11 18 -18 39 -18 59c0 55 45 91 101 91c28 0 53 -7 78 -23c7 -5 12 -12 7 -21l-10 -25c-4 -9 -7 -12 -17 -7c-18 9 -34 14 -51 14
c-25 0 -43 -17 -43 -44c0 -13 5 -28 16 -44h102c11 0 14 -4 14 -14v-34c0 -9 -3 -14 -14 -14h-194c-11 0 -14 5 -14 15v33c0 11 3 14 14 14z" />
    <glyph glyph-name="uniFE86" unicode="&#x624;" horiz-adv-x="544" arabic-form="final" 
d="M208 -222c-14 -7 -25 -4 -33 11l-28 51c-8 15 -2 24 17 34c80 43 124 77 146 126h-55c-129 0 -204 66 -204 209c0 122 75 203 199 203c115 0 194 -61 194 -194v-108h100v-110h-111c-22 -91 -80 -149 -225 -222zM273 110h59v109c0 52 -23 86 -79 86c-59 0 -88 -38 -88 -95
c0 -80 32 -100 108 -100zM151 585h29c-11 16 -18 38 -18 58c0 56 45 92 101 92c28 0 53 -7 78 -23c7 -5 12 -13 7 -21l-10 -25c-4 -9 -7 -13 -17 -7c-18 9 -34 14 -51 14c-25 0 -43 -17 -43 -44c0 -13 5 -29 16 -44h102c11 0 14 -4 14 -14v-34c0 -9 -3 -14 -14 -14h-194
c-11 0 -14 5 -14 15v33c0 10 3 14 14 14z" />
    <glyph glyph-name="uniFE85" unicode="&#x624;" horiz-adv-x="508" arabic-form="isolated" 
d="M332 130v89c0 52 -23 86 -79 86c-59 0 -88 -38 -88 -95c0 -69 28 -102 90 -102c24 0 53 7 77 22zM317 18c-26 -12 -57 -18 -83 -18c-107 0 -183 77 -183 209c0 122 75 203 199 203c115 0 194 -61 194 -194v-97c0 -171 -36 -243 -236 -343c-14 -7 -25 -4 -33 11l-28 51
c-8 15 -2 24 17 34c90 48 134 84 153 144zM151 585h29c-11 16 -18 38 -18 58c0 56 45 92 101 92c28 0 53 -7 78 -23c7 -5 12 -13 7 -21l-10 -25c-4 -9 -7 -13 -17 -7c-18 9 -34 14 -51 14c-25 0 -43 -17 -43 -44c0 -13 5 -29 16 -44h102c11 0 14 -4 14 -14v-34
c0 -9 -3 -14 -14 -14h-194c-11 0 -14 5 -14 15v33c0 10 3 14 14 14z" />
    <glyph glyph-name="uniFE84" unicode="&#x623;" horiz-adv-x="276" arabic-form="final" 
d="M65 125v555c0 17 6 22 19 24l72 10c14 2 21 -6 21 -21v-532c0 -41 9 -51 48 -51h51v-110h-62c-104 0 -149 43 -149 125zM25 861h29c-11 16 -18 38 -18 58c0 56 45 92 101 92c28 0 53 -7 78 -23c7 -5 12 -13 7 -21l-10 -25c-4 -9 -7 -13 -17 -7c-18 9 -34 14 -51 14
c-25 0 -43 -17 -43 -44c0 -13 5 -29 16 -44h102c11 0 14 -4 14 -14v-34c0 -9 -3 -14 -14 -14h-194c-11 0 -14 5 -14 15v33c0 10 3 14 14 14z" />
    <glyph glyph-name="uniFE83" unicode="&#x623;" horiz-adv-x="242" arabic-form="isolated" 
d="M151 0h-60c-18 0 -26 7 -26 25v655c0 17 6 22 19 24l72 10c14 2 21 -6 21 -21v-668c0 -18 -8 -25 -26 -25zM24 861h29c-11 16 -18 38 -18 58c0 56 45 92 101 92c28 0 53 -7 78 -23c7 -5 12 -13 7 -21l-10 -25c-4 -9 -7 -13 -17 -7c-18 9 -34 14 -51 14
c-25 0 -43 -17 -43 -44c0 -13 5 -29 16 -44h102c11 0 14 -4 14 -14v-34c0 -9 -3 -14 -14 -14h-194c-11 0 -14 5 -14 15v33c0 10 3 14 14 14z" />
    <glyph glyph-name="uniFE82" unicode="&#x622;" horiz-adv-x="276" arabic-form="final" 
d="M65 125v555c0 17 6 22 19 24l72 10c14 2 21 -6 21 -21v-532c0 -41 9 -51 48 -51h51v-110h-62c-104 0 -149 43 -149 125zM59 906c25 0 45 -9 64 -19c20 -9 40 -19 62 -19c17 0 28 7 41 24c5 6 11 7 15 1l20 -24c4 -5 6 -10 0 -18c-23 -34 -44 -52 -76 -52
c-25 0 -43 8 -64 19c-25 12 -42 20 -63 20c-17 0 -28 -7 -41 -24c-5 -6 -11 -7 -15 -1l-20 23c-4 5 -6 11 0 19c21 34 45 51 77 51z" />
    <glyph glyph-name="uniFE81" unicode="&#x622;" horiz-adv-x="242" arabic-form="isolated" 
d="M151 0h-60c-18 0 -26 7 -26 25v655c0 17 6 22 19 24l72 10c14 2 21 -6 21 -21v-668c0 -18 -8 -25 -26 -25zM58 906c25 0 45 -9 64 -19c20 -9 40 -19 62 -19c17 0 28 7 41 24c5 6 11 7 15 1l20 -24c4 -5 6 -10 0 -18c-23 -34 -44 -52 -76 -52c-25 0 -43 8 -64 19
c-25 12 -42 20 -63 20c-17 0 -28 -7 -41 -24c-5 -6 -11 -7 -15 -1l-20 23c-4 5 -6 11 0 19c21 34 45 51 77 51z" />
    <glyph glyph-name="uniFE80" unicode="&#x621;" horiz-adv-x="506" arabic-form="isolated" 
d="M297 237c-44 0 -64 -26 -64 -59c0 -24 10 -53 30 -76h171c15 0 21 -9 21 -24v-55c0 -15 -5 -23 -22 -23h-362c-15 0 -20 8 -20 23v55c0 15 5 24 20 24h82c-22 31 -32 65 -32 96c0 87 71 141 155 141c44 0 86 -11 120 -34c11 -7 13 -17 9 -28l-21 -49
c-5 -13 -11 -15 -23 -9c-24 12 -46 18 -64 18z" />
    <glyph glyph-name="uniFE8A" unicode="&#x626;" horiz-adv-x="776" arabic-form="final" 
d="M402 -112c156 0 246 39 246 81c0 24 -29 45 -99 69l-93 32c-17 6 -21 16 -16 32l16 51c6 20 17 26 37 19l58 -20c97 -34 143 -42 205 -42h20v-110h-24c7 -12 10 -26 10 -36c0 -104 -143 -184 -361 -184c-227 0 -358 86 -358 254c0 56 17 120 48 181c11 21 19 29 41 19
l48 -22c18 -8 22 -16 12 -37c-22 -45 -35 -94 -35 -133c0 -102 79 -154 245 -154zM39 416h29c-11 16 -18 38 -18 58c0 56 45 92 101 92c28 0 53 -7 78 -23c7 -5 12 -13 7 -21l-10 -25c-4 -9 -7 -13 -17 -7c-18 9 -34 14 -51 14c-25 0 -43 -17 -43 -44c0 -13 5 -29 16 -44
h102c11 0 14 -4 14 -14v-34c0 -9 -3 -14 -14 -14h-194c-11 0 -14 5 -14 15v33c0 10 3 14 14 14z" />
    <glyph glyph-name="uniFE8C" unicode="&#x626;" horiz-adv-x="358" arabic-form="medial" 
d="M99 0h-109c-13 0 -32 7 -32 55s19 55 32 55h98c39 0 48 10 48 51v226c0 18 8 25 26 25h60c18 0 26 -7 26 -25v-248c22 -20 52 -29 104 -29h6v-110h-6c-58 0 -98 18 -123 50c-22 -33 -65 -50 -130 -50zM92 585h29c-11 16 -18 38 -18 58c0 56 45 92 101 92
c28 0 53 -7 78 -23c7 -5 12 -13 7 -21l-10 -25c-4 -9 -7 -13 -17 -7c-18 9 -34 14 -51 14c-25 0 -43 -17 -43 -44c0 -13 5 -29 16 -44h102c11 0 14 -4 14 -14v-34c0 -9 -3 -14 -14 -14h-194c-11 0 -14 5 -14 15v33c0 10 3 14 14 14z" />
    <glyph glyph-name="uniFE8B" unicode="&#x626;" horiz-adv-x="304" arabic-form="initial" 
d="M-10 110h88c39 0 48 10 48 51v226c0 18 8 25 26 25h60c18 0 26 -7 26 -25v-262c0 -82 -45 -125 -149 -125h-99c-13 0 -32 7 -32 55s19 55 32 55zM83 585h29c-11 16 -18 38 -18 58c0 56 45 92 101 92c28 0 53 -7 78 -23c7 -5 12 -13 7 -21l-10 -25c-4 -9 -7 -13 -17 -7
c-18 9 -34 14 -51 14c-25 0 -43 -17 -43 -44c0 -13 5 -29 16 -44h102c11 0 14 -4 14 -14v-34c0 -9 -3 -14 -14 -14h-194c-11 0 -14 5 -14 15v33c0 10 3 14 14 14z" />
    <glyph glyph-name="uniFE89" unicode="&#x626;" horiz-adv-x="854" arabic-form="isolated" 
d="M743 296c-51 26 -98 37 -137 37c-71 0 -108 -37 -108 -80c0 -38 25 -64 115 -113c73 -40 146 -85 146 -158c0 -118 -144 -202 -358 -202c-227 0 -358 86 -358 254c0 56 17 120 48 181c11 21 19 29 41 19l48 -22c18 -8 22 -16 12 -37c-22 -45 -35 -94 -35 -133
c0 -102 80 -154 245 -154c146 0 243 43 243 88c0 28 -45 54 -98 84c-77 44 -163 98 -163 190c0 125 102 190 220 190c58 0 121 -17 176 -50c20 -12 24 -19 17 -35l-23 -52c-6 -14 -17 -14 -31 -7zM39 416h29c-11 16 -18 38 -18 58c0 56 45 92 101 92c28 0 53 -7 78 -23
c7 -5 12 -13 7 -21l-10 -25c-4 -9 -7 -13 -17 -7c-18 9 -34 14 -51 14c-25 0 -43 -17 -43 -44c0 -13 5 -29 16 -44h102c11 0 14 -4 14 -14v-34c0 -9 -3 -14 -14 -14h-194c-11 0 -14 5 -14 15v33c0 10 3 14 14 14z" />
    <glyph glyph-name="uniFE9E" unicode="&#x62c;" horiz-adv-x="598" arabic-form="final" 
d="M505 -149c0 -34 -26 -56 -59 -56s-59 22 -59 56s26 56 59 56s59 -22 59 -56zM598 0h-306c-101 0 -144 -28 -144 -87c0 -58 52 -95 147 -95h12c24 0 32 -8 32 -28v-39c0 -29 -4 -33 -23 -37c-14 -3 -28 -4 -43 -4c-134 0 -239 69 -239 204c0 127 83 196 261 196h111
c-23 24 -33 46 -46 103c-17 80 -48 110 -111 110c-32 0 -70 -11 -115 -37c-17 -9 -23 -6 -30 9l-23 54c-5 11 -2 19 10 28c55 36 113 53 168 53c121 0 185 -67 212 -193c12 -62 29 -96 73 -127h54v-110z" />
    <glyph glyph-name="uniFEA0" unicode="&#x62c;" horiz-adv-x="570" arabic-form="medial" 
d="M570 0h-580c-13 0 -32 7 -32 54c0 49 19 56 32 56h390c-23 24 -33 46 -45 103c-18 80 -51 110 -114 110c-33 0 -70 -11 -115 -37c-17 -9 -24 -6 -30 9l-23 54c-5 11 -2 19 10 28c55 36 112 53 168 53c121 0 185 -67 211 -193c13 -62 30 -96 74 -127h54v-110zM222 -229
c-32 0 -57 21 -57 55c0 33 25 54 57 54c33 0 58 -21 58 -54c0 -34 -25 -55 -58 -55z" />
    <glyph glyph-name="uniFE9F" unicode="&#x62c;" horiz-adv-x="550" arabic-form="initial" 
d="M493 0h-503c-13 0 -32 7 -32 54c0 49 19 56 32 56h390c-23 24 -33 46 -46 103c-17 80 -48 110 -112 110c-32 0 -70 -11 -114 -37c-17 -9 -24 -6 -30 9l-24 54c-5 11 -2 19 11 28c55 36 112 53 167 53c122 0 185 -67 212 -193c12 -55 25 -85 53 -110c18 -17 19 -23 19 -38
v-63c0 -16 -6 -26 -23 -26zM221 -229c-32 0 -57 21 -57 55c0 33 25 54 57 54c33 0 58 -21 58 -54c0 -34 -25 -55 -58 -55z" />
    <glyph glyph-name="uniFE9D" unicode="&#x62c;" horiz-adv-x="577" arabic-form="isolated" 
d="M495 -149c0 -34 -26 -56 -59 -56s-59 22 -59 56s26 56 59 56s59 -22 59 -56zM520 0h-230c-101 0 -142 -28 -142 -87c0 -58 52 -95 147 -95h12c24 0 32 -8 32 -28v-39c0 -29 -4 -33 -23 -37c-14 -3 -28 -4 -43 -4c-134 0 -239 69 -239 204c0 127 81 196 259 196h113
c-23 24 -33 46 -46 103c-17 80 -48 110 -111 110c-32 0 -70 -11 -115 -37c-17 -9 -23 -6 -30 9l-23 54c-5 11 -2 19 10 28c55 36 113 53 168 53c121 0 184 -67 212 -193c12 -55 24 -85 52 -110c18 -17 20 -23 20 -38v-63c0 -16 -6 -26 -23 -26z" />
    <glyph glyph-name="uniFE9A" unicode="&#x62b;" horiz-adv-x="955" arabic-form="final" 
d="M696 0h-401c-162 0 -246 80 -246 211v115c0 18 8 25 26 25h60c18 0 26 -7 26 -25v-66c0 -110 37 -150 157 -150h367c39 0 48 10 48 51v226c0 18 8 25 26 25h60c18 0 26 -7 26 -25v-248c22 -20 52 -29 104 -29h6v-110h-6c-58 0 -98 18 -123 50c-22 -33 -65 -50 -130 -50z
M441 600c-32 0 -57 20 -57 54c0 33 25 54 57 54c33 0 58 -21 58 -54c0 -34 -25 -54 -58 -54zM368 473c-33 0 -58 21 -58 54s25 55 58 55c32 0 57 -22 57 -55s-25 -54 -57 -54zM515 473c-33 0 -58 21 -58 54s25 55 58 55c32 0 57 -22 57 -55s-25 -54 -57 -54z" />
    <glyph glyph-name="uniFE9C" unicode="&#x62b;" horiz-adv-x="358" arabic-form="medial" 
d="M99 0h-109c-13 0 -32 7 -32 55s19 55 32 55h98c39 0 48 10 48 51v226c0 18 8 25 26 25h60c18 0 26 -7 26 -25v-248c22 -20 52 -29 104 -29h6v-110h-6c-58 0 -98 18 -123 50c-22 -33 -65 -50 -130 -50zM194 659c-32 0 -57 20 -57 54c0 33 25 54 57 54c33 0 58 -21 58 -54
c0 -34 -25 -54 -58 -54zM121 532c-33 0 -58 21 -58 54s25 55 58 55c32 0 57 -22 57 -55s-25 -54 -57 -54zM268 532c-33 0 -58 21 -58 54s25 55 58 55c32 0 57 -22 57 -55s-25 -54 -57 -54z" />
    <glyph glyph-name="uniFE9B" unicode="&#x62b;" horiz-adv-x="304" arabic-form="initial" 
d="M-10 110h88c39 0 48 10 48 51v226c0 18 8 25 26 25h60c18 0 26 -7 26 -25v-262c0 -82 -45 -125 -149 -125h-99c-13 0 -32 7 -32 55s19 55 32 55zM178 659c-32 0 -57 20 -57 54c0 33 25 54 57 54c33 0 58 -21 58 -54c0 -34 -25 -54 -58 -54zM105 532c-33 0 -58 21 -58 54
s25 55 58 55c32 0 57 -22 57 -55s-25 -54 -57 -54zM252 532c-33 0 -58 21 -58 54s25 55 58 55c32 0 57 -22 57 -55s-25 -54 -57 -54z" />
    <glyph glyph-name="uniFE99" unicode="&#x62b;" horiz-adv-x="910" arabic-form="isolated" 
d="M696 0h-401c-162 0 -246 80 -246 211v115c0 18 8 25 26 25h60c18 0 26 -7 26 -25v-66c0 -110 37 -150 157 -150h367c39 0 48 10 48 51v226c0 18 8 25 26 25h60c18 0 26 -7 26 -25v-262c0 -82 -45 -125 -149 -125zM450 600c-32 0 -57 20 -57 54c0 33 25 54 57 54
c33 0 58 -21 58 -54c0 -34 -25 -54 -58 -54zM377 473c-33 0 -58 21 -58 54s25 55 58 55c32 0 57 -22 57 -55s-25 -54 -57 -54zM524 473c-33 0 -58 21 -58 54s25 55 58 55c32 0 57 -22 57 -55s-25 -54 -57 -54z" />
    <glyph glyph-name="uniFE96" unicode="&#x62a;" horiz-adv-x="955" arabic-form="final" 
d="M696 0h-401c-162 0 -246 80 -246 211v115c0 18 8 25 26 25h60c18 0 26 -7 26 -25v-66c0 -110 37 -150 157 -150h367c39 0 48 10 48 51v226c0 18 8 25 26 25h60c18 0 26 -7 26 -25v-248c22 -20 52 -29 104 -29h6v-110h-6c-58 0 -98 18 -123 50c-22 -33 -65 -50 -130 -50z
M372 473c-33 0 -58 21 -58 54s25 55 58 55c32 0 57 -22 57 -55s-25 -54 -57 -54zM519 473c-33 0 -58 21 -58 54s25 55 58 55c32 0 57 -22 57 -55s-25 -54 -57 -54z" />
    <glyph glyph-name="uniFE98" unicode="&#x62a;" horiz-adv-x="358" arabic-form="medial" 
d="M99 0h-109c-13 0 -32 7 -32 55s19 55 32 55h98c39 0 48 10 48 51v226c0 18 8 25 26 25h60c18 0 26 -7 26 -25v-248c22 -20 52 -29 104 -29h6v-110h-6c-58 0 -98 18 -123 50c-22 -33 -65 -50 -130 -50zM120 532c-33 0 -58 21 -58 54s25 55 58 55c32 0 57 -22 57 -55
s-25 -54 -57 -54zM267 532c-33 0 -58 21 -58 54s25 55 58 55c32 0 57 -22 57 -55s-25 -54 -57 -54z" />
    <glyph glyph-name="uniFE97" unicode="&#x62a;" horiz-adv-x="304" arabic-form="initial" 
d="M-10 110h88c39 0 48 10 48 51v226c0 18 8 25 26 25h60c18 0 26 -7 26 -25v-262c0 -82 -45 -125 -149 -125h-99c-13 0 -32 7 -32 55s19 55 32 55zM103 532c-33 0 -58 21 -58 54s25 55 58 55c32 0 57 -22 57 -55s-25 -54 -57 -54zM250 532c-33 0 -58 21 -58 54s25 55 58 55
c32 0 57 -22 57 -55s-25 -54 -57 -54z" />
    <glyph glyph-name="uniFE95" unicode="&#x62a;" horiz-adv-x="910" arabic-form="isolated" 
d="M696 0h-401c-162 0 -246 80 -246 211v115c0 18 8 25 26 25h60c18 0 26 -7 26 -25v-66c0 -110 37 -150 157 -150h367c39 0 48 10 48 51v226c0 18 8 25 26 25h60c18 0 26 -7 26 -25v-262c0 -82 -45 -125 -149 -125zM381 473c-33 0 -58 21 -58 54s25 55 58 55
c32 0 57 -22 57 -55s-25 -54 -57 -54zM528 473c-33 0 -58 21 -58 54s25 55 58 55c32 0 57 -22 57 -55s-25 -54 -57 -54z" />
    <glyph glyph-name="uniFE90" unicode="&#x628;" horiz-adv-x="955" arabic-form="final" 
d="M696 0h-401c-162 0 -246 80 -246 211v115c0 18 8 25 26 25h60c18 0 26 -7 26 -25v-66c0 -110 37 -150 157 -150h367c39 0 48 10 48 51v226c0 18 8 25 26 25h60c18 0 26 -7 26 -25v-248c22 -20 52 -29 104 -29h6v-110h-6c-58 0 -98 18 -123 50c-22 -33 -65 -50 -130 -50z
M441 -229c-32 0 -57 21 -57 55c0 33 25 54 57 54c33 0 58 -21 58 -54c0 -34 -25 -55 -58 -55z" />
    <glyph glyph-name="uniFE92" unicode="&#x628;" horiz-adv-x="358" arabic-form="medial" 
d="M99 0h-109c-13 0 -32 7 -32 55s19 55 32 55h98c39 0 48 10 48 51v226c0 18 8 25 26 25h60c18 0 26 -7 26 -25v-248c22 -20 52 -29 104 -29h6v-110h-6c-58 0 -98 18 -123 50c-22 -33 -65 -50 -130 -50zM68 -229c-32 0 -57 21 -57 55c0 33 25 54 57 54c33 0 58 -21 58 -54
c0 -34 -25 -55 -58 -55z" />
    <glyph glyph-name="uniFE91" unicode="&#x628;" horiz-adv-x="304" arabic-form="initial" 
d="M-10 110h88c39 0 48 10 48 51v226c0 18 8 25 26 25h60c18 0 26 -7 26 -25v-262c0 -82 -45 -125 -149 -125h-99c-13 0 -32 7 -32 55s19 55 32 55zM58 -229c-32 0 -57 21 -57 55c0 33 25 54 57 54c33 0 58 -21 58 -54c0 -34 -25 -55 -58 -55z" />
    <glyph glyph-name="uniFE8F" unicode="&#x628;" horiz-adv-x="910" arabic-form="isolated" 
d="M696 0h-401c-162 0 -246 80 -246 211v115c0 18 8 25 26 25h60c18 0 26 -7 26 -25v-66c0 -110 37 -150 157 -150h367c39 0 48 10 48 51v226c0 18 8 25 26 25h60c18 0 26 -7 26 -25v-262c0 -82 -45 -125 -149 -125zM453 -229c-32 0 -57 21 -57 55c0 33 25 54 57 54
c33 0 58 -21 58 -54c0 -34 -25 -55 -58 -55z" />
    <glyph glyph-name="uniFE8E" unicode="&#x627;" horiz-adv-x="276" arabic-form="final" 
d="M65 125v555c0 17 6 22 19 24l72 10c14 2 21 -6 21 -21v-532c0 -41 9 -51 48 -51h51v-110h-62c-104 0 -149 43 -149 125z" />
    <glyph glyph-name="uniFE8D" unicode="&#x627;" horiz-adv-x="242" arabic-form="isolated" 
d="M151 0h-60c-18 0 -26 7 -26 25v655c0 17 6 22 19 24l72 10c14 2 21 -6 21 -21v-668c0 -18 -8 -25 -26 -25z" />
    <glyph glyph-name="uniFEAE" unicode="&#x631;" horiz-adv-x="351" arabic-form="final" 
d="M257 387v-277h94v-110h-104c-19 -94 -73 -150 -197 -216c-14 -8 -25 -4 -33 11l-28 51c-8 15 -1 24 17 34c108 61 139 107 139 246v261c0 18 8 25 26 25h60c18 0 26 -7 26 -25z" />
    <glyph glyph-name="uniFEAD" unicode="&#x631;" horiz-adv-x="322" arabic-form="isolated" 
d="M257 387v-274c0 -170 -40 -240 -207 -329c-14 -8 -25 -4 -33 11l-28 51c-8 15 -1 24 17 34c108 61 139 107 139 246v261c0 18 8 25 26 25h60c18 0 26 -7 26 -25z" />
    <glyph glyph-name="uniFEAC" unicode="&#x630;" horiz-adv-x="593" arabic-form="final" 
d="M374 110v97c0 87 -38 116 -134 116c-46 0 -90 -10 -123 -10c-13 0 -21 6 -21 22v47c0 15 4 21 16 26c31 13 96 22 140 22c156 0 234 -61 234 -218v-102h107v-110h-537c-17 0 -23 9 -23 25v59c0 16 6 26 23 26h318zM272 540c-32 0 -57 21 -57 54s25 55 57 55
c33 0 58 -22 58 -55s-25 -54 -58 -54z" />
    <glyph glyph-name="uniFEAB" unicode="&#x630;" horiz-adv-x="543" arabic-form="isolated" 
d="M112 408c31 13 95 22 139 22c157 0 235 -61 235 -218v-87c0 -82 -44 -125 -146 -125h-283c-18 0 -24 9 -24 25v60c0 16 6 25 24 25h260c47 0 57 12 57 57v40c0 87 -39 116 -135 116c-45 0 -89 -10 -122 -10c-13 0 -21 6 -21 22v47c0 15 4 21 16 26zM255 540
c-32 0 -57 21 -57 54s25 55 57 55c33 0 58 -22 58 -55s-25 -54 -58 -54z" />
    <glyph glyph-name="uniFEAA" unicode="&#x62f;" horiz-adv-x="593" arabic-form="final" 
d="M374 110v97c0 87 -38 116 -134 116c-46 0 -90 -10 -123 -10c-13 0 -21 6 -21 22v47c0 15 4 21 16 26c31 13 96 22 140 22c156 0 234 -61 234 -218v-102h107v-110h-537c-17 0 -23 9 -23 25v59c0 16 6 26 23 26h318z" />
    <glyph glyph-name="uniFEA9" unicode="&#x62f;" horiz-adv-x="543" arabic-form="isolated" 
d="M112 408c31 13 95 22 139 22c157 0 235 -61 235 -218v-87c0 -82 -44 -125 -146 -125h-283c-18 0 -24 9 -24 25v60c0 16 6 25 24 25h260c47 0 57 12 57 57v40c0 87 -39 116 -135 116c-45 0 -89 -10 -122 -10c-13 0 -21 6 -21 22v47c0 15 4 21 16 26z" />
    <glyph glyph-name="uniFEA6" unicode="&#x62e;" horiz-adv-x="598" arabic-form="final" 
d="M298 -183c48 0 98 9 157 27c22 6 27 2 32 -13l18 -49c7 -20 1 -29 -19 -37c-48 -21 -122 -35 -191 -35c-168 0 -261 72 -261 204c0 127 80 196 255 196h117c-23 24 -33 46 -46 103c-17 80 -48 110 -111 110c-32 0 -70 -11 -115 -37c-17 -9 -23 -6 -30 9l-23 54
c-5 11 -2 19 10 28c55 36 113 53 168 53c121 0 185 -67 212 -193c12 -62 29 -96 73 -127h54v-110h-313c-95 0 -136 -28 -136 -87c0 -64 60 -96 149 -96zM274 540c-32 0 -57 21 -57 54s25 55 57 55c33 0 58 -22 58 -55s-25 -54 -58 -54z" />
    <glyph glyph-name="uniFEA8" unicode="&#x62e;" horiz-adv-x="570" arabic-form="medial" 
d="M570 0h-580c-13 0 -32 7 -32 54c0 49 19 56 32 56h390c-23 24 -33 46 -45 103c-18 80 -51 110 -114 110c-33 0 -70 -11 -115 -37c-17 -9 -24 -6 -30 9l-23 54c-5 11 -2 19 10 28c55 36 112 53 168 53c121 0 185 -67 211 -193c13 -62 30 -96 74 -127h54v-110zM248 540
c-32 0 -57 21 -57 54s25 55 57 55c33 0 58 -22 58 -55s-25 -54 -58 -54z" />
    <glyph glyph-name="uniFEA7" unicode="&#x62e;" horiz-adv-x="550" arabic-form="initial" 
d="M493 0h-503c-13 0 -32 7 -32 54c0 49 19 56 32 56h390c-23 24 -33 46 -46 103c-17 80 -48 110 -112 110c-32 0 -70 -11 -114 -37c-17 -9 -24 -6 -30 9l-24 54c-5 11 -2 19 11 28c55 36 112 53 167 53c122 0 185 -67 212 -193c12 -55 25 -85 53 -110c18 -17 19 -23 19 -38
v-63c0 -16 -6 -26 -23 -26zM248 540c-32 0 -57 21 -57 54s25 55 57 55c33 0 58 -22 58 -55s-25 -54 -58 -54z" />
    <glyph glyph-name="uniFEA5" unicode="&#x62e;" horiz-adv-x="577" arabic-form="isolated" 
d="M520 0h-235c-95 0 -136 -28 -136 -87c0 -64 60 -96 149 -96c47 0 98 9 157 27c22 6 27 2 32 -13l18 -49c7 -20 1 -29 -19 -37c-48 -21 -122 -35 -191 -35c-168 0 -261 72 -261 204c0 127 80 196 255 196h117c-23 24 -33 46 -46 103c-17 80 -48 110 -111 110
c-32 0 -70 -11 -115 -37c-17 -9 -23 -6 -30 9l-23 54c-5 11 -2 19 10 28c55 36 113 53 168 53c121 0 184 -67 212 -193c12 -55 24 -85 52 -110c18 -17 20 -23 20 -38v-63c0 -16 -6 -26 -23 -26zM274 540c-32 0 -57 21 -57 54s25 55 57 55c33 0 58 -22 58 -55
s-25 -54 -58 -54z" />
    <glyph glyph-name="uniFEA2" unicode="&#x62d;" horiz-adv-x="598" arabic-form="final" 
d="M298 -183c48 0 98 9 157 27c22 6 27 2 32 -13l18 -49c7 -20 1 -29 -19 -37c-48 -21 -122 -35 -191 -35c-168 0 -261 72 -261 204c0 127 80 196 255 196h117c-23 24 -33 46 -46 103c-17 80 -48 110 -111 110c-32 0 -70 -11 -115 -37c-17 -9 -23 -6 -30 9l-23 54
c-5 11 -2 19 10 28c55 36 113 53 168 53c121 0 185 -67 212 -193c12 -62 29 -96 73 -127h54v-110h-313c-95 0 -136 -28 -136 -87c0 -64 60 -96 149 -96z" />
    <glyph glyph-name="uniFEA4" unicode="&#x62d;" horiz-adv-x="570" arabic-form="medial" 
d="M570 0h-580c-13 0 -32 7 -32 54c0 49 19 56 32 56h390c-23 24 -33 46 -45 103c-18 80 -51 110 -114 110c-33 0 -70 -11 -115 -37c-17 -9 -24 -6 -30 9l-23 54c-5 11 -2 19 10 28c55 36 112 53 168 53c121 0 185 -67 211 -193c13 -62 30 -96 74 -127h54v-110z" />
    <glyph glyph-name="uniFEA3" unicode="&#x62d;" horiz-adv-x="550" arabic-form="initial" 
d="M493 0h-503c-13 0 -32 7 -32 54c0 49 19 56 32 56h390c-23 24 -33 46 -46 103c-17 80 -48 110 -112 110c-32 0 -70 -11 -114 -37c-17 -9 -24 -6 -30 9l-24 54c-5 11 -2 19 11 28c55 36 112 53 167 53c122 0 185 -67 212 -193c12 -55 25 -85 53 -110c18 -17 19 -23 19 -38
v-63c0 -16 -6 -26 -23 -26z" />
    <glyph glyph-name="uniFEA1" unicode="&#x62d;" horiz-adv-x="577" arabic-form="isolated" 
d="M520 0h-235c-95 0 -136 -28 -136 -87c0 -64 60 -96 149 -96c47 0 98 9 157 27c22 6 27 2 32 -13l18 -49c7 -20 1 -29 -19 -37c-48 -21 -122 -35 -191 -35c-168 0 -261 72 -261 204c0 127 80 196 255 196h117c-23 24 -33 46 -46 103c-17 80 -48 110 -111 110
c-32 0 -70 -11 -115 -37c-17 -9 -23 -6 -30 9l-23 54c-5 11 -2 19 10 28c55 36 113 53 168 53c121 0 184 -67 212 -193c12 -55 24 -85 52 -110c18 -17 20 -23 20 -38v-63c0 -16 -6 -26 -23 -26z" />
    <glyph glyph-name="uniFEBE" unicode="&#x636;" horiz-adv-x="1166" arabic-form="final" 
d="M974 110v70c0 103 -45 145 -111 145c-99 0 -196 -106 -264 -215h375zM1166 0h-568c-16 -147 -115 -220 -278 -220c-168 0 -277 81 -277 252c0 55 15 112 41 163c10 20 18 27 38 18l47 -21c18 -7 23 -15 14 -37c-18 -43 -25 -86 -25 -122c0 -96 57 -146 165 -146
c115 0 165 54 165 161v341c0 17 9 23 24 23h65c15 0 23 -5 23 -23v-120c73 98 166 163 270 163c136 0 218 -98 218 -249v-73h78v-110zM868 542c-32 0 -57 21 -57 54s25 55 57 55c33 0 58 -22 58 -55s-25 -54 -58 -54z" />
    <glyph glyph-name="uniFEC0" unicode="&#x636;" horiz-adv-x="766" arabic-form="medial" 
d="M-10 110h98v279c0 17 10 23 26 23h62c16 0 25 -5 25 -23v-120c72 98 165 163 269 163c135 0 218 -98 218 -249v-73h78v-110h-776c-13 0 -32 7 -32 54c0 49 19 56 32 56zM463 325c-101 0 -198 -109 -263 -215h374v70c0 103 -46 145 -111 145zM459 542c-32 0 -57 21 -57 54
s25 55 57 55c33 0 58 -22 58 -55s-25 -54 -58 -54z" />
    <glyph glyph-name="uniFEBF" unicode="&#x636;" horiz-adv-x="735" arabic-form="initial" 
d="M469 0h-479c-13 0 -32 7 -32 54c0 49 19 56 32 56h98v279c0 17 10 23 26 23h62c16 0 25 -5 25 -23v-120c73 98 166 163 270 163c136 0 217 -98 217 -249c0 -133 -58 -183 -219 -183zM200 110h289c64 0 84 22 84 80c0 84 -41 135 -109 135c-99 0 -196 -106 -264 -215z
M469 542c-32 0 -57 21 -57 54s25 55 57 55c33 0 58 -22 58 -55s-25 -54 -58 -54z" />
    <glyph glyph-name="uniFEBD" unicode="&#x636;" horiz-adv-x="1135" arabic-form="isolated" 
d="M869 0h-271c-16 -147 -115 -220 -278 -220c-168 0 -277 81 -277 252c0 55 15 112 41 163c10 20 18 27 38 18l47 -21c18 -7 23 -15 14 -37c-18 -43 -25 -86 -25 -122c0 -96 57 -146 165 -146c115 0 165 54 165 161v341c0 17 9 23 24 23h65c15 0 23 -5 23 -23v-120
c73 98 166 163 270 163c136 0 218 -98 218 -249c0 -133 -59 -183 -219 -183zM599 110h290c64 0 84 22 84 80c0 84 -42 135 -110 135c-99 0 -196 -106 -264 -215zM864 542c-32 0 -57 21 -57 54s25 55 57 55c33 0 58 -22 58 -55s-25 -54 -58 -54z" />
    <glyph glyph-name="uniFEBA" unicode="&#x635;" horiz-adv-x="1166" arabic-form="final" 
d="M974 110v70c0 103 -45 145 -111 145c-99 0 -196 -106 -264 -215h375zM1166 0h-568c-16 -147 -115 -220 -278 -220c-168 0 -277 81 -277 252c0 55 15 112 41 163c10 20 18 27 38 18l47 -21c18 -7 23 -15 14 -37c-18 -43 -25 -86 -25 -122c0 -96 57 -146 165 -146
c115 0 165 54 165 161v341c0 17 9 23 24 23h65c15 0 23 -5 23 -23v-120c73 98 166 163 270 163c136 0 218 -98 218 -249v-73h78v-110z" />
    <glyph glyph-name="uniFEBC" unicode="&#x635;" horiz-adv-x="766" arabic-form="medial" 
d="M-10 110h98v279c0 17 10 23 26 23h62c16 0 25 -5 25 -23v-120c72 98 165 163 269 163c135 0 218 -98 218 -249v-73h78v-110h-776c-13 0 -32 7 -32 54c0 49 19 56 32 56zM463 325c-101 0 -198 -109 -263 -215h374v70c0 103 -46 145 -111 145z" />
    <glyph glyph-name="uniFEBB" unicode="&#x635;" horiz-adv-x="735" arabic-form="initial" 
d="M469 0h-479c-13 0 -32 7 -32 54c0 49 19 56 32 56h98v279c0 17 10 23 26 23h62c16 0 25 -5 25 -23v-120c73 98 166 163 270 163c136 0 217 -98 217 -249c0 -133 -58 -183 -219 -183zM200 110h289c64 0 84 22 84 80c0 84 -41 135 -109 135c-99 0 -196 -106 -264 -215z" />
    <glyph glyph-name="uniFEB9" unicode="&#x635;" horiz-adv-x="1135" arabic-form="isolated" 
d="M869 0h-271c-16 -147 -115 -220 -278 -220c-168 0 -277 81 -277 252c0 55 15 112 41 163c10 20 18 27 38 18l47 -21c18 -7 23 -15 14 -37c-18 -43 -25 -86 -25 -122c0 -96 57 -146 165 -146c115 0 165 54 165 161v341c0 17 9 23 24 23h65c15 0 23 -5 23 -23v-120
c73 98 166 163 270 163c136 0 218 -98 218 -249c0 -133 -59 -183 -219 -183zM599 110h290c64 0 84 22 84 80c0 84 -42 135 -110 135c-99 0 -196 -106 -264 -215z" />
    <glyph glyph-name="uniFEB6" unicode="&#x634;" horiz-adv-x="1213" arabic-form="final" 
d="M43 31c0 56 13 113 40 163c13 24 21 27 40 19l48 -21c18 -8 21 -16 12 -38c-18 -42 -26 -85 -25 -122c0 -94 57 -144 165 -144c115 0 164 55 164 160v250c0 18 9 24 24 24h65c16 0 24 -6 24 -24v-160c26 -21 53 -31 79 -31c45 0 60 27 60 68v123c0 18 10 24 26 24h63
c16 0 24 -6 24 -24v-159c25 -22 52 -32 78 -32c44 0 61 26 61 68v213c0 18 9 24 23 24h65c16 0 25 -6 25 -24v-223c0 -9 0 -17 -1 -26c22 -22 53 -30 106 -30h4v-109h-6c-63 0 -105 21 -129 59c-24 -36 -66 -59 -123 -59c-52 0 -97 19 -130 59c-24 -36 -65 -59 -122 -59
c-39 0 -75 10 -104 33c0 -169 -108 -253 -279 -253c-169 0 -277 82 -277 251zM799 659c-32 0 -57 20 -57 54c0 33 25 54 57 54c33 0 58 -21 58 -54c0 -34 -25 -54 -58 -54zM726 532c-33 0 -58 21 -58 54s25 55 58 55c32 0 57 -22 57 -55s-25 -54 -57 -54zM873 532
c-33 0 -58 21 -58 54s25 55 58 55c32 0 57 -22 57 -55s-25 -54 -57 -54z" />
    <glyph glyph-name="uniFEB8" unicode="&#x634;" horiz-adv-x="868" arabic-form="medial" 
d="M99 0h-109c-13 0 -32 7 -32 55s19 55 32 55h96c38 0 56 19 56 57v131c0 18 10 24 24 24h65c16 0 24 -6 24 -24v-160c26 -21 53 -31 79 -31c46 0 61 30 61 68v123c0 18 9 24 25 24h63c16 0 24 -6 24 -24v-159c25 -22 52 -32 78 -32c46 0 61 30 61 68v213c0 18 9 24 23 24
h65c16 0 25 -6 25 -24v-227c0 -8 0 -15 -1 -22c22 -21 53 -29 104 -29h6v-110h-6c-63 0 -105 21 -129 59c-24 -36 -66 -59 -123 -59c-52 0 -97 19 -130 59c-24 -36 -65 -59 -122 -59c-44 0 -94 18 -125 55c-24 -35 -68 -55 -134 -55zM457 659c-32 0 -57 20 -57 54
c0 33 25 54 57 54c33 0 58 -21 58 -54c0 -34 -25 -54 -58 -54zM384 532c-33 0 -58 21 -58 54s25 55 58 55c32 0 57 -22 57 -55s-25 -54 -57 -54zM531 532c-33 0 -58 21 -58 54s25 55 58 55c32 0 57 -22 57 -55s-25 -54 -57 -54z" />
    <glyph glyph-name="uniFEB7" unicode="&#x634;" horiz-adv-x="826" arabic-form="initial" 
d="M-10 110h100c44 0 57 19 57 72v116c0 18 9 24 24 24h65c15 0 24 -6 24 -24v-160c26 -21 53 -31 79 -31c46 0 61 30 61 68v123c0 18 10 24 25 24h64c16 0 24 -6 24 -24v-159c24 -22 51 -32 77 -32c44 0 60 27 60 68v213c0 18 9 24 24 24h65c16 0 24 -6 24 -24v-240
c0 -81 -52 -148 -148 -148c-53 0 -96 19 -129 59c-24 -36 -67 -59 -123 -59c-44 0 -95 18 -126 55c-23 -35 -67 -55 -134 -55h-113c-13 0 -32 7 -32 55s19 55 32 55zM457 659c-32 0 -57 20 -57 54c0 33 25 54 57 54c33 0 58 -21 58 -54c0 -34 -25 -54 -58 -54zM384 532
c-33 0 -58 21 -58 54s25 55 58 55c32 0 57 -22 57 -55s-25 -54 -57 -54zM531 532c-33 0 -58 21 -58 54s25 55 58 55c32 0 57 -22 57 -55s-25 -54 -57 -54z" />
    <glyph glyph-name="uniFEB5" unicode="&#x634;" horiz-adv-x="1167" arabic-form="isolated" 
d="M43 32c0 55 13 112 40 162c13 24 21 27 40 19l48 -21c18 -8 21 -16 12 -38c-18 -42 -26 -85 -25 -122c0 -94 57 -144 165 -144c114 0 164 55 164 160v250c0 18 9 24 24 24h65c16 0 24 -6 24 -24v-160c23 -21 53 -30 77 -30c47 0 62 29 62 67v123c0 18 9 24 25 24h63
c16 0 24 -6 24 -24v-159c24 -22 52 -30 77 -30c48 0 64 27 64 66v213c0 18 9 24 23 24h65c16 0 25 -6 25 -24v-240c0 -81 -53 -148 -150 -148c-52 0 -97 19 -130 59c-24 -36 -65 -59 -122 -59c-39 0 -75 10 -104 33c0 -169 -110 -253 -279 -253s-277 82 -277 252zM798 659
c-32 0 -57 20 -57 54c0 33 25 54 57 54c33 0 58 -21 58 -54c0 -34 -25 -54 -58 -54zM725 532c-33 0 -58 21 -58 54s25 55 58 55c32 0 57 -22 57 -55s-25 -54 -57 -54zM872 532c-33 0 -58 21 -58 54s25 55 58 55c32 0 57 -22 57 -55s-25 -54 -57 -54z" />
    <glyph glyph-name="uniFEB2" unicode="&#x633;" horiz-adv-x="1213" arabic-form="final" 
d="M43 31c0 56 13 113 40 163c13 24 21 27 40 19l48 -21c18 -8 21 -16 12 -38c-18 -42 -26 -85 -25 -122c0 -94 57 -144 165 -144c115 0 164 55 164 160v250c0 18 9 24 24 24h65c16 0 24 -6 24 -24v-160c26 -21 53 -31 79 -31c45 0 60 27 60 68v123c0 18 10 24 26 24h63
c16 0 24 -6 24 -24v-159c25 -22 52 -32 78 -32c44 0 61 26 61 68v213c0 18 9 24 23 24h65c16 0 25 -6 25 -24v-223c0 -9 0 -17 -1 -26c22 -22 53 -30 106 -30h4v-109h-6c-63 0 -105 21 -129 59c-24 -36 -66 -59 -123 -59c-52 0 -97 19 -130 59c-24 -36 -65 -59 -122 -59
c-39 0 -75 10 -104 33c0 -169 -108 -253 -279 -253c-169 0 -277 82 -277 251z" />
    <glyph glyph-name="uniFEB4" unicode="&#x633;" horiz-adv-x="868" arabic-form="medial" 
d="M99 0h-109c-13 0 -32 7 -32 55s19 55 32 55h96c38 0 56 19 56 57v131c0 18 10 24 24 24h65c16 0 24 -6 24 -24v-160c26 -21 53 -31 79 -31c46 0 61 30 61 68v123c0 18 9 24 25 24h63c16 0 24 -6 24 -24v-159c25 -22 52 -32 78 -32c46 0 61 30 61 68v213c0 18 9 24 23 24
h65c16 0 25 -6 25 -24v-227c0 -8 0 -15 -1 -22c22 -21 53 -29 104 -29h6v-110h-6c-63 0 -105 21 -129 59c-24 -36 -66 -59 -123 -59c-52 0 -97 19 -130 59c-24 -36 -65 -59 -122 -59c-44 0 -94 18 -125 55c-24 -35 -68 -55 -134 -55z" />
    <glyph glyph-name="uniFEB3" unicode="&#x633;" horiz-adv-x="826" arabic-form="initial" 
d="M-10 110h100c44 0 57 19 57 72v116c0 18 9 24 24 24h65c15 0 24 -6 24 -24v-160c26 -21 53 -31 79 -31c46 0 61 30 61 68v123c0 18 10 24 25 24h64c16 0 24 -6 24 -24v-159c24 -22 51 -32 77 -32c44 0 60 27 60 68v213c0 18 9 24 24 24h65c16 0 24 -6 24 -24v-240
c0 -81 -52 -148 -148 -148c-53 0 -96 19 -129 59c-24 -36 -67 -59 -123 -59c-44 0 -95 18 -126 55c-23 -35 -67 -55 -134 -55h-113c-13 0 -32 7 -32 55s19 55 32 55z" />
    <glyph glyph-name="uniFEB1" unicode="&#x633;" horiz-adv-x="1167" arabic-form="isolated" 
d="M43 32c0 55 13 112 40 162c13 24 21 27 40 19l48 -21c18 -8 21 -16 12 -38c-18 -42 -26 -85 -25 -122c0 -94 57 -144 165 -144c114 0 164 55 164 160v250c0 18 9 24 24 24h65c16 0 24 -6 24 -24v-160c23 -21 53 -30 77 -30c47 0 62 29 62 67v123c0 18 9 24 25 24h63
c16 0 24 -6 24 -24v-159c24 -22 52 -30 77 -30c48 0 64 27 64 66v213c0 18 9 24 23 24h65c16 0 25 -6 25 -24v-240c0 -81 -53 -148 -150 -148c-52 0 -97 19 -130 59c-24 -36 -65 -59 -122 -59c-39 0 -75 10 -104 33c0 -169 -110 -253 -279 -253s-277 82 -277 252z" />
    <glyph glyph-name="uniFEB0" unicode="&#x632;" horiz-adv-x="351" arabic-form="final" 
d="M257 387v-277h94v-110h-104c-19 -94 -73 -150 -197 -216c-14 -8 -25 -4 -33 11l-28 51c-8 15 -1 24 17 34c108 61 139 107 139 246v261c0 18 8 25 26 25h60c18 0 26 -7 26 -25zM206 532c-32 0 -57 21 -57 54s25 55 57 55c33 0 58 -22 58 -55s-25 -54 -58 -54z" />
    <glyph glyph-name="uniFEAF" unicode="&#x632;" horiz-adv-x="322" arabic-form="isolated" 
d="M257 387v-274c0 -170 -40 -240 -207 -329c-14 -8 -25 -4 -33 11l-28 51c-8 15 -1 24 17 34c108 61 139 107 139 246v261c0 18 8 25 26 25h60c18 0 26 -7 26 -25zM206 532c-32 0 -57 21 -57 54s25 55 57 55c33 0 58 -22 58 -55s-25 -54 -58 -54z" />
    <glyph glyph-name="uniFED2" unicode="&#x641;" horiz-adv-x="1017" arabic-form="final" 
d="M759 141c63 33 89 82 89 115c0 39 -32 70 -89 70s-89 -31 -89 -70c0 -33 26 -82 89 -115zM1017 110v-110h-61c-70 0 -136 10 -197 34c-61 -24 -127 -34 -197 -34h-268c-162 0 -246 80 -246 211v115c0 18 8 25 26 25h60c18 0 26 -7 26 -25v-66c0 -110 37 -150 157 -150
h245c26 0 52 0 76 3c-56 46 -83 104 -83 155c0 89 77 165 204 165s204 -76 204 -165c0 -51 -27 -109 -83 -155c24 -3 49 -3 76 -3h61zM763 540c-32 0 -57 21 -57 54s25 55 57 55c33 0 58 -22 58 -55s-25 -54 -58 -54z" />
    <glyph glyph-name="uniFED4" unicode="&#x641;" horiz-adv-x="517" arabic-form="medial" 
d="M-10 110h71c27 0 52 0 76 3c-56 46 -83 104 -83 155c0 89 77 165 203 165c128 0 205 -76 205 -165c0 -51 -27 -109 -83 -155c24 -3 49 -3 76 -3h62v-110h-62c-70 0 -136 10 -198 34c-61 -24 -126 -34 -196 -34h-71c-13 0 -32 7 -32 55s19 55 32 55zM258 141
c64 33 89 82 89 115c0 39 -30 70 -89 70s-89 -31 -89 -70c0 -33 25 -82 89 -115zM260 540c-32 0 -57 21 -57 54s25 55 57 55c33 0 58 -22 58 -55s-25 -54 -58 -54z" />
    <glyph glyph-name="uniFED3" unicode="&#x641;" horiz-adv-x="521" arabic-form="initial" 
d="M-10 110h116c-20 32 -31 76 -31 113c0 110 72 189 198 189c122 0 197 -72 197 -203c0 -140 -81 -209 -218 -209h-262c-13 0 -32 7 -32 55s19 55 32 55zM221 110h43c52 0 92 27 92 97c0 50 -19 99 -83 99c-65 0 -84 -49 -84 -99c0 -36 11 -71 32 -97zM270 522
c-32 0 -57 21 -57 54s25 55 57 55c33 0 58 -22 58 -55s-25 -54 -58 -54z" />
    <glyph glyph-name="uniFED1" unicode="&#x641;" horiz-adv-x="1015" arabic-form="isolated" 
d="M718 110h41c51 0 90 27 90 97c0 50 -18 99 -82 99c-62 0 -80 -49 -80 -99c0 -36 10 -71 31 -97zM318 110h286c-20 32 -31 76 -31 113c0 110 71 189 195 189c121 0 195 -72 195 -203c0 -140 -80 -209 -215 -209h-453c-162 0 -246 80 -246 211v115c0 18 8 25 26 25h60
c18 0 26 -7 26 -25v-66c0 -110 37 -150 157 -150zM770 522c-32 0 -57 21 -57 54s25 55 57 55c33 0 58 -22 58 -55s-25 -54 -58 -54z" />
    <glyph glyph-name="uniFECE" unicode="&#x63a;" horiz-adv-x="571" arabic-form="final" 
d="M537 110h34v-110h-33c-116 0 -187 20 -238 64c-107 -69 -152 -111 -152 -165c0 -55 58 -81 135 -82c46 0 100 9 161 27c21 6 27 2 32 -13l19 -49c7 -20 0 -29 -19 -37c-52 -22 -124 -35 -189 -35c-127 0 -253 47 -253 187c0 106 91 175 199 244l-18 29
c-51 84 -80 110 -127 131c-9 4 -12 13 -10 26l13 66c2 10 7 16 18 19c77 19 159 32 219 32c130 0 193 -47 193 -127c0 -63 -29 -118 -123 -188c32 -14 73 -19 139 -19zM407 292c0 28 -26 45 -77 45c-34 0 -78 -6 -109 -15c34 -29 57 -61 85 -107l12 -19c65 44 89 69 89 96z
M303 551c-32 0 -57 21 -57 54s25 55 57 55c33 0 58 -22 58 -55s-25 -54 -58 -54z" />
    <glyph glyph-name="uniFED0" unicode="&#x63a;" horiz-adv-x="576" arabic-form="medial" 
d="M31 0h-41c-13 0 -32 7 -32 54c0 49 19 56 32 56h34c84 0 154 13 212 34l-16 26c-51 84 -80 110 -127 131c-10 4 -12 13 -10 26l13 66c2 10 7 16 17 19c78 19 158 32 219 32c131 0 194 -47 194 -127c0 -64 -42 -134 -112 -191c30 -12 68 -16 128 -16h34v-110h-33
c-113 0 -182 19 -235 60c-78 -37 -173 -60 -277 -60zM412 292c0 28 -25 45 -77 45c-34 0 -78 -6 -109 -15c34 -29 57 -61 85 -107l18 -27c54 36 83 76 83 104zM310 551c-32 0 -57 21 -57 54s25 55 57 55c33 0 58 -22 58 -55s-25 -54 -58 -54z" />
    <glyph glyph-name="uniFECF" unicode="&#x63a;" horiz-adv-x="525" arabic-form="initial" 
d="M479 0h-489c-13 0 -32 7 -32 54c0 49 19 56 32 56h139c-34 43 -49 92 -49 136c0 117 89 184 203 184c53 0 106 -15 148 -42c13 -8 16 -15 11 -27l-24 -53c-7 -15 -15 -17 -31 -9c-34 16 -66 24 -95 24c-66 0 -97 -37 -97 -90c0 -37 16 -81 57 -123h227
c16 0 22 -10 22 -26v-59c0 -16 -5 -25 -22 -25zM280 540c-32 0 -57 21 -57 54s25 55 57 55c33 0 58 -22 58 -55s-25 -54 -58 -54z" />
    <glyph glyph-name="uniFECD" unicode="&#x63a;" horiz-adv-x="556" arabic-form="isolated" 
d="M296 -290c-168 0 -262 72 -262 204c0 90 41 151 129 178c-43 48 -63 103 -63 154c0 117 89 184 203 184c54 0 106 -15 148 -42c13 -8 16 -15 11 -27l-24 -53c-7 -15 -14 -17 -31 -9c-34 16 -67 24 -94 24c-67 0 -98 -37 -98 -90c0 -37 16 -81 57 -123h224
c17 0 22 -10 22 -26v-59c0 -16 -5 -25 -22 -25h-207c-98 0 -140 -28 -140 -87c0 -64 60 -96 151 -96c47 0 99 9 158 27c21 6 27 2 32 -13l19 -49c7 -20 0 -29 -19 -37c-50 -21 -124 -35 -194 -35zM293 540c-32 0 -57 21 -57 54s25 55 57 55c33 0 58 -22 58 -55
s-25 -54 -58 -54z" />
    <glyph glyph-name="uniFECA" unicode="&#x639;" horiz-adv-x="571" arabic-form="final" 
d="M537 110h34v-110h-33c-116 0 -187 20 -238 64c-107 -69 -152 -111 -152 -165c0 -55 58 -81 135 -82c46 0 100 9 161 27c21 6 27 2 32 -13l19 -49c7 -20 0 -29 -19 -37c-52 -22 -124 -35 -189 -35c-127 0 -253 47 -253 187c0 106 91 175 199 244l-18 29
c-51 84 -80 110 -127 131c-9 4 -12 13 -10 26l13 66c2 10 7 16 18 19c77 19 159 32 219 32c130 0 193 -47 193 -127c0 -63 -29 -118 -123 -188c32 -14 73 -19 139 -19zM407 292c0 28 -26 45 -77 45c-34 0 -78 -6 -109 -15c34 -29 57 -61 85 -107l12 -19c65 44 89 69 89 96z
" />
    <glyph glyph-name="uniFECC" unicode="&#x639;" horiz-adv-x="576" arabic-form="medial" 
d="M31 0h-41c-13 0 -32 7 -32 54c0 49 19 56 32 56h34c84 0 154 13 212 34l-16 26c-51 84 -80 110 -127 131c-10 4 -12 13 -10 26l13 66c2 10 7 16 17 19c78 19 158 32 219 32c131 0 194 -47 194 -127c0 -64 -42 -134 -112 -191c30 -12 68 -16 128 -16h34v-110h-33
c-113 0 -182 19 -235 60c-78 -37 -173 -60 -277 -60zM412 292c0 28 -25 45 -77 45c-34 0 -78 -6 -109 -15c34 -29 57 -61 85 -107l18 -27c54 36 83 76 83 104z" />
    <glyph glyph-name="uniFECB" unicode="&#x639;" horiz-adv-x="525" arabic-form="initial" 
d="M479 0h-489c-13 0 -32 7 -32 54c0 49 19 56 32 56h139c-34 43 -49 92 -49 136c0 117 89 184 203 184c53 0 106 -15 148 -42c13 -8 16 -15 11 -27l-24 -53c-7 -15 -15 -17 -31 -9c-34 16 -66 24 -95 24c-66 0 -97 -37 -97 -90c0 -37 16 -81 57 -123h227
c16 0 22 -10 22 -26v-59c0 -16 -5 -25 -22 -25z" />
    <glyph glyph-name="uniFEC9" unicode="&#x639;" horiz-adv-x="556" arabic-form="isolated" 
d="M296 -290c-168 0 -262 72 -262 204c0 90 41 151 129 178c-43 48 -63 103 -63 154c0 117 89 184 203 184c54 0 106 -15 148 -42c13 -8 16 -15 11 -27l-24 -53c-7 -15 -14 -17 -31 -9c-34 16 -67 24 -94 24c-67 0 -98 -37 -98 -90c0 -37 16 -81 57 -123h224
c17 0 22 -10 22 -26v-59c0 -16 -5 -25 -22 -25h-207c-98 0 -140 -28 -140 -87c0 -64 60 -96 151 -96c47 0 99 9 158 27c21 6 27 2 32 -13l19 -49c7 -20 0 -29 -19 -37c-50 -21 -124 -35 -194 -35z" />
    <glyph glyph-name="uniFEC6" unicode="&#x638;" horiz-adv-x="842" arabic-form="final" 
d="M842 0h-784c-18 0 -24 9 -24 25v59c0 16 6 26 24 26h106v570c0 17 6 22 19 24l72 10c14 2 21 -6 21 -21v-424c73 98 166 163 271 163c135 0 217 -98 217 -249v-73h78v-110zM540 325c-101 0 -200 -109 -265 -215h376v70c0 103 -46 145 -111 145zM537 542
c-32 0 -57 21 -57 54s25 55 57 55c33 0 58 -22 58 -55s-25 -54 -58 -54z" />
    <glyph glyph-name="uniFEC8" unicode="&#x638;" horiz-adv-x="766" arabic-form="medial" 
d="M200 693v-424c72 98 166 163 270 163c135 0 218 -98 218 -249v-73h78v-110h-776c-13 0 -32 7 -32 54c0 49 19 56 32 56h98v570c0 17 6 22 19 24l72 10c14 2 21 -6 21 -21zM463 325c-101 0 -199 -109 -264 -215h375v70c0 103 -46 145 -111 145zM459 542
c-32 0 -57 21 -57 54s25 55 57 55c33 0 58 -22 58 -55s-25 -54 -58 -54z" />
    <glyph glyph-name="uniFEC7" unicode="&#x638;" horiz-adv-x="735" arabic-form="initial" 
d="M469 0h-479c-13 0 -32 7 -32 54c0 49 19 56 32 56h98v570c0 17 6 22 19 24l72 10c14 2 21 -6 21 -21v-424c73 98 167 163 271 163c136 0 217 -98 217 -249c0 -133 -58 -183 -219 -183zM199 110h290c64 0 84 22 84 80c0 84 -41 135 -109 135c-99 0 -197 -106 -265 -215z
M459 542c-32 0 -57 21 -57 54s25 55 57 55c33 0 58 -22 58 -55s-25 -54 -58 -54z" />
    <glyph glyph-name="uniFEC5" unicode="&#x638;" horiz-adv-x="812" arabic-form="isolated" 
d="M546 0h-488c-18 0 -24 9 -24 25v59c0 16 6 26 24 26h107v570c0 17 6 22 19 24l72 10c14 2 21 -6 21 -21v-424c73 98 166 163 270 163c136 0 217 -98 217 -249c0 -133 -58 -183 -218 -183zM276 110h290c64 0 84 22 84 80c0 84 -42 135 -110 135c-99 0 -196 -106 -264 -215
zM537 542c-32 0 -57 21 -57 54s25 55 57 55c33 0 58 -22 58 -55s-25 -54 -58 -54z" />
    <glyph glyph-name="uniFEC2" unicode="&#x637;" horiz-adv-x="842" arabic-form="final" 
d="M842 0h-784c-18 0 -24 9 -24 25v59c0 16 6 26 24 26h106v570c0 17 6 22 19 24l72 10c14 2 21 -6 21 -21v-424c73 98 166 163 271 163c135 0 217 -98 217 -249v-73h78v-110zM540 325c-101 0 -200 -109 -265 -215h376v70c0 103 -46 145 -111 145z" />
    <glyph glyph-name="uniFEC4" unicode="&#x637;" horiz-adv-x="766" arabic-form="medial" 
d="M200 693v-424c72 98 166 163 270 163c135 0 218 -98 218 -249v-73h78v-110h-776c-13 0 -32 7 -32 54c0 49 19 56 32 56h98v570c0 17 6 22 19 24l72 10c14 2 21 -6 21 -21zM463 325c-101 0 -199 -109 -264 -215h375v70c0 103 -46 145 -111 145z" />
    <glyph glyph-name="uniFEC3" unicode="&#x637;" horiz-adv-x="735" arabic-form="initial" 
d="M469 0h-479c-13 0 -32 7 -32 54c0 49 19 56 32 56h98v570c0 17 6 22 19 24l72 10c14 2 21 -6 21 -21v-424c73 98 167 163 271 163c136 0 217 -98 217 -249c0 -133 -58 -183 -219 -183zM199 110h290c64 0 84 22 84 80c0 84 -41 135 -109 135c-99 0 -197 -106 -265 -215z
" />
    <glyph glyph-name="uniFEC1" unicode="&#x637;" horiz-adv-x="812" arabic-form="isolated" 
d="M546 0h-488c-18 0 -24 9 -24 25v59c0 16 6 26 24 26h107v570c0 17 6 22 19 24l72 10c14 2 21 -6 21 -21v-424c73 98 166 163 270 163c136 0 217 -98 217 -249c0 -133 -58 -183 -218 -183zM276 110h290c64 0 84 22 84 80c0 84 -42 135 -110 135c-99 0 -196 -106 -264 -215
z" />
    <glyph glyph-name="uniFEE6" unicode="&#x646;" horiz-adv-x="686" arabic-form="final" 
d="M601 0v3c-15 -145 -110 -223 -278 -223c-169 0 -277 81 -277 252c0 55 15 112 40 163c11 20 19 27 39 18l47 -21c17 -7 22 -15 14 -37c-18 -43 -26 -86 -26 -122c0 -96 58 -146 166 -146c114 0 165 54 165 161v251c0 17 10 23 24 23h64c16 0 24 -5 24 -23v-189h83v-110
h-85zM349 401c-32 0 -57 21 -57 54s25 55 57 55c33 0 58 -22 58 -55s-25 -54 -58 -54z" />
    <glyph glyph-name="uniFEE8" unicode="&#x646;" horiz-adv-x="358" arabic-form="medial" 
d="M99 0h-109c-13 0 -32 7 -32 55s19 55 32 55h98c39 0 48 10 48 51v226c0 18 8 25 26 25h60c18 0 26 -7 26 -25v-248c22 -20 52 -29 104 -29h6v-110h-6c-58 0 -98 18 -123 50c-22 -33 -65 -50 -130 -50zM180 532c-32 0 -57 21 -57 54s25 55 57 55c33 0 58 -22 58 -55
s-25 -54 -58 -54z" />
    <glyph glyph-name="uniFEE7" unicode="&#x646;" horiz-adv-x="304" arabic-form="initial" 
d="M-10 110h88c39 0 48 10 48 51v226c0 18 8 25 26 25h60c18 0 26 -7 26 -25v-262c0 -82 -45 -125 -149 -125h-99c-13 0 -32 7 -32 55s19 55 32 55zM174 532c-32 0 -57 21 -57 54s25 55 57 55c33 0 58 -22 58 -55s-25 -54 -58 -54z" />
    <glyph glyph-name="uniFEE5" unicode="&#x646;" horiz-adv-x="666" arabic-form="isolated" 
d="M603 299v-255c0 -172 -97 -264 -280 -264c-169 0 -277 81 -277 252c0 55 15 112 40 163c11 20 19 27 39 18l47 -21c17 -7 22 -15 14 -37c-18 -43 -26 -86 -26 -122c0 -96 58 -146 166 -146c114 0 165 54 165 161v251c0 17 10 23 24 23h64c16 0 24 -5 24 -23zM349 401
c-32 0 -57 21 -57 54s25 55 57 55c33 0 58 -22 58 -55s-25 -54 -58 -54z" />
    <glyph glyph-name="uniFEE2" unicode="&#x645;" horiz-adv-x="637" arabic-form="final" 
d="M562 209c0 -33 -7 -69 -29 -99h104v-110h-391c-82 0 -102 -16 -102 -70c0 -37 8 -99 27 -184c5 -23 -6 -30 -23 -33l-55 -7c-24 -3 -30 1 -35 27c-18 82 -28 148 -28 205c0 118 59 169 168 172c-21 33 -32 76 -32 113c0 110 72 189 198 189c123 0 198 -72 198 -203z
M448 206c0 50 -20 99 -84 99c-63 0 -84 -49 -84 -99c0 -36 12 -70 34 -96h41c53 0 93 27 93 96z" />
    <glyph glyph-name="uniFEE4" unicode="&#x645;" horiz-adv-x="556" arabic-form="medial" 
d="M-10 110h90v19c0 110 72 188 198 188c122 0 197 -71 197 -202v-5h81v-110h-107c-34 -63 -100 -94 -192 -94h-62c-30 0 -40 5 -55 29c-13 21 -25 43 -34 65h-116c-13 0 -32 7 -32 55s19 55 32 55zM222 16h47c52 0 92 27 92 97c0 50 -19 97 -83 97c-65 0 -84 -47 -84 -97
c0 -34 10 -67 28 -97z" />
    <glyph glyph-name="uniFEE3" unicode="&#x645;" horiz-adv-x="521" arabic-form="initial" 
d="M-10 110h116c-20 32 -31 76 -31 113c0 110 72 189 198 189c122 0 197 -72 197 -203c0 -140 -81 -209 -218 -209h-262c-13 0 -32 7 -32 55s19 55 32 55zM221 110h43c52 0 92 27 92 97c0 50 -19 99 -83 99c-65 0 -84 -49 -84 -99c0 -36 11 -71 32 -97z" />
    <glyph glyph-name="uniFEE1" unicode="&#x645;" horiz-adv-x="614" arabic-form="isolated" 
d="M30 -62c0 118 59 169 168 172c-21 33 -32 76 -32 113c0 110 72 189 198 189c123 0 198 -72 198 -203c0 -140 -81 -209 -218 -209h-98c-82 0 -101 -16 -101 -70c0 -37 7 -99 26 -184c5 -23 -6 -30 -23 -33l-55 -7c-24 -3 -30 1 -35 27c-18 82 -28 148 -28 205zM447 206
c0 50 -19 99 -83 99c-63 0 -83 -49 -83 -99c0 -36 11 -70 33 -96h41c53 0 92 27 92 96z" />
    <glyph glyph-name="uniFEDE" unicode="&#x644;" horiz-adv-x="703" arabic-form="final" 
d="M600 694v-584h103v-110h-106c-16 -142 -114 -220 -277 -220c-168 0 -277 81 -277 252c0 55 15 112 41 163c10 20 18 27 38 18l47 -21c18 -7 23 -15 14 -37c-18 -43 -26 -86 -26 -122c0 -96 58 -145 166 -145c115 0 165 53 165 160v633c0 16 6 21 17 23l76 10
c13 2 19 -6 19 -20z" />
    <glyph glyph-name="uniFEE0" unicode="&#x644;" horiz-adv-x="358" arabic-form="medial" 
d="M-10 110h98c39 0 48 10 48 51v519c0 17 6 22 19 24l72 10c14 2 21 -6 21 -21v-554c22 -20 52 -29 104 -29h6v-110h-6c-58 0 -98 18 -123 50c-22 -33 -65 -50 -130 -50h-109c-13 0 -32 7 -32 55s19 55 32 55z" />
    <glyph glyph-name="uniFEDF" unicode="&#x644;" horiz-adv-x="303" arabic-form="initial" 
d="M-10 110h88c39 0 48 10 48 51v519c0 17 6 22 19 24l72 10c14 2 21 -6 21 -21v-568c0 -82 -45 -125 -149 -125h-99c-13 0 -32 7 -32 55s19 55 32 55z" />
    <glyph glyph-name="uniFEDD" unicode="&#x644;" horiz-adv-x="666" arabic-form="isolated" 
d="M600 694v-648c0 -172 -100 -266 -280 -266c-168 0 -277 81 -277 252c0 55 15 112 41 163c10 20 18 27 38 18l47 -21c18 -7 23 -15 14 -37c-18 -43 -26 -86 -26 -122c0 -96 58 -145 166 -145c115 0 165 53 165 160v633c0 16 6 21 17 23l76 10c13 2 19 -6 19 -20z" />
    <glyph glyph-name="uniFEDA" unicode="&#x643;" horiz-adv-x="948" arabic-form="final" 
d="M821 51c-22 -34 -64 -51 -128 -51h-403c-158 0 -241 80 -241 211v117c0 17 10 23 25 23h62c16 0 25 -5 25 -23v-68c0 -110 36 -150 152 -150h368c39 0 47 10 47 51v519c0 17 6 22 19 24l72 10c14 2 21 -6 21 -21v-554c21 -20 51 -29 102 -29h6v-110h-6
c-57 0 -96 19 -121 51zM348 385h29c-11 16 -18 38 -18 58c0 56 45 92 101 92c28 0 53 -7 78 -23c7 -5 12 -13 7 -21l-10 -25c-4 -9 -7 -13 -17 -7c-18 9 -34 14 -51 14c-25 0 -43 -17 -43 -44c0 -13 5 -29 16 -44h102c11 0 14 -4 14 -14v-34c0 -9 -3 -14 -14 -14h-194
c-11 0 -14 5 -14 15v33c0 10 3 14 14 14z" />
    <glyph glyph-name="uniFEDC" unicode="&#x643;" horiz-adv-x="519" arabic-form="medial" 
d="M201 0h-211c-13 0 -32 7 -32 54c0 49 19 56 32 56h218c53 0 87 13 87 53c0 57 -89 134 -298 193c-15 5 -22 10 -22 24v47c0 11 3 18 14 26l293 255c14 12 25 13 35 2l37 -42c11 -13 12 -23 -1 -35l-239 -208c197 -75 296 -161 296 -274c0 -7 -1 -13 -2 -20
c21 -15 50 -21 95 -21h16v-110h-16c-61 0 -102 21 -127 56c-41 -45 -112 -56 -175 -56z" />
    <glyph glyph-name="uniFEDB" unicode="&#x643;" horiz-adv-x="463" arabic-form="initial" 
d="M201 0h-211c-13 0 -32 7 -32 54c0 49 19 56 32 56h218c53 0 87 13 87 53c0 57 -89 134 -298 193c-15 5 -22 10 -22 24v47c0 11 3 18 14 26l293 255c14 12 25 13 35 2l37 -42c11 -13 12 -23 -1 -35l-239 -208c197 -75 296 -161 296 -274c0 -125 -114 -151 -209 -151z" />
    <glyph glyph-name="uniFED9" unicode="&#x643;" horiz-adv-x="905" arabic-form="isolated" 
d="M314 110h367c39 0 47 10 47 51v519c0 17 6 22 19 24l72 10c14 2 21 -6 21 -21v-568c0 -82 -45 -125 -147 -125h-403c-158 0 -241 80 -241 211v117c0 17 10 23 25 23h63c16 0 25 -5 25 -23v-68c0 -110 36 -150 152 -150zM348 385h29c-11 16 -18 38 -18 58
c0 56 45 92 101 92c28 0 53 -7 78 -23c7 -5 12 -13 7 -21l-10 -25c-4 -9 -7 -13 -17 -7c-18 9 -34 14 -51 14c-25 0 -43 -17 -43 -44c0 -13 5 -29 16 -44h102c11 0 14 -4 14 -14v-34c0 -9 -3 -14 -14 -14h-194c-11 0 -14 5 -14 15v33c0 10 3 14 14 14z" />
    <glyph glyph-name="uniFED6" unicode="&#x642;" horiz-adv-x="867" arabic-form="final" 
d="M402 -220c-227 0 -358 86 -358 254c0 56 17 120 48 181c11 21 19 28 41 19l48 -22c18 -8 22 -16 12 -37c-22 -45 -35 -94 -35 -133c0 -102 80 -154 245 -154c140 0 227 41 250 112h-71c-129 0 -204 66 -204 209c0 122 75 203 199 203c115 0 194 -61 194 -194v-108h96
v-110h-99c-19 -148 -153 -220 -366 -220zM600 110h59v109c0 52 -23 86 -79 86c-59 0 -88 -38 -88 -95c0 -80 32 -100 108 -100zM514 522c-33 0 -58 21 -58 54s25 55 58 55c32 0 57 -22 57 -55s-25 -54 -57 -54zM661 522c-33 0 -58 21 -58 54s25 55 58 55c32 0 57 -22 57 -55
s-25 -54 -57 -54z" />
    <glyph glyph-name="uniFED8" unicode="&#x642;" horiz-adv-x="517" arabic-form="medial" 
d="M-10 110h71c27 0 52 0 76 3c-56 46 -83 104 -83 155c0 89 77 165 203 165c128 0 205 -76 205 -165c0 -51 -27 -109 -83 -155c24 -3 49 -3 76 -3h62v-110h-62c-70 0 -136 10 -198 34c-61 -24 -126 -34 -196 -34h-71c-13 0 -32 7 -32 55s19 55 32 55zM258 141
c64 33 89 82 89 115c0 39 -30 70 -89 70s-89 -31 -89 -70c0 -33 25 -82 89 -115zM188 540c-33 0 -58 21 -58 54s25 55 58 55c32 0 57 -22 57 -55s-25 -54 -57 -54zM335 540c-33 0 -58 21 -58 54s25 55 58 55c32 0 57 -22 57 -55s-25 -54 -57 -54z" />
    <glyph glyph-name="uniFED7" unicode="&#x642;" horiz-adv-x="521" arabic-form="initial" 
d="M-10 110h116c-20 32 -31 76 -31 113c0 110 72 189 198 189c122 0 197 -72 197 -203c0 -140 -81 -209 -218 -209h-262c-13 0 -32 7 -32 55s19 55 32 55zM221 110h43c52 0 92 27 92 97c0 50 -19 99 -83 99c-65 0 -84 -49 -84 -99c0 -36 11 -71 32 -97zM198 522
c-33 0 -58 21 -58 54s25 55 58 55c32 0 57 -22 57 -55s-25 -54 -57 -54zM345 522c-33 0 -58 21 -58 54s25 55 58 55c32 0 57 -22 57 -55s-25 -54 -57 -54z" />
    <glyph glyph-name="uniFED5" unicode="&#x642;" horiz-adv-x="832" arabic-form="isolated" 
d="M659 130v89c0 52 -23 86 -79 86c-59 0 -88 -38 -88 -95c0 -69 28 -102 90 -102c24 0 53 7 77 22zM403 -112c156 0 246 50 255 136c-30 -17 -66 -24 -97 -24c-107 0 -183 77 -183 209c0 122 75 203 199 203c115 0 194 -61 194 -194v-178c0 -176 -137 -260 -369 -260
c-227 0 -358 86 -358 254c0 56 17 120 48 181c11 21 19 28 41 19l48 -22c18 -8 22 -16 12 -37c-22 -45 -35 -94 -35 -133c0 -102 80 -154 245 -154zM514 522c-33 0 -58 21 -58 54s25 55 58 55c32 0 57 -22 57 -55s-25 -54 -57 -54zM661 522c-33 0 -58 21 -58 54s25 55 58 55
c32 0 57 -22 57 -55s-25 -54 -57 -54z" />
    <glyph glyph-name="uniFE94" unicode="&#x629;" horiz-adv-x="523" arabic-form="final" 
d="M424 477v-304c0 -44 16 -63 70 -63h29v-110h-36c-82 0 -137 24 -161 70c-32 -13 -72 -20 -110 -20c-85 0 -170 36 -170 135c0 82 65 176 266 245v33c0 17 5 23 18 25l72 9c14 2 22 -6 22 -20zM160 202c0 -29 25 -45 69 -45c28 0 57 7 83 16v156
c-91 -32 -152 -78 -152 -127zM287 615c-33 0 -58 21 -58 54s25 55 58 55c32 0 57 -22 57 -55s-25 -54 -57 -54zM434 615c-33 0 -58 21 -58 54s25 55 58 55c32 0 57 -22 57 -55s-25 -54 -57 -54z" />
    <glyph glyph-name="uniFE93" unicode="&#x629;" horiz-adv-x="516" arabic-form="isolated" 
d="M258 -10c-125 0 -206 76 -206 208c0 112 68 232 206 232c137 0 206 -120 206 -232c0 -132 -81 -208 -206 -208zM258 322c-66 0 -92 -69 -92 -125c0 -54 27 -99 92 -99s92 45 92 99c0 56 -26 125 -92 125zM193 540c-33 0 -58 21 -58 54s25 55 58 55c32 0 57 -22 57 -55
s-25 -54 -57 -54zM340 540c-33 0 -58 21 -58 54s25 55 58 55c32 0 57 -22 57 -55s-25 -54 -57 -54z" />
    <glyph glyph-name="uniFEF2" unicode="&#x64a;" horiz-adv-x="776" arabic-form="final" 
d="M402 -112c156 0 246 39 246 81c0 24 -29 45 -99 69l-93 32c-17 6 -21 16 -16 32l16 51c6 20 17 26 37 19l58 -20c97 -34 143 -42 205 -42h20v-110h-24c7 -12 10 -26 10 -36c0 -104 -143 -184 -361 -184c-227 0 -358 86 -358 254c0 56 17 120 48 181c11 21 19 29 41 19
l48 -22c18 -8 22 -16 12 -37c-22 -45 -35 -94 -35 -133c0 -102 79 -154 245 -154zM343 -439c-33 0 -58 21 -58 54s25 55 58 55c32 0 57 -22 57 -55s-25 -54 -57 -54zM490 -439c-33 0 -58 21 -58 54s25 55 58 55c32 0 57 -22 57 -55s-25 -54 -57 -54z" />
    <glyph glyph-name="uniFEF4" unicode="&#x64a;" horiz-adv-x="358" arabic-form="medial" 
d="M99 0h-109c-13 0 -32 7 -32 55s19 55 32 55h98c39 0 48 10 48 51v226c0 18 8 25 26 25h60c18 0 26 -7 26 -25v-248c22 -20 52 -29 104 -29h6v-110h-6c-58 0 -98 18 -123 50c-22 -33 -65 -50 -130 -50zM13 -229c-33 0 -58 21 -58 54s25 55 58 55c32 0 57 -22 57 -55
s-25 -54 -57 -54zM160 -229c-33 0 -58 21 -58 54s25 55 58 55c32 0 57 -22 57 -55s-25 -54 -57 -54z" />
    <glyph glyph-name="uniFEF3" unicode="&#x64a;" horiz-adv-x="304" arabic-form="initial" 
d="M-10 110h88c39 0 48 10 48 51v226c0 18 8 25 26 25h60c18 0 26 -7 26 -25v-262c0 -82 -45 -125 -149 -125h-99c-13 0 -32 7 -32 55s19 55 32 55zM3 -229c-33 0 -58 21 -58 54s25 55 58 55c32 0 57 -22 57 -55s-25 -54 -57 -54zM150 -229c-33 0 -58 21 -58 54s25 55 58 55
c32 0 57 -22 57 -55s-25 -54 -57 -54z" />
    <glyph glyph-name="uniFEF1" unicode="&#x64a;" horiz-adv-x="854" arabic-form="isolated" 
d="M743 296c-51 26 -98 37 -137 37c-71 0 -108 -37 -108 -80c0 -38 25 -64 115 -113c73 -40 146 -85 146 -158c0 -118 -144 -202 -358 -202c-227 0 -358 86 -358 254c0 56 17 120 48 181c11 21 19 29 41 19l48 -22c18 -8 22 -16 12 -37c-22 -45 -35 -94 -35 -133
c0 -102 80 -154 245 -154c146 0 243 43 243 88c0 28 -45 54 -98 84c-77 44 -163 98 -163 190c0 125 102 190 220 190c58 0 121 -17 176 -50c20 -12 24 -19 17 -35l-23 -52c-6 -14 -17 -14 -31 -7zM343 -439c-33 0 -58 21 -58 54s25 55 58 55c32 0 57 -22 57 -55
s-25 -54 -57 -54zM490 -439c-33 0 -58 21 -58 54s25 55 58 55c32 0 57 -22 57 -55s-25 -54 -57 -54z" />
    <glyph glyph-name="uniFEEE" unicode="&#x648;" horiz-adv-x="544" arabic-form="final" 
d="M208 -222c-14 -7 -25 -4 -33 11l-28 51c-8 15 -2 24 17 34c80 43 124 77 146 126h-55c-129 0 -204 66 -204 209c0 122 75 203 199 203c115 0 194 -61 194 -194v-108h100v-110h-111c-22 -91 -80 -149 -225 -222zM273 110h59v109c0 52 -23 86 -79 86c-59 0 -88 -38 -88 -95
c0 -80 32 -100 108 -100z" />
    <glyph glyph-name="uniFEED" unicode="&#x648;" horiz-adv-x="508" arabic-form="isolated" 
d="M332 130v89c0 52 -23 86 -79 86c-59 0 -88 -38 -88 -95c0 -69 28 -102 90 -102c24 0 53 7 77 22zM317 18c-26 -12 -57 -18 -83 -18c-107 0 -183 77 -183 209c0 122 75 203 199 203c115 0 194 -61 194 -194v-97c0 -171 -36 -243 -236 -343c-14 -7 -25 -4 -33 11l-28 51
c-8 15 -2 24 17 34c90 48 134 84 153 144z" />
    <glyph glyph-name="uniFEEA" unicode="&#x647;" horiz-adv-x="523" arabic-form="final" 
d="M424 477v-304c0 -44 16 -63 70 -63h29v-110h-36c-82 0 -137 24 -161 70c-32 -13 -72 -20 -110 -20c-85 0 -170 36 -170 135c0 82 65 176 266 245v33c0 17 5 23 18 25l72 9c14 2 22 -6 22 -20zM160 202c0 -29 25 -45 69 -45c28 0 57 7 83 16v156
c-91 -32 -152 -78 -152 -127z" />
    <glyph glyph-name="uniFEEC" unicode="&#x647;" horiz-adv-x="606" arabic-form="medial" 
d="M23 0h-33c-13 0 -32 7 -32 55s19 55 32 55h33c31 0 60 0 93 4c22 198 123 316 246 316c94 0 158 -66 158 -150c0 -65 -48 -132 -126 -166v-1c50 -3 133 -3 179 -3h33v-110h-33c-59 0 -114 9 -140 14v-1c54 -33 97 -93 97 -146c0 -90 -75 -157 -170 -157
c-110 0 -222 96 -245 296c-32 -3 -61 -6 -92 -6zM364 -182c32 0 57 23 57 56c0 44 -53 113 -195 142c5 -92 55 -198 138 -198zM228 119c134 31 178 104 178 151c0 33 -21 52 -48 52c-68 0 -112 -88 -130 -203z" />
    <glyph glyph-name="uniFEEB" unicode="&#x647;" horiz-adv-x="710" arabic-form="initial" 
d="M384 274c0 41 -49 71 -93 71c-38 0 -69 -23 -69 -64c0 -39 28 -80 79 -115c56 32 83 73 83 108zM484 98c38 0 57 16 57 44c0 36 -30 79 -66 114v-1c1 -5 1 -9 1 -12c0 -49 -34 -94 -73 -129c28 -10 55 -16 81 -16zM25 0h-35c-13 0 -32 7 -32 55s19 55 32 55h41
c61 0 116 6 160 16c-44 45 -73 97 -73 156c0 51 40 100 70 119l1 1l-38 15c-19 7 -22 18 -16 29l25 47c7 14 12 18 29 13c312 -89 466 -255 466 -384c0 -82 -60 -126 -155 -126c-63 0 -136 20 -200 53c-73 -31 -165 -49 -275 -49z" />
    <glyph glyph-name="uniFEE9" unicode="&#x647;" horiz-adv-x="790" arabic-form="isolated" 
d="M464 274c0 41 -49 71 -93 71c-38 0 -69 -23 -69 -64c0 -39 28 -80 79 -115c56 32 83 73 83 108zM564 98c38 0 57 16 57 44c0 36 -30 79 -66 114v-1c1 -5 1 -9 1 -12c0 -49 -34 -94 -73 -129c28 -10 55 -16 81 -16zM269 402l-38 15c-19 7 -22 18 -16 29l25 47
c7 14 12 18 29 13c312 -89 466 -255 466 -384c0 -82 -60 -126 -155 -126c-63 0 -136 20 -200 53c-73 -31 -165 -49 -275 -49h-42c-18 0 -23 8 -23 24v61c0 15 6 25 23 25h48c61 0 116 6 160 16c-44 45 -73 97 -73 156c0 51 40 100 70 119z" />
    <glyph glyph-name="uniFEF0" unicode="&#x649;" horiz-adv-x="776" arabic-form="final" 
d="M402 -112c156 0 246 39 246 81c0 24 -29 45 -99 69l-93 32c-17 6 -21 16 -16 32l16 51c6 20 17 26 37 19l58 -20c97 -34 143 -42 205 -42h20v-110h-24c7 -12 10 -26 10 -36c0 -104 -143 -184 -361 -184c-227 0 -358 86 -358 254c0 56 17 120 48 181c11 21 19 29 41 19
l48 -22c18 -8 22 -16 12 -37c-22 -45 -35 -94 -35 -133c0 -102 79 -154 245 -154z" />
    <glyph glyph-name="uniFBE9" unicode="&#x649;" horiz-adv-x="358" arabic-form="medial" 
d="M99 0h-109c-13 0 -32 7 -32 55s19 55 32 55h98c39 0 48 10 48 51v226c0 18 8 25 26 25h60c18 0 26 -7 26 -25v-248c22 -20 52 -29 104 -29h6v-110h-6c-58 0 -98 18 -123 50c-22 -33 -65 -50 -130 -50z" />
    <glyph glyph-name="uniFBE8" unicode="&#x649;" horiz-adv-x="304" arabic-form="initial" 
d="M-10 110h88c39 0 48 10 48 51v226c0 18 8 25 26 25h60c18 0 26 -7 26 -25v-262c0 -82 -45 -125 -149 -125h-99c-13 0 -32 7 -32 55s19 55 32 55z" />
    <glyph glyph-name="uniFEEF" unicode="&#x649;" horiz-adv-x="854" arabic-form="isolated" 
d="M743 296c-51 26 -98 37 -137 37c-71 0 -108 -37 -108 -80c0 -38 25 -64 115 -113c73 -40 146 -85 146 -158c0 -118 -144 -202 -358 -202c-227 0 -358 86 -358 254c0 56 17 120 48 181c11 21 19 29 41 19l48 -22c18 -8 22 -16 12 -37c-22 -45 -35 -94 -35 -133
c0 -102 80 -154 245 -154c146 0 243 43 243 88c0 28 -45 54 -98 84c-77 44 -163 98 -163 190c0 125 102 190 220 190c58 0 121 -17 176 -50c20 -12 24 -19 17 -35l-23 -52c-6 -14 -17 -14 -31 -7z" />
    <glyph glyph-name="uniFB51" unicode="&#x671;" horiz-adv-x="276" arabic-form="final" 
d="M65 125v555c0 17 6 22 19 24l72 10c14 2 21 -6 21 -21v-532c0 -41 9 -51 48 -51h51v-110h-62c-104 0 -149 43 -149 125zM98 961v-23c23 17 45 29 72 29c36 0 77 -15 77 -85c0 -63 -22 -83 -97 -83h-134c-8 0 -12 3 -12 11v34c0 7 4 11 12 11h19v98c0 9 4 14 12 15l35 7
c9 2 16 0 16 -14zM98 855h62c18 0 27 6 27 29s-15 27 -29 27c-8 0 -37 -5 -60 -29v-27z" />
    <glyph glyph-name="uniFB50" unicode="&#x671;" horiz-adv-x="242" arabic-form="isolated" 
d="M151 0h-60c-18 0 -26 7 -26 25v655c0 17 6 22 19 24l72 10c14 2 21 -6 21 -21v-668c0 -18 -8 -25 -26 -25zM93 961v-23c23 17 45 29 72 29c36 0 77 -15 77 -85c0 -63 -22 -83 -97 -83h-134c-8 0 -12 3 -12 11v34c0 7 4 11 12 11h19v98c0 9 4 14 12 15l35 7
c9 2 16 0 16 -14zM93 855h62c18 0 27 6 27 29s-15 27 -29 27c-8 0 -37 -5 -60 -29v-27z" />
    <glyph glyph-name="uniFB67" unicode="&#x679;" horiz-adv-x="955" arabic-form="final" 
d="M696 0h-401c-162 0 -246 80 -246 211v115c0 18 8 25 26 25h60c18 0 26 -7 26 -25v-66c0 -110 37 -150 157 -150h367c39 0 48 10 48 51v226c0 18 8 25 26 25h60c18 0 26 -7 26 -25v-248c22 -20 52 -29 104 -29h6v-110h-6c-58 0 -98 18 -123 50c-22 -33 -65 -50 -130 -50z
M421 767v-105c23 17 45 29 72 29c36 0 78 -14 78 -85c0 -63 -23 -83 -98 -83h-135c-7 0 -11 3 -11 12v33c0 8 4 12 11 12h19v179c0 9 4 13 12 15l35 7c13 3 17 -4 17 -14zM421 580h62c19 0 28 5 28 28c0 24 -17 29 -31 29c-16 0 -39 -9 -59 -30v-27z" />
    <glyph glyph-name="uniFB69" unicode="&#x679;" horiz-adv-x="358" arabic-form="medial" 
d="M99 0h-109c-13 0 -32 7 -32 55s19 55 32 55h98c39 0 48 10 48 51v226c0 18 8 25 26 25h60c18 0 26 -7 26 -25v-248c22 -20 52 -29 104 -29h6v-110h-6c-58 0 -98 18 -123 50c-22 -33 -65 -50 -130 -50zM163 767v-105c23 17 45 29 72 29c36 0 78 -14 78 -85
c0 -63 -23 -83 -98 -83h-135c-7 0 -11 3 -11 12v33c0 8 4 12 11 12h19v179c0 9 4 13 12 15l35 7c13 3 17 -4 17 -14zM163 580h62c19 0 28 5 28 28c0 24 -17 29 -31 29c-16 0 -39 -9 -59 -30v-27z" />
    <glyph glyph-name="uniFB68" unicode="&#x679;" horiz-adv-x="304" arabic-form="initial" 
d="M-10 110h88c39 0 48 10 48 51v226c0 18 8 25 26 25h60c18 0 26 -7 26 -25v-262c0 -82 -45 -125 -149 -125h-99c-13 0 -32 7 -32 55s19 55 32 55zM148 767v-105c23 17 45 29 72 29c36 0 78 -14 78 -85c0 -63 -23 -83 -98 -83h-135c-7 0 -11 3 -11 12v33c0 8 4 12 11 12h19
v179c0 9 4 13 12 15l35 7c13 3 17 -4 17 -14zM148 580h62c19 0 28 5 28 28c0 24 -17 29 -31 29c-16 0 -39 -9 -59 -30v-27z" />
    <glyph glyph-name="uniFB66" unicode="&#x679;" horiz-adv-x="910" arabic-form="isolated" 
d="M696 0h-401c-162 0 -246 80 -246 211v115c0 18 8 25 26 25h60c18 0 26 -7 26 -25v-66c0 -110 37 -150 157 -150h367c39 0 48 10 48 51v226c0 18 8 25 26 25h60c18 0 26 -7 26 -25v-262c0 -82 -45 -125 -149 -125zM421 767v-105c23 17 45 29 72 29c36 0 78 -14 78 -85
c0 -63 -23 -83 -98 -83h-135c-7 0 -11 3 -11 12v33c0 8 4 12 11 12h19v179c0 9 4 13 12 15l35 7c13 3 17 -4 17 -14zM421 580h62c19 0 28 5 28 28c0 24 -17 29 -31 29c-16 0 -39 -9 -59 -30v-27z" />
    <glyph glyph-name="uniFB57" unicode="&#x67e;" horiz-adv-x="955" arabic-form="final" 
d="M696 0h-401c-162 0 -246 80 -246 211v115c0 18 8 25 26 25h60c18 0 26 -7 26 -25v-66c0 -110 37 -150 157 -150h367c39 0 48 10 48 51v226c0 18 8 25 26 25h60c18 0 26 -7 26 -25v-248c22 -20 52 -29 104 -29h6v-110h-6c-58 0 -98 18 -123 50c-22 -33 -65 -50 -130 -50z
M442 -355c-32 0 -57 21 -57 54s25 54 57 54c33 0 58 -21 58 -54s-25 -54 -58 -54zM369 -229c-33 0 -58 21 -58 54s25 55 58 55c32 0 57 -22 57 -55s-25 -54 -57 -54zM516 -229c-33 0 -58 21 -58 54s25 55 58 55c32 0 57 -22 57 -55s-25 -54 -57 -54z" />
    <glyph glyph-name="uniFB59" unicode="&#x67e;" horiz-adv-x="358" arabic-form="medial" 
d="M99 0h-109c-13 0 -32 7 -32 55s19 55 32 55h98c39 0 48 10 48 51v226c0 18 8 25 26 25h60c18 0 26 -7 26 -25v-248c22 -20 52 -29 104 -29h6v-110h-6c-58 0 -98 18 -123 50c-22 -33 -65 -50 -130 -50zM86 -355c-32 0 -57 21 -57 54s25 54 57 54c33 0 58 -21 58 -54
s-25 -54 -58 -54zM13 -229c-33 0 -58 21 -58 54s25 55 58 55c32 0 57 -22 57 -55s-25 -54 -57 -54zM160 -229c-33 0 -58 21 -58 54s25 55 58 55c32 0 57 -22 57 -55s-25 -54 -57 -54z" />
    <glyph glyph-name="uniFB58" unicode="&#x67e;" horiz-adv-x="304" arabic-form="initial" 
d="M-10 110h88c39 0 48 10 48 51v226c0 18 8 25 26 25h60c18 0 26 -7 26 -25v-262c0 -82 -45 -125 -149 -125h-99c-13 0 -32 7 -32 55s19 55 32 55zM76 -355c-32 0 -57 21 -57 54s25 54 57 54c33 0 58 -21 58 -54s-25 -54 -58 -54zM3 -229c-33 0 -58 21 -58 54s25 55 58 55
c32 0 57 -22 57 -55s-25 -54 -57 -54zM150 -229c-33 0 -58 21 -58 54s25 55 58 55c32 0 57 -22 57 -55s-25 -54 -57 -54z" />
    <glyph glyph-name="uniFB56" unicode="&#x67e;" horiz-adv-x="910" arabic-form="isolated" 
d="M696 0h-401c-162 0 -246 80 -246 211v115c0 18 8 25 26 25h60c18 0 26 -7 26 -25v-66c0 -110 37 -150 157 -150h367c39 0 48 10 48 51v226c0 18 8 25 26 25h60c18 0 26 -7 26 -25v-262c0 -82 -45 -125 -149 -125zM452 -355c-32 0 -57 21 -57 54s25 54 57 54
c33 0 58 -21 58 -54s-25 -54 -58 -54zM379 -229c-33 0 -58 21 -58 54s25 55 58 55c32 0 57 -22 57 -55s-25 -54 -57 -54zM526 -229c-33 0 -58 21 -58 54s25 55 58 55c32 0 57 -22 57 -55s-25 -54 -57 -54z" />
    <glyph glyph-name="uniFB7B" unicode="&#x686;" horiz-adv-x="598" arabic-form="final" 
d="M90 377c48 33 113 53 168 53c122 0 185 -67 212 -193c12 -56 26 -93 72 -127h56v-110h-313c-97 0 -137 -27 -137 -86c0 -60 52 -96 146 -96h12c23 0 31 -8 31 -29v-39c0 -28 -5 -33 -22 -36c-20 -4 -32 -4 -49 -4c-133 0 -233 74 -233 205c0 126 80 195 255 195h118
c-23 24 -33 45 -46 103c-17 79 -48 110 -111 110c-33 0 -71 -12 -115 -37c-17 -9 -23 -6 -30 9l-24 54c-5 11 -4 19 10 28zM432 -87c0 29 22 47 50 47s49 -18 49 -47c0 -28 -21 -47 -49 -47s-50 19 -50 47zM369 -194c0 29 21 47 49 47s50 -18 50 -47c0 -28 -22 -47 -50 -47
s-49 19 -49 47zM305 -87c0 29 22 47 49 47c28 0 50 -18 50 -47c0 -28 -22 -47 -50 -47c-27 0 -49 19 -49 47z" />
    <glyph glyph-name="uniFB7D" unicode="&#x686;" horiz-adv-x="570" arabic-form="medial" 
d="M570 0h-580c-13 0 -32 7 -32 54c0 49 19 56 32 56h390c-23 24 -33 46 -45 103c-18 80 -51 110 -114 110c-33 0 -70 -11 -115 -37c-17 -9 -24 -6 -30 9l-23 54c-5 11 -2 19 10 28c55 36 112 53 168 53c121 0 185 -67 211 -193c13 -62 30 -96 74 -127h54v-110zM222 -355
c-32 0 -57 21 -57 54s25 54 57 54c33 0 58 -21 58 -54s-25 -54 -58 -54zM149 -229c-33 0 -58 21 -58 54s25 55 58 55c32 0 57 -22 57 -55s-25 -54 -57 -54zM296 -229c-33 0 -58 21 -58 54s25 55 58 55c32 0 57 -22 57 -55s-25 -54 -57 -54z" />
    <glyph glyph-name="uniFB7C" unicode="&#x686;" horiz-adv-x="550" arabic-form="initial" 
d="M493 0h-503c-13 0 -32 7 -32 54c0 49 19 56 32 56h390c-23 24 -33 46 -46 103c-17 80 -48 110 -112 110c-32 0 -70 -11 -114 -37c-17 -9 -24 -6 -30 9l-24 54c-5 11 -2 19 11 28c55 36 112 53 167 53c122 0 185 -67 212 -193c12 -55 25 -85 53 -110c18 -17 19 -23 19 -38
v-63c0 -16 -6 -26 -23 -26zM222 -355c-32 0 -57 21 -57 54s25 54 57 54c33 0 58 -21 58 -54s-25 -54 -58 -54zM149 -229c-33 0 -58 21 -58 54s25 55 58 55c32 0 57 -22 57 -55s-25 -54 -57 -54zM296 -229c-33 0 -58 21 -58 54s25 55 58 55c32 0 57 -22 57 -55
s-25 -54 -57 -54z" />
    <glyph glyph-name="uniFB7A" unicode="&#x686;" horiz-adv-x="577" arabic-form="isolated" 
d="M305 -87c0 29 22 47 49 47c28 0 50 -18 50 -47c0 -28 -22 -47 -50 -47c-27 0 -49 19 -49 47zM432 -87c0 29 22 47 50 47s49 -18 49 -47c0 -28 -21 -47 -49 -47s-50 19 -50 47zM369 -194c0 29 21 47 49 47s50 -18 50 -47c0 -28 -22 -47 -50 -47s-49 19 -49 47zM90 377
c48 33 113 53 168 53c122 0 185 -67 212 -193c12 -56 25 -85 53 -110c18 -16 19 -24 19 -38v-63c0 -16 -6 -26 -22 -26h-235c-97 0 -137 -27 -137 -86c0 -60 52 -96 146 -96h12c23 0 31 -8 31 -29v-39c0 -28 -5 -33 -22 -36c-20 -4 -32 -4 -49 -4c-133 0 -233 74 -233 205
c0 126 80 195 255 195h118c-23 24 -33 45 -46 103c-17 79 -48 110 -111 110c-33 0 -71 -12 -115 -37c-17 -9 -23 -6 -30 9l-24 54c-5 11 -4 19 10 28z" />
    <glyph glyph-name="uniFB89" unicode="&#x688;" horiz-adv-x="593" arabic-form="final" 
d="M374 110v97c0 87 -38 116 -134 116c-46 0 -90 -10 -123 -10c-13 0 -21 6 -21 22v47c0 15 4 21 16 26c31 13 96 22 140 22c156 0 234 -61 234 -218v-102h107v-110h-537c-17 0 -23 9 -23 25v59c0 16 6 26 23 26h318zM232 767v-105c23 17 45 29 72 29c36 0 78 -14 78 -85
c0 -63 -23 -83 -98 -83h-135c-7 0 -11 3 -11 12v33c0 8 4 12 11 12h19v179c0 9 4 13 12 15l35 7c13 3 17 -4 17 -14zM232 580h62c19 0 28 5 28 28c0 24 -17 29 -31 29c-16 0 -39 -9 -59 -30v-27z" />
    <glyph glyph-name="uniFB88" unicode="&#x688;" horiz-adv-x="543" arabic-form="isolated" 
d="M112 408c31 13 95 22 139 22c157 0 235 -61 235 -218v-87c0 -82 -44 -125 -146 -125h-283c-18 0 -24 9 -24 25v60c0 16 6 25 24 25h260c47 0 57 12 57 57v40c0 87 -39 116 -135 116c-45 0 -89 -10 -122 -10c-13 0 -21 6 -21 22v47c0 15 4 21 16 26zM232 767v-105
c23 17 45 29 72 29c36 0 78 -14 78 -85c0 -63 -23 -83 -98 -83h-135c-7 0 -11 3 -11 12v33c0 8 4 12 11 12h19v179c0 9 4 13 12 15l35 7c13 3 17 -4 17 -14zM232 580h62c19 0 28 5 28 28c0 24 -17 29 -31 29c-16 0 -39 -9 -59 -30v-27z" />
    <glyph glyph-name="uniFB8D" unicode="&#x691;" horiz-adv-x="351" arabic-form="final" 
d="M257 387v-277h94v-110h-104c-19 -94 -73 -150 -197 -216c-14 -8 -25 -4 -33 11l-28 51c-8 15 -1 24 17 34c108 61 139 107 139 246v261c0 18 8 25 26 25h60c18 0 26 -7 26 -25zM171 767v-105c23 17 45 29 72 29c36 0 78 -14 78 -85c0 -63 -23 -83 -98 -83h-135
c-7 0 -11 3 -11 12v33c0 8 4 12 11 12h19v179c0 9 4 13 12 15l35 7c13 3 17 -4 17 -14zM171 580h62c19 0 28 5 28 28c0 24 -17 29 -31 29c-16 0 -39 -9 -59 -30v-27z" />
    <glyph glyph-name="uniFB8C" unicode="&#x691;" horiz-adv-x="322" arabic-form="isolated" 
d="M257 387v-274c0 -170 -40 -240 -207 -329c-14 -8 -25 -4 -33 11l-28 51c-8 15 -1 24 17 34c108 61 139 107 139 246v261c0 18 8 25 26 25h60c18 0 26 -7 26 -25zM171 767v-105c23 17 45 29 72 29c36 0 78 -14 78 -85c0 -63 -23 -83 -98 -83h-135c-7 0 -11 3 -11 12v33
c0 8 4 12 11 12h19v179c0 9 4 13 12 15l35 7c13 3 17 -4 17 -14zM171 580h62c19 0 28 5 28 28c0 24 -17 29 -31 29c-16 0 -39 -9 -59 -30v-27z" />
    <glyph glyph-name="uniFB8B" unicode="&#x698;" horiz-adv-x="351" arabic-form="final" 
d="M257 387v-277h94v-110h-104c-19 -94 -73 -150 -197 -216c-14 -8 -25 -4 -33 11l-28 51c-8 15 -1 24 17 34c108 61 139 107 139 246v261c0 18 8 25 26 25h60c18 0 26 -7 26 -25zM197 659c-32 0 -57 20 -57 54c0 33 25 54 57 54c33 0 58 -21 58 -54c0 -34 -25 -54 -58 -54z
M124 532c-33 0 -58 21 -58 54s25 55 58 55c32 0 57 -22 57 -55s-25 -54 -57 -54zM271 532c-33 0 -58 21 -58 54s25 55 58 55c32 0 57 -22 57 -55s-25 -54 -57 -54z" />
    <glyph glyph-name="uniFB8A" unicode="&#x698;" horiz-adv-x="322" arabic-form="isolated" 
d="M257 387v-274c0 -170 -40 -240 -207 -329c-14 -8 -25 -4 -33 11l-28 51c-8 15 -1 24 17 34c108 61 139 107 139 246v261c0 18 8 25 26 25h60c18 0 26 -7 26 -25zM197 659c-32 0 -57 20 -57 54c0 33 25 54 57 54c33 0 58 -21 58 -54c0 -34 -25 -54 -58 -54zM124 532
c-33 0 -58 21 -58 54s25 55 58 55c32 0 57 -22 57 -55s-25 -54 -57 -54zM271 532c-33 0 -58 21 -58 54s25 55 58 55c32 0 57 -22 57 -55s-25 -54 -57 -54z" />
    <glyph glyph-name="uniFB6B" unicode="&#x6a4;" horiz-adv-x="1017" arabic-form="final" 
d="M759 141c63 33 89 82 89 115c0 39 -32 70 -89 70s-89 -31 -89 -70c0 -33 26 -82 89 -115zM1017 110v-110h-61c-70 0 -136 10 -197 34c-61 -24 -127 -34 -197 -34h-268c-162 0 -246 80 -246 211v115c0 18 8 25 26 25h60c18 0 26 -7 26 -25v-66c0 -110 37 -150 157 -150
h245c26 0 52 0 76 3c-56 46 -83 104 -83 155c0 89 77 165 204 165s204 -76 204 -165c0 -51 -27 -109 -83 -155c24 -3 49 -3 76 -3h61zM764 667c-32 0 -57 20 -57 54c0 33 25 54 57 54c33 0 58 -21 58 -54c0 -34 -25 -54 -58 -54zM691 540c-33 0 -58 21 -58 54s25 55 58 55
c32 0 57 -22 57 -55s-25 -54 -57 -54zM838 540c-33 0 -58 21 -58 54s25 55 58 55c32 0 57 -22 57 -55s-25 -54 -57 -54z" />
    <glyph glyph-name="uniFB6D" unicode="&#x6a4;" horiz-adv-x="517" arabic-form="medial" 
d="M-10 110h71c27 0 52 0 76 3c-56 46 -83 104 -83 155c0 89 77 165 203 165c128 0 205 -76 205 -165c0 -51 -27 -109 -83 -155c24 -3 49 -3 76 -3h62v-110h-62c-70 0 -136 10 -198 34c-61 -24 -126 -34 -196 -34h-71c-13 0 -32 7 -32 55s19 55 32 55zM258 141
c64 33 89 82 89 115c0 39 -30 70 -89 70s-89 -31 -89 -70c0 -33 25 -82 89 -115zM261 667c-32 0 -57 20 -57 54c0 33 25 54 57 54c33 0 58 -21 58 -54c0 -34 -25 -54 -58 -54zM188 540c-33 0 -58 21 -58 54s25 55 58 55c32 0 57 -22 57 -55s-25 -54 -57 -54zM335 540
c-33 0 -58 21 -58 54s25 55 58 55c32 0 57 -22 57 -55s-25 -54 -57 -54z" />
    <glyph glyph-name="uniFB6C" unicode="&#x6a4;" horiz-adv-x="521" arabic-form="initial" 
d="M-10 110h116c-20 32 -31 76 -31 113c0 110 72 189 198 189c122 0 197 -72 197 -203c0 -140 -81 -209 -218 -209h-262c-13 0 -32 7 -32 55s19 55 32 55zM221 110h43c52 0 92 27 92 97c0 50 -19 99 -83 99c-65 0 -84 -49 -84 -99c0 -36 11 -71 32 -97zM273 649
c-32 0 -57 20 -57 54c0 33 25 54 57 54c33 0 58 -21 58 -54c0 -34 -25 -54 -58 -54zM200 522c-33 0 -58 21 -58 54s25 55 58 55c32 0 57 -22 57 -55s-25 -54 -57 -54zM347 522c-33 0 -58 21 -58 54s25 55 58 55c32 0 57 -22 57 -55s-25 -54 -57 -54z" />
    <glyph glyph-name="uniFB6A" unicode="&#x6a4;" horiz-adv-x="1015" arabic-form="isolated" 
d="M718 110h41c51 0 90 27 90 97c0 50 -18 99 -82 99c-62 0 -80 -49 -80 -99c0 -36 10 -71 31 -97zM318 110h286c-20 32 -31 76 -31 113c0 110 71 189 195 189c121 0 195 -72 195 -203c0 -140 -80 -209 -215 -209h-453c-162 0 -246 80 -246 211v115c0 18 8 25 26 25h60
c18 0 26 -7 26 -25v-66c0 -110 37 -150 157 -150zM773 649c-32 0 -57 20 -57 54c0 33 25 54 57 54c33 0 58 -21 58 -54c0 -34 -25 -54 -58 -54zM700 522c-33 0 -58 21 -58 54s25 55 58 55c32 0 57 -22 57 -55s-25 -54 -57 -54zM847 522c-33 0 -58 21 -58 54s25 55 58 55
c32 0 57 -22 57 -55s-25 -54 -57 -54z" />
    <glyph glyph-name="uniFB8F" unicode="&#x6a9;" horiz-adv-x="989" arabic-form="final" 
d="M584 425c197 -75 296 -161 296 -274c0 -7 -1 -14 -2 -21c21 -14 50 -20 95 -20h16v-110h-16c-61 0 -102 21 -127 55c-41 -44 -112 -55 -175 -55h-381c-158 0 -241 80 -241 211v117c0 17 10 23 25 23h62c16 0 25 -5 25 -23v-68c0 -110 37 -150 153 -150h364
c54 0 87 13 87 53c0 57 -89 135 -298 193c-15 5 -22 10 -22 24v47c0 11 4 18 14 26l293 255c14 12 25 13 35 2l37 -42c11 -13 12 -23 -1 -35z" />
    <glyph glyph-name="uniFB91" unicode="&#x6a9;" horiz-adv-x="519" arabic-form="medial" 
d="M201 0h-211c-13 0 -32 7 -32 54c0 49 19 56 32 56h218c53 0 87 13 87 53c0 57 -89 134 -298 193c-15 5 -22 10 -22 24v47c0 11 3 18 14 26l293 255c14 12 25 13 35 2l37 -42c11 -13 12 -23 -1 -35l-239 -208c197 -75 296 -161 296 -274c0 -7 -1 -13 -2 -20
c21 -15 50 -21 95 -21h16v-110h-16c-61 0 -102 21 -127 56c-41 -45 -112 -56 -175 -56z" />
    <glyph glyph-name="uniFB90" unicode="&#x6a9;" horiz-adv-x="463" arabic-form="initial" 
d="M201 0h-211c-13 0 -32 7 -32 54c0 49 19 56 32 56h218c53 0 87 13 87 53c0 57 -89 134 -298 193c-15 5 -22 10 -22 24v47c0 11 3 18 14 26l293 255c14 12 25 13 35 2l37 -42c11 -13 12 -23 -1 -35l-239 -208c197 -75 296 -161 296 -274c0 -125 -114 -151 -209 -151z" />
    <glyph glyph-name="uniFB8E" unicode="&#x6a9;" horiz-adv-x="937" arabic-form="isolated" 
d="M584 425c197 -75 296 -161 296 -274c0 -125 -114 -151 -209 -151h-381c-158 0 -241 80 -241 211v117c0 17 10 23 25 23h62c16 0 25 -5 25 -23v-68c0 -110 37 -150 153 -150h364c54 0 87 13 87 53c0 57 -89 135 -298 193c-15 5 -22 10 -22 24v47c0 11 4 18 14 26l293 255
c14 12 25 13 35 2l37 -42c11 -13 12 -23 -1 -35z" />
    <glyph glyph-name="uniFB93" unicode="&#x6af;" horiz-adv-x="989" arabic-form="final" 
d="M584 425c197 -75 296 -161 296 -274c0 -7 -1 -14 -2 -21c21 -14 50 -20 95 -20h16v-110h-16c-61 0 -102 21 -127 55c-41 -44 -112 -55 -175 -55h-381c-158 0 -241 80 -241 211v117c0 17 10 23 25 23h62c16 0 25 -5 25 -23v-68c0 -110 37 -150 153 -150h364
c54 0 87 13 87 53c0 57 -89 135 -298 193c-15 5 -22 10 -22 24v47c0 11 4 18 14 26l293 255c14 12 25 13 35 2l37 -42c11 -13 12 -23 -1 -35zM433 601l204 177c12 10 22 12 30 3l25 -28c10 -11 11 -20 -1 -30l-204 -177c-12 -10 -22 -12 -30 -3l-25 28c-10 11 -11 20 1 30z
" />
    <glyph glyph-name="uniFB95" unicode="&#x6af;" horiz-adv-x="519" arabic-form="medial" 
d="M201 0h-211c-13 0 -32 7 -32 54c0 49 19 56 32 56h218c53 0 87 13 87 53c0 57 -89 134 -298 193c-15 5 -22 10 -22 24v47c0 11 3 18 14 26l293 255c14 12 25 13 35 2l37 -42c11 -13 12 -23 -1 -35l-239 -208c197 -75 296 -161 296 -274c0 -7 -1 -13 -2 -20
c21 -15 50 -21 95 -21h16v-110h-16c-61 0 -102 21 -127 56c-41 -45 -112 -56 -175 -56zM-40 601l204 177c12 10 22 12 30 3l25 -28c10 -11 11 -20 -1 -30l-204 -177c-12 -10 -22 -12 -30 -3l-25 28c-10 11 -11 20 1 30z" />
    <glyph glyph-name="uniFB94" unicode="&#x6af;" horiz-adv-x="463" arabic-form="initial" 
d="M201 0h-211c-13 0 -32 7 -32 54c0 49 19 56 32 56h218c53 0 87 13 87 53c0 57 -89 134 -298 193c-15 5 -22 10 -22 24v47c0 11 3 18 14 26l293 255c14 12 25 13 35 2l37 -42c11 -13 12 -23 -1 -35l-239 -208c197 -75 296 -161 296 -274c0 -125 -114 -151 -209 -151z
M-40 601l204 177c12 10 22 12 30 3l25 -28c10 -11 11 -20 -1 -30l-204 -177c-12 -10 -22 -12 -30 -3l-25 28c-10 11 -11 20 1 30z" />
    <glyph glyph-name="uniFB92" unicode="&#x6af;" horiz-adv-x="937" arabic-form="isolated" 
d="M584 425c197 -75 296 -161 296 -274c0 -125 -114 -151 -209 -151h-381c-158 0 -241 80 -241 211v117c0 17 10 23 25 23h62c16 0 25 -5 25 -23v-68c0 -110 37 -150 153 -150h364c54 0 87 13 87 53c0 57 -89 135 -298 193c-15 5 -22 10 -22 24v47c0 11 4 18 14 26l293 255
c14 12 25 13 35 2l37 -42c11 -13 12 -23 -1 -35zM433 601l204 177c12 10 22 12 30 3l25 -28c10 -11 11 -20 -1 -30l-204 -177c-12 -10 -22 -12 -30 -3l-25 28c-10 11 -11 20 1 30z" />
    <glyph glyph-name="uniFB9F" unicode="&#x6ba;" horiz-adv-x="686" arabic-form="final" 
d="M601 0v3c-15 -145 -110 -223 -278 -223c-169 0 -277 81 -277 252c0 55 15 112 40 163c11 20 19 27 39 18l47 -21c17 -7 22 -15 14 -37c-18 -43 -26 -86 -26 -122c0 -96 58 -146 166 -146c114 0 165 54 165 161v251c0 17 10 23 24 23h64c16 0 24 -5 24 -23v-189h83v-110
h-85z" />
    <glyph glyph-name="uniFB9E" unicode="&#x6ba;" horiz-adv-x="666" arabic-form="isolated" 
d="M603 299v-255c0 -172 -97 -264 -280 -264c-169 0 -277 81 -277 252c0 55 15 112 40 163c11 20 19 27 39 18l47 -21c17 -7 22 -15 14 -37c-18 -43 -26 -86 -26 -122c0 -96 58 -146 166 -146c114 0 165 54 165 161v251c0 17 10 23 24 23h64c16 0 24 -5 24 -23z" />
    <glyph glyph-name="uniFBAB" unicode="&#x6be;" horiz-adv-x="669" arabic-form="final" 
d="M86 0h-17c-18 0 -24 9 -24 25v60c0 16 6 25 24 25h17c31 0 60 0 93 4c22 198 123 316 246 316c94 0 158 -66 158 -150c0 -65 -48 -132 -126 -166v-1c50 -3 133 -3 179 -3h33v-110h-33c-59 0 -114 9 -140 14v-1c54 -33 97 -93 97 -146c0 -90 -75 -157 -170 -157
c-110 0 -222 96 -245 296c-32 -3 -61 -6 -92 -6zM427 -182c32 0 57 23 57 56c0 44 -53 113 -195 142c5 -92 55 -198 138 -198zM291 119c134 31 178 104 178 151c0 33 -21 52 -48 52c-68 0 -112 -88 -130 -203z" />
    <glyph glyph-name="uniFBAD" unicode="&#x6be;" horiz-adv-x="606" arabic-form="medial" 
d="M23 0h-33c-13 0 -32 7 -32 55s19 55 32 55h33c31 0 60 0 93 4c22 198 123 316 246 316c94 0 158 -66 158 -150c0 -65 -48 -132 -126 -166v-1c50 -3 133 -3 179 -3h33v-110h-33c-59 0 -114 9 -140 14v-1c54 -33 97 -93 97 -146c0 -90 -75 -157 -170 -157
c-110 0 -222 96 -245 296c-32 -3 -61 -6 -92 -6zM364 -182c32 0 57 23 57 56c0 44 -53 113 -195 142c5 -92 55 -198 138 -198zM228 119c134 31 178 104 178 151c0 33 -21 52 -48 52c-68 0 -112 -88 -130 -203z" />
    <glyph glyph-name="uniFBAC" unicode="&#x6be;" horiz-adv-x="710" arabic-form="initial" 
d="M384 274c0 41 -49 71 -93 71c-38 0 -69 -23 -69 -64c0 -39 28 -80 79 -115c56 32 83 73 83 108zM484 98c38 0 57 16 57 44c0 36 -30 79 -66 114v-1c1 -5 1 -9 1 -12c0 -49 -34 -94 -73 -129c28 -10 55 -16 81 -16zM25 0h-35c-13 0 -32 7 -32 55s19 55 32 55h41
c61 0 116 6 160 16c-44 45 -73 97 -73 156c0 51 40 100 70 119l1 1l-38 15c-19 7 -22 18 -16 29l25 47c7 14 12 18 29 13c312 -89 466 -255 466 -384c0 -82 -60 -126 -155 -126c-63 0 -136 20 -200 53c-73 -31 -165 -49 -275 -49z" />
    <glyph glyph-name="uniFBAA" unicode="&#x6be;" horiz-adv-x="790" arabic-form="isolated" 
d="M464 274c0 41 -49 71 -93 71c-38 0 -69 -23 -69 -64c0 -39 28 -80 79 -115c56 32 83 73 83 108zM564 98c38 0 57 16 57 44c0 36 -30 79 -66 114v-1c1 -5 1 -9 1 -12c0 -49 -34 -94 -73 -129c28 -10 55 -16 81 -16zM269 402l-38 15c-19 7 -22 18 -16 29l25 47
c7 14 12 18 29 13c312 -89 466 -255 466 -384c0 -82 -60 -126 -155 -126c-63 0 -136 20 -200 53c-73 -31 -165 -49 -275 -49h-42c-18 0 -23 8 -23 24v61c0 15 6 25 23 25h48c61 0 116 6 160 16c-44 45 -73 97 -73 156c0 51 40 100 70 119z" />
    <glyph glyph-name="uniFBA5" unicode="&#x6c0;" horiz-adv-x="523" arabic-form="final" 
d="M424 477v-304c0 -44 16 -63 70 -63h29v-110h-36c-82 0 -137 24 -161 70c-32 -13 -72 -20 -110 -20c-85 0 -170 36 -170 135c0 82 65 176 266 245v33c0 17 5 23 18 25l72 9c14 2 22 -6 22 -20zM160 202c0 -29 25 -45 69 -45c28 0 57 7 83 16v156
c-91 -32 -152 -78 -152 -127zM262 663h29c-11 16 -18 38 -18 58c0 56 45 92 101 92c28 0 53 -7 78 -23c7 -5 12 -13 7 -21l-10 -25c-4 -9 -7 -13 -17 -7c-18 9 -34 14 -51 14c-25 0 -43 -17 -43 -44c0 -13 5 -29 16 -44h102c11 0 14 -4 14 -14v-34c0 -9 -3 -14 -14 -14h-194
c-11 0 -14 5 -14 15v33c0 10 3 14 14 14z" />
    <glyph glyph-name="uniFBA4" unicode="&#x6c0;" horiz-adv-x="516" arabic-form="isolated" 
d="M258 -10c-125 0 -206 76 -206 208c0 112 68 232 206 232c137 0 206 -120 206 -232c0 -132 -81 -208 -206 -208zM258 322c-66 0 -92 -69 -92 -125c0 -54 27 -99 92 -99s92 45 92 99c0 56 -26 125 -92 125zM161 585h29c-11 16 -18 38 -18 58c0 56 45 92 101 92
c28 0 53 -7 78 -23c7 -5 12 -13 7 -21l-10 -25c-4 -9 -7 -13 -17 -7c-18 9 -34 14 -51 14c-25 0 -43 -17 -43 -44c0 -13 5 -29 16 -44h102c11 0 14 -4 14 -14v-34c0 -9 -3 -14 -14 -14h-194c-11 0 -14 5 -14 15v33c0 10 3 14 14 14z" />
    <glyph glyph-name="uniFBA7" unicode="&#x6c1;" horiz-adv-x="529" arabic-form="final" 
d="M157 80v-109c0 -18 -8 -25 -26 -25h-60c-18 0 -26 7 -26 25v112c0 105 70 152 143 152c68 0 103 -29 160 -73c45 -35 80 -52 145 -52h36v-110h-22c-102 0 -156 26 -221 81c-36 30 -57 47 -87 47c-26 0 -42 -15 -42 -48z" />
    <glyph glyph-name="uniFBA9" unicode="&#x6c1;" horiz-adv-x="565" arabic-form="medial" 
d="M-10 110h28c50 0 80 8 102 27v191c0 18 8 25 26 25h60c18 0 26 -7 26 -25v-107c0 -145 15 -227 79 -316c-3 13 -4 30 -4 43c0 100 70 162 219 162h39v-110h-37c-94 0 -119 -28 -119 -87c0 -35 8 -83 28 -148c4 -14 2 -22 -9 -27l-50 -22c-15 -7 -19 -9 -30 0
c-122 99 -195 206 -219 321c-25 -24 -62 -37 -111 -37h-28c-13 0 -32 7 -32 55s19 55 32 55z" />
    <glyph glyph-name="uniFBA8" unicode="&#x6c1;" horiz-adv-x="304" arabic-form="initial" 
d="M137 -45h32c16 0 22 -7 15 -20c-23 -43 -36 -75 -36 -96c0 -19 12 -29 38 -29c14 0 20 -4 20 -13c0 -27 -30 -66 -79 -66c-46 0 -76 33 -76 82c0 35 15 79 52 128c8 11 17 14 34 14zM-10 110h88c39 0 48 10 48 51v226c0 18 8 25 26 25h60c18 0 26 -7 26 -25v-262
c0 -82 -45 -125 -149 -125h-99c-13 0 -32 7 -32 55s19 55 32 55z" />
    <glyph glyph-name="uniFBA6" unicode="&#x6c1;" horiz-adv-x="516" arabic-form="isolated" 
d="M258 -10c-125 0 -206 76 -206 208c0 112 68 232 206 232c137 0 206 -120 206 -232c0 -132 -81 -208 -206 -208zM258 322c-66 0 -92 -69 -92 -125c0 -54 27 -99 92 -99s92 45 92 99c0 56 -26 125 -92 125z" />
    <glyph glyph-name="uni06C2.fina" unicode="&#x6c2;" horiz-adv-x="529" 
d="M157 80v-109c0 -18 -8 -25 -26 -25h-60c-18 0 -26 7 -26 25v112c0 105 70 152 143 152c68 0 103 -29 160 -73c45 -35 80 -52 145 -52h36v-110h-22c-102 0 -156 26 -221 81c-36 30 -57 47 -87 47c-26 0 -42 -15 -42 -48zM110 404h29c-11 16 -18 38 -18 58
c0 56 45 92 101 92c28 0 53 -7 78 -23c7 -5 12 -13 7 -21l-10 -25c-4 -9 -7 -13 -17 -7c-18 9 -34 14 -51 14c-25 0 -43 -17 -43 -44c0 -13 5 -29 16 -44h102c11 0 14 -4 14 -14v-34c0 -9 -3 -14 -14 -14h-194c-11 0 -14 5 -14 15v33c0 10 3 14 14 14z" />
    <glyph glyph-name="uni06C3.fina" unicode="&#x6c3;" horiz-adv-x="523" 
d="M424 477v-304c0 -44 16 -63 70 -63h29v-110h-36c-82 0 -137 24 -161 70c-32 -13 -72 -20 -110 -20c-85 0 -170 36 -170 135c0 82 65 176 266 245v33c0 17 5 23 18 25l72 9c14 2 22 -6 22 -20zM160 202c0 -29 25 -45 69 -45c28 0 57 7 83 16v156
c-91 -32 -152 -78 -152 -127zM287 615c-33 0 -58 21 -58 54s25 55 58 55c32 0 57 -22 57 -55s-25 -54 -57 -54zM434 615c-33 0 -58 21 -58 54s25 55 58 55c32 0 57 -22 57 -55s-25 -54 -57 -54z" />
    <glyph glyph-name="uniFBFD" unicode="&#x6cc;" horiz-adv-x="776" arabic-form="final" 
d="M402 -112c156 0 246 39 246 81c0 24 -29 45 -99 69l-93 32c-17 6 -21 16 -16 32l16 51c6 20 17 26 37 19l58 -20c97 -34 143 -42 205 -42h20v-110h-24c7 -12 10 -26 10 -36c0 -104 -143 -184 -361 -184c-227 0 -358 86 -358 254c0 56 17 120 48 181c11 21 19 29 41 19
l48 -22c18 -8 22 -16 12 -37c-22 -45 -35 -94 -35 -133c0 -102 79 -154 245 -154z" />
    <glyph glyph-name="uniFBFF" unicode="&#x6cc;" horiz-adv-x="358" arabic-form="medial" 
d="M99 0h-109c-13 0 -32 7 -32 55s19 55 32 55h98c39 0 48 10 48 51v226c0 18 8 25 26 25h60c18 0 26 -7 26 -25v-248c22 -20 52 -29 104 -29h6v-110h-6c-58 0 -98 18 -123 50c-22 -33 -65 -50 -130 -50zM13 -229c-33 0 -58 21 -58 54s25 55 58 55c32 0 57 -22 57 -55
s-25 -54 -57 -54zM160 -229c-33 0 -58 21 -58 54s25 55 58 55c32 0 57 -22 57 -55s-25 -54 -57 -54z" />
    <glyph glyph-name="uniFBFE" unicode="&#x6cc;" horiz-adv-x="304" arabic-form="initial" 
d="M-10 110h88c39 0 48 10 48 51v226c0 18 8 25 26 25h60c18 0 26 -7 26 -25v-262c0 -82 -45 -125 -149 -125h-99c-13 0 -32 7 -32 55s19 55 32 55zM3 -229c-33 0 -58 21 -58 54s25 55 58 55c32 0 57 -22 57 -55s-25 -54 -57 -54zM150 -229c-33 0 -58 21 -58 54s25 55 58 55
c32 0 57 -22 57 -55s-25 -54 -57 -54z" />
    <glyph glyph-name="uniFBFC" unicode="&#x6cc;" horiz-adv-x="854" arabic-form="isolated" 
d="M743 296c-51 26 -98 37 -137 37c-71 0 -108 -37 -108 -80c0 -38 25 -64 115 -113c73 -40 146 -85 146 -158c0 -118 -144 -202 -358 -202c-227 0 -358 86 -358 254c0 56 17 120 48 181c11 21 19 29 41 19l48 -22c18 -8 22 -16 12 -37c-22 -45 -35 -94 -35 -133
c0 -102 80 -154 245 -154c146 0 243 43 243 88c0 28 -45 54 -98 84c-77 44 -163 98 -163 190c0 125 102 190 220 190c58 0 121 -17 176 -50c20 -12 24 -19 17 -35l-23 -52c-6 -14 -17 -14 -31 -7z" />
    <glyph glyph-name="uniFBAF" unicode="&#x6d2;" horiz-adv-x="617" arabic-form="final" 
d="M279 -139h470c18 0 24 -9 24 -25v-60c0 -16 -6 -25 -24 -25h-454c-162 0 -240 57 -240 179c0 113 67 180 204 180h358v-110h-360c-67 0 -88 -26 -88 -70c0 -51 39 -69 110 -69z" />
    <glyph glyph-name="uniFBAE" unicode="&#x6d2;" horiz-adv-x="925" arabic-form="isolated" 
d="M331 403l44 -34c15 -12 15 -22 4 -35c-24 -28 -66 -66 -123 -103c-67 -43 -87 -57 -87 -85c0 -21 17 -36 48 -36h639c18 0 24 -9 24 -25v-60c0 -16 -6 -25 -24 -25h-624c-116 0 -177 45 -177 134c0 71 48 119 114 163c63 42 96 69 125 97c15 15 24 19 37 9z" />
    <glyph glyph-name="uniFBB1" unicode="&#x6d3;" horiz-adv-x="617" arabic-form="final" 
d="M279 -139h470c18 0 24 -9 24 -25v-60c0 -16 -6 -25 -24 -25h-454c-162 0 -240 57 -240 179c0 113 67 180 204 180h358v-110h-360c-67 0 -88 -26 -88 -70c0 -51 39 -69 110 -69zM121 289h29c-11 16 -18 38 -18 58c0 56 45 92 101 92c28 0 53 -7 78 -23c7 -5 12 -13 7 -21
l-10 -25c-4 -9 -7 -13 -17 -7c-18 9 -34 14 -51 14c-25 0 -43 -17 -43 -44c0 -13 5 -29 16 -44h102c11 0 14 -4 14 -14v-34c0 -9 -3 -14 -14 -14h-194c-11 0 -14 5 -14 15v33c0 10 3 14 14 14z" />
    <glyph glyph-name="uniFBB0" unicode="&#x6d3;" horiz-adv-x="925" arabic-form="isolated" 
d="M331 403l44 -34c15 -12 15 -22 4 -35c-24 -28 -66 -66 -123 -103c-67 -43 -87 -57 -87 -85c0 -21 17 -36 48 -36h639c18 0 24 -9 24 -25v-60c0 -16 -6 -25 -24 -25h-624c-116 0 -177 45 -177 134c0 71 48 119 114 163c63 42 96 69 125 97c15 15 24 19 37 9zM92 585h29
c-11 16 -18 38 -18 58c0 56 45 92 101 92c28 0 53 -7 78 -23c7 -5 12 -13 7 -21l-10 -25c-4 -9 -7 -13 -17 -7c-18 9 -34 14 -51 14c-25 0 -43 -17 -43 -44c0 -13 5 -29 16 -44h102c11 0 14 -4 14 -14v-34c0 -9 -3 -14 -14 -14h-194c-11 0 -14 5 -14 15v33c0 10 3 14 14 14z
" />
    <glyph glyph-name="uni06A1.init" unicode="&#x6a1;" horiz-adv-x="521" 
d="M-10 110h116c-20 32 -31 76 -31 113c0 110 72 189 198 189c122 0 197 -72 197 -203c0 -140 -81 -209 -218 -209h-262c-13 0 -32 7 -32 55s19 55 32 55zM221 110h43c52 0 92 27 92 97c0 50 -19 99 -83 99c-65 0 -84 -49 -84 -99c0 -36 11 -71 32 -97z" />
    <glyph glyph-name="uni06A1.medi" unicode="&#x6a1;" horiz-adv-x="517" 
d="M-10 110h71c27 0 52 0 76 3c-56 46 -83 104 -83 155c0 89 77 165 203 165c128 0 205 -76 205 -165c0 -51 -27 -109 -83 -155c24 -3 49 -3 76 -3h62v-110h-62c-70 0 -136 10 -198 34c-61 -24 -126 -34 -196 -34h-71c-13 0 -32 7 -32 55s19 55 32 55zM258 141
c64 33 89 82 89 115c0 39 -30 70 -89 70s-89 -31 -89 -70c0 -33 25 -82 89 -115z" />
    <glyph glyph-name="uni06A1.fina" unicode="&#x6a1;" horiz-adv-x="1017" 
d="M759 141c63 33 89 82 89 115c0 39 -32 70 -89 70s-89 -31 -89 -70c0 -33 26 -82 89 -115zM1017 110v-110h-61c-70 0 -136 10 -197 34c-61 -24 -127 -34 -197 -34h-268c-162 0 -246 80 -246 211v115c0 18 8 25 26 25h60c18 0 26 -7 26 -25v-66c0 -110 37 -150 157 -150
h245c26 0 52 0 76 3c-56 46 -83 104 -83 155c0 89 77 165 204 165s204 -76 204 -165c0 -51 -27 -109 -83 -155c24 -3 49 -3 76 -3h61z" />
    <glyph glyph-name="uni06D5.fina" unicode="&#x6d5;" horiz-adv-x="523" 
d="M424 477v-304c0 -44 16 -63 70 -63h29v-110h-36c-82 0 -137 24 -161 70c-32 -13 -72 -20 -110 -20c-85 0 -170 36 -170 135c0 82 65 176 266 245v33c0 17 5 23 18 25l72 9c14 2 22 -6 22 -20zM160 202c0 -29 25 -45 69 -45c28 0 57 7 83 16v156
c-91 -32 -152 -78 -152 -127z" />
    <glyph glyph-name="uniFDFA" unicode="&#xfdfa;" horiz-adv-x="1453" arabic-form="isolated" 
d="M1333 -74v-39c0 -65 -14 -97 -98 -140c-7 -3 -13 -2 -17 6l-12 23c-3 7 -1 11 8 16c30 16 49 30 58 48c-8 -3 -19 -4 -27 -4c-43 0 -76 32 -76 86c0 51 32 85 83 85c47 0 81 -26 81 -81zM698 504v261c0 8 3 10 9 11l33 5c7 1 10 -3 10 -10v-267c0 -9 -4 -12 -12 -12h-28
c-8 0 -12 3 -12 12zM1135 544h115c22 0 29 8 29 27c0 30 -15 50 -40 50c-43 0 -81 -44 -104 -77zM1281 -107v33c0 19 -7 31 -28 31c-20 0 -30 -14 -30 -34c0 -26 11 -37 31 -37c9 0 20 3 27 7zM234 -112h15c18 0 32 10 32 34c0 18 -7 35 -29 35c-23 0 -29 -17 -29 -35
c0 -12 4 -24 11 -34zM222 567v54c-30 -11 -53 -29 -53 -44c0 -10 8 -15 24 -15c8 0 20 2 29 5zM440 164h-201c-33 0 -53 10 -64 28c-13 -5 -29 -8 -44 -8c-36 0 -71 16 -71 57c0 33 26 72 106 101v12c0 8 3 10 9 11l33 5c7 1 10 -3 10 -10v-123c0 -14 6 -21 23 -21h195
c12 0 15 3 15 16v91c0 9 4 12 12 12h28c8 0 12 -3 12 -12v-98c8 -7 20 -9 40 -9h401c12 0 15 3 15 16v205c0 8 3 10 9 11l33 5c7 1 10 -3 10 -10v-218c8 -7 20 -9 40 -9h177c-11 16 -16 33 -16 50c0 44 35 76 85 76c19 0 76 -12 68 -32l-11 -24c-3 -7 -8 -8 -15 -4
c-13 6 -27 10 -38 10c-25 0 -36 -13 -36 -32c0 -13 5 -29 21 -44h91c9 0 12 -5 12 -13v-26c0 -8 -3 -13 -12 -13h-327c-21 0 -39 6 -50 18c-10 -12 -27 -18 -52 -18h-406c-21 0 -39 6 -50 18c-10 -12 -27 -18 -52 -18zM506 728v-182c0 -38 -21 -54 -68 -54
c-27 0 -44 5 -57 18c-10 -12 -27 -18 -52 -18h-34c-33 0 -53 10 -64 28c-13 -5 -29 -8 -44 -8c-36 0 -71 16 -71 57c0 33 26 72 106 101v12c0 8 3 10 9 11l33 5c7 1 10 -3 10 -10v-123c0 -14 6 -21 23 -21h28c12 0 15 3 15 16v142c0 8 3 10 9 11l33 5c7 1 10 -3 10 -10v-155
c8 -7 21 -9 44 -9c15 0 18 3 18 16v162c0 8 3 10 9 11l33 5c7 1 10 -3 10 -10zM166 239v54c-30 -11 -53 -29 -53 -44c0 -10 8 -15 24 -15c8 0 20 2 29 5zM468 99c0 -16 -12 -26 -27 -26s-27 10 -27 26s12 26 27 26s27 -10 27 -26zM539 99c0 -16 -12 -26 -27 -26
s-27 10 -27 26s12 26 27 26s27 -10 27 -26zM785 535l7 23c3 11 10 13 19 10l23 -8c38 -14 58 -16 86 -16h24c12 0 15 3 15 16v205c0 8 3 10 9 11l33 5c7 1 10 -3 10 -10v-218c8 -7 20 -9 40 -9h33v107c0 9 4 12 12 12h28c8 0 12 -3 12 -12v-40c27 35 68 60 105 60
c58 0 92 -40 92 -102c0 -56 -24 -77 -92 -77h-191c-21 0 -39 6 -50 18c-10 -12 -27 -18 -52 -18h-30c1 -3 2 -7 2 -11c0 -44 -63 -76 -165 -76c-110 0 -164 37 -164 105c0 21 6 50 21 75c5 9 9 11 19 7l22 -10c8 -4 10 -7 5 -18c-8 -18 -13 -36 -13 -51
c0 -40 32 -58 111 -58c76 0 110 14 110 28c0 6 -5 11 -30 20l-43 15c-9 3 -11 8 -8 17zM801 305l-136 -17c-6 -1 -11 0 -11 10v9c0 8 2 10 11 11l136 17c6 1 11 0 11 -10v-9c0 -8 -2 -10 -11 -11zM915 47l-136 -17c-6 -1 -11 0 -11 10v9c0 8 2 10 11 11l136 17
c6 1 11 0 11 -10v-9c0 -8 -2 -10 -11 -11zM1341 402l-136 -17c-6 -1 -11 0 -11 10v9c0 8 2 10 11 11l136 17c6 1 11 0 11 -10v-9c0 -8 -2 -10 -11 -11zM1199 739l-136 -17c-6 -1 -11 0 -11 10v9c0 8 2 10 11 11l136 17c6 1 11 0 11 -10v-9c0 -8 -2 -10 -11 -11zM628 -275
h143c6 0 15 0 15 10v33c0 6 3 8 8 8h19c5 0 8 -2 8 -8v-37c4 -4 9 -6 13 -6c2 -1 5 0 8 0c5 1 7 6 7 12v31c0 6 3 8 8 8h19c5 0 8 -2 8 -8v-38c4 -4 9 -6 14 -6c8 0 11 5 11 13v53c0 6 3 8 8 8h19c5 0 8 -2 8 -8v-59c0 -22 -14 -39 -40 -39c-13 0 -23 4 -31 12
c-7 -7 -17 -12 -30 -12c-12 0 -22 4 -31 11c-6 -7 -18 -11 -32 -11h-152c-5 0 -7 3 -7 7v18c0 5 2 8 7 8zM143 -281c-10 -1 -12 1 -16 13c-7 24 -11 69 -11 82c0 46 22 71 64 73c-8 14 -11 28 -11 42c0 45 31 78 83 78c50 0 82 -30 82 -85c0 -12 -1 -22 -7 -34h275
c12 0 15 3 15 16v205c0 8 3 10 9 11l33 5c7 1 10 -3 10 -10v-218c8 -7 20 -9 40 -9h101c13 0 19 4 19 19v52c0 9 4 12 12 12h28c8 0 12 -3 12 -12v-60c9 -7 20 -11 29 -11c15 0 22 8 22 24v47c0 9 4 12 12 12h28c8 0 12 -3 12 -12v-60c8 -7 17 -11 27 -11c15 0 21 9 21 24
v83c0 9 4 12 12 12h28c8 0 12 -3 12 -12v-96c0 -33 -21 -63 -64 -63c-21 0 -38 6 -52 21c-10 -13 -27 -21 -49 -21c-20 0 -37 7 -51 20c-12 -15 -32 -20 -66 -20h-94c-21 0 -39 6 -50 18c-10 -12 -27 -18 -52 -18h-401c-27 0 -36 -4 -36 -25c0 -14 3 -39 10 -73
c2 -11 -3 -14 -11 -15zM331 822v-28c0 -7 5 -11 12 -11c6 0 10 4 10 10v34c0 5 3 7 7 7h14c4 0 7 -2 7 -7v-29c0 -7 5 -11 12 -11c6 0 10 4 10 10v35c0 5 3 7 7 7h14c4 0 7 -2 7 -7v-35c0 -27 -13 -40 -33 -40c-11 0 -20 4 -28 12c-6 -9 -17 -16 -32 -16
c-19 0 -35 11 -35 42v27c0 5 3 7 7 7h14c4 0 7 -2 7 -7zM381 926v-66c0 -5 -3 -7 -7 -7h-14c-4 0 -7 2 -7 7v62c0 5 1 7 5 8l16 3c5 1 7 -2 7 -7zM844 698c0 19 -5 38 -15 57c-3 5 -2 10 5 11l11 2c8 1 10 -2 14 -9c10 -18 14 -42 14 -61s-4 -43 -14 -61
c-4 -7 -6 -10 -14 -9l-11 2c-7 1 -8 6 -5 11c10 19 15 38 15 57z" />
    <glyph glyph-name="uniFDF2" unicode="&#xfdf2;" horiz-adv-x="1324" arabic-form="isolated" 
d="M436 484v-311c0 -44 17 -63 72 -63h68c39 0 48 10 48 51v353c0 17 6 22 19 24l72 10c14 2 21 -6 21 -21v-388c22 -20 52 -29 104 -29h23c39 0 48 10 48 51v404c0 17 6 22 19 24l72 10c14 2 21 -6 21 -21v-453c0 -82 -45 -125 -149 -125h-34c-58 0 -98 18 -123 50
c-22 -33 -65 -50 -130 -50h-86c-83 0 -137 24 -161 70c-36 -13 -75 -20 -113 -20c-91 0 -172 40 -172 135c0 82 66 176 269 245v41c0 17 6 22 19 24l72 10c14 2 21 -6 21 -21zM324 173v156c-92 -32 -153 -78 -153 -127c0 -32 29 -45 69 -45c25 0 54 5 84 16zM777 744v80
c0 10 4 14 14 14h30c10 0 14 -4 14 -14v-79c0 -60 -24 -94 -81 -94c-25 0 -51 10 -69 33c-18 -30 -48 -43 -78 -43c-55 0 -82 35 -82 94v63c0 10 4 14 14 14h30c10 0 14 -4 14 -14v-63c0 -26 13 -38 34 -38s34 12 34 37v77c0 10 4 14 14 14h30c10 0 14 -4 14 -14v-66
c0 -26 13 -38 34 -38s34 12 34 37zM661 1070l34 5c9 1 14 -2 14 -12v-167c0 -10 -4 -14 -12 -14h-33c-9 0 -13 4 -13 14v160c0 9 3 13 10 14zM1233 0h-60c-18 0 -26 7 -26 25v655c0 17 6 22 19 24l72 10c14 2 21 -6 21 -21v-668c0 -18 -8 -25 -26 -25z" />
    <glyph glyph-name="uniFC5E" unicode="&#xfc5e;" arabic-form="isolated" 
d="M25 696v-85c0 -17 9 -21 20 -21c13 0 20 7 20 23v96c0 8 3 11 9 11h32c6 0 10 -3 10 -11v-106c0 -47 -15 -69 -59 -69c-15 0 -38 3 -52 29c-11 -32 -39 -40 -61 -40c-39 0 -60 27 -60 68v92c0 8 4 11 10 11h33c7 0 8 -3 8 -11v-82c0 -16 8 -22 19 -22c12 0 21 9 21 23v94
c0 8 3 11 9 11h32c5 0 9 -3 9 -11zM-65 762c-17 -4 -25 3 -25 15c0 15 8 41 8 61c0 12 -5 19 -16 19c-4 0 -10 -1 -15 -2c-7 -2 -10 1 -10 6v25c0 6 2 10 9 12c10 4 23 6 34 6c19 0 45 -10 45 -42c0 -14 -1 -25 -3 -38c19 6 40 16 55 27c-35 11 -50 35 -50 67
c0 53 38 78 78 78c45 0 73 -29 73 -81c0 -91 -122 -136 -183 -153zM19 921c0 -15 7 -29 35 -36c7 10 10 20 10 35s-6 29 -23 29c-14 0 -22 -11 -22 -28z" />
    <glyph glyph-name="uniFC5F" unicode="&#xfc5f;" arabic-form="isolated" 
d="M110 591v-28c0 -11 -4 -15 -16 -16l-187 -22c-11 -2 -17 1 -17 14v28c0 11 4 15 16 16l187 22c11 2 17 -1 17 -14zM110 689v-28c0 -11 -4 -15 -16 -16l-187 -22c-11 -2 -17 1 -17 14v28c0 11 4 15 16 16l187 22c11 2 17 -1 17 -14zM25 931v-85c0 -17 9 -21 20 -21
c13 0 20 7 20 23v96c0 8 3 11 9 11h32c6 0 10 -3 10 -11v-106c0 -47 -15 -69 -59 -69c-15 0 -38 3 -52 29c-11 -32 -39 -40 -61 -40c-39 0 -60 27 -60 68v92c0 8 4 11 10 11h33c7 0 8 -3 8 -11v-82c0 -16 8 -22 19 -22c12 0 21 9 21 23v94c0 8 3 11 9 11h32c5 0 9 -3 9 -11z
" />
    <glyph glyph-name="uniFC60" unicode="&#xfc60;" arabic-form="isolated" 
d="M25 696v-85c0 -17 9 -21 20 -21c13 0 20 7 20 23v96c0 8 3 11 9 11h32c6 0 10 -3 10 -11v-106c0 -47 -15 -69 -59 -69c-15 0 -38 3 -52 29c-11 -32 -39 -40 -61 -40c-39 0 -60 27 -60 68v92c0 8 4 11 10 11h33c7 0 8 -3 8 -11v-82c0 -16 8 -22 19 -22c12 0 21 9 21 23v94
c0 8 3 11 9 11h32c5 0 9 -3 9 -11zM110 840v-28c0 -11 -4 -15 -16 -16l-187 -22c-11 -2 -17 1 -17 14v28c0 11 4 15 16 16l187 22c11 2 17 -1 17 -14z" />
    <glyph glyph-name="uniFC61" unicode="&#xfc61;" arabic-form="isolated" 
d="M25 696v-85c0 -17 9 -21 20 -21c13 0 20 7 20 23v96c0 8 3 11 9 11h32c6 0 10 -3 10 -11v-106c0 -47 -15 -69 -59 -69c-15 0 -38 3 -52 29c-11 -32 -39 -40 -61 -40c-39 0 -60 27 -60 68v92c0 8 4 11 10 11h33c7 0 8 -3 8 -11v-82c0 -16 8 -22 19 -22c12 0 21 9 21 23v94
c0 8 3 11 9 11h32c5 0 9 -3 9 -11zM-98 813c32 8 72 21 104 40c-34 12 -49 34 -49 66c0 53 39 78 79 78c46 0 73 -29 73 -81c0 -89 -115 -134 -189 -155c-13 -3 -20 -2 -22 9l-6 26c-2 9 0 15 10 17zM11 922c0 -16 7 -30 35 -36c6 9 10 19 10 33c0 16 -6 30 -22 30
c-15 0 -23 -10 -23 -27z" />
    <glyph glyph-name="uniFC62" unicode="&#xfc62;" arabic-form="isolated" 
d="M110 591v-28c0 -11 -4 -15 -16 -16l-187 -22c-11 -2 -17 1 -17 14v28c0 11 4 15 16 16l187 22c11 2 17 -1 17 -14zM25 833v-85c0 -17 9 -21 20 -21c13 0 20 7 20 23v96c0 8 3 11 9 11h32c6 0 10 -3 10 -11v-106c0 -47 -15 -69 -59 -69c-15 0 -38 3 -52 29
c-11 -32 -39 -40 -61 -40c-39 0 -60 27 -60 68v92c0 8 4 11 10 11h33c7 0 8 -3 8 -11v-82c0 -16 8 -22 19 -22c12 0 21 9 21 23v94c0 8 3 11 9 11h32c5 0 9 -3 9 -11z" />
    <glyph glyph-name="uniFC63" unicode="&#xfc63;" arabic-form="isolated" 
d="M25 696v-85c0 -17 9 -21 20 -21c13 0 20 7 20 23v96c0 8 3 11 9 11h32c6 0 10 -3 10 -11v-106c0 -47 -15 -69 -59 -69c-15 0 -38 3 -52 29c-11 -32 -39 -40 -61 -40c-39 0 -60 27 -60 68v92c0 8 4 11 10 11h33c7 0 8 -3 8 -11v-82c0 -16 8 -22 19 -22c12 0 21 9 21 23v94
c0 8 3 11 9 11h32c5 0 9 -3 9 -11zM31 948v-167c0 -10 -4 -14 -13 -14h-35c-10 0 -14 4 -14 14v160c0 9 3 14 11 15l37 4c8 1 14 -2 14 -12z" />
    <glyph glyph-name=".notdef" horiz-adv-x="535" 
d="M20 0v693h495v-693h-495zM268 391l168 253h-337zM297 347l169 -253v505zM99 50h337l-168 252zM70 599v-505l168 253z" />
    <glyph glyph-name=".null" 
 />
    <glyph glyph-name=".null" 
 />
    <glyph glyph-name="CR" unicode="&#xd;" horiz-adv-x="242" 
 />
    <glyph glyph-name="space" unicode=" " horiz-adv-x="242" 
 />
    <glyph glyph-name="exclam" unicode="!" horiz-adv-x="259" 
d="M197 52c0 -40 -35 -64 -67 -64s-68 22 -68 63c0 42 34 65 68 65s67 -23 67 -64zM190 673l-12 -500c0 -13 -5 -19 -19 -19h-54c-16 0 -20 6 -20 20l-11 499c0 14 4 19 18 19h80c14 0 18 -5 18 -19z" />
    <glyph glyph-name="quotedbl" unicode="&#x22;" horiz-adv-x="331" 
d="M145 687l-8 -158c-1 -13 -3 -19 -17 -19h-55c-14 0 -16 6 -17 19l-8 158c0 11 4 18 20 18h65c16 0 21 -7 20 -18zM290 687l-8 -158c-1 -13 -3 -19 -17 -19h-55c-14 0 -16 6 -17 19l-8 158c0 11 4 18 20 18h65c16 0 21 -7 20 -18z" />
    <glyph glyph-name="numbersign" unicode="#" horiz-adv-x="561" 
d="M437 400l-17 -111h74c15 0 19 -6 18 -18l-7 -57c-2 -14 -8 -16 -19 -16h-81l-27 -183c-2 -12 -6 -15 -18 -15h-73c-16 0 -20 5 -18 19l27 179h-82l-27 -183c-2 -12 -6 -15 -18 -15h-73c-16 0 -20 5 -18 19l27 179h-69c-15 0 -19 6 -18 18l7 57c2 14 8 16 19 16h75l17 111
h-69c-15 0 -19 6 -18 18l7 57c2 14 8 16 19 16h75l28 186c2 12 6 15 18 15h73c16 0 20 -5 18 -19l-28 -182h83l29 186c2 12 6 15 18 15h73c16 0 20 -5 18 -19l-30 -182h75c15 0 19 -6 18 -18l-7 -57c-2 -14 -8 -16 -19 -16h-80zM328 400h-81l-19 -111h83z" />
    <glyph glyph-name="dollar" unicode="$" horiz-adv-x="561" 
d="M510 197c0 -119 -82 -188 -189 -205v-73c0 -16 0 -21 -19 -21h-25c-17 0 -18 7 -18 21v69c-59 0 -120 11 -180 32c-18 7 -20 14 -15 33l18 63c5 16 17 17 32 12c43 -16 97 -29 144 -31h1v212l-83 40c-71 34 -116 91 -116 169c0 111 97 176 199 186v79c0 12 6 16 15 16h30
c14 0 17 -4 17 -17v-77c52 -3 98 -14 147 -35c14 -6 18 -12 18 -20c0 -3 -1 -7 -2 -10l-22 -62c-7 -19 -20 -16 -36 -9c-31 13 -70 24 -105 29v-193l47 -22c79 -37 142 -94 142 -186zM259 434v163c-37 -6 -73 -33 -73 -75c0 -45 30 -67 73 -88zM389 189c0 43 -31 75 -68 91
v-175c38 12 68 40 68 84z" />
    <glyph glyph-name="percent" unicode="%" horiz-adv-x="796" 
d="M664 682l-419 -675c-9 -15 -16 -19 -34 -19h-61c-18 0 -26 9 -17 23l419 675c9 15 16 19 34 19h61c18 0 26 -9 17 -23zM760 176c0 -110 -54 -180 -148 -180s-148 70 -148 180s54 180 148 180s148 -70 148 -180zM662 176c0 69 -18 104 -50 104s-50 -35 -50 -104
s18 -104 50 -104s50 35 50 104zM332 516c0 -110 -54 -180 -148 -180s-148 70 -148 180s54 180 148 180s148 -70 148 -180zM234 516c0 69 -18 104 -50 104s-50 -35 -50 -104s18 -104 50 -104s50 35 50 104z" />
    <glyph glyph-name="ampersand" unicode="&#x26;" horiz-adv-x="690" 
d="M676 84c14 -4 16 -8 12 -22l-17 -56c-3 -10 -7 -15 -19 -15c-42 0 -132 37 -178 86c-63 -55 -137 -89 -224 -89c-123 0 -225 79 -225 202c0 99 79 161 157 209l-27 31c-35 40 -55 75 -55 123c0 89 85 152 179 152c95 0 171 -59 171 -149c0 -73 -60 -124 -116 -164
l149 -170c27 36 63 102 69 199c1 15 6 19 19 19h60c14 0 18 -4 18 -16c0 -114 -52 -216 -99 -272c35 -33 84 -56 126 -68zM343 554c0 33 -24 61 -62 61c-35 0 -61 -25 -61 -58c0 -22 12 -44 33 -69l23 -27c30 21 67 58 67 93zM406 144l-165 187c-50 -36 -93 -78 -93 -132
c0 -66 52 -111 118 -111c54 0 108 23 140 56z" />
    <glyph glyph-name="quotesingle" unicode="'" horiz-adv-x="186" 
d="M145 687l-8 -158c-1 -13 -3 -19 -17 -19h-55c-14 0 -16 6 -17 19l-8 158c0 11 4 18 20 18h65c16 0 21 -7 20 -18z" />
    <glyph glyph-name="parenleft" unicode="(" horiz-adv-x="327" 
d="M161 293c0 -139 47 -264 129 -374c7 -9 11 -19 -2 -26l-48 -27c-11 -6 -19 -4 -29 7c-106 118 -169 266 -169 420s63 302 169 420c10 11 18 13 29 7l48 -27c13 -7 9 -17 2 -26c-82 -110 -129 -235 -129 -374z" />
    <glyph glyph-name="parenright" unicode=")" horiz-adv-x="327" 
d="M166 293c0 139 -47 264 -129 374c-7 9 -11 19 2 26l48 27c11 6 19 4 29 -7c106 -118 169 -266 169 -420s-63 -302 -169 -420c-10 -11 -18 -13 -29 -7l-48 27c-13 7 -9 17 -2 26c82 110 129 235 129 374z" />
    <glyph glyph-name="asterisk" unicode="*" horiz-adv-x="368" 
d="M221 561l76 -71c10 -10 5 -16 -4 -22l-49 -31c-11 -7 -17 -5 -22 7l-38 92l-38 -92c-5 -12 -11 -14 -22 -7l-49 31c-9 6 -14 12 -4 22l77 71l-94 8c-15 1 -18 7 -14 19l20 59c4 12 12 14 23 7l81 -50l-22 95c-3 14 1 20 13 20h59c12 0 16 -6 13 -20l-22 -95l80 50
c11 7 19 5 23 -7l20 -59c4 -12 1 -18 -14 -19z" />
    <glyph glyph-name="plus" unicode="+" horiz-adv-x="523" 
d="M209 63v148h-147c-19 0 -24 9 -24 25v56c0 17 5 24 23 24h148v145c0 20 7 26 25 26h53c19 0 27 -6 27 -25v-146h145c20 0 26 -7 26 -25v-53c0 -19 -6 -27 -25 -27h-146v-147c0 -19 -9 -24 -25 -24h-56c-17 0 -24 5 -24 23z" />
    <glyph glyph-name="comma" unicode="," horiz-adv-x="219" 
d="M184 38c0 -73 -44 -139 -101 -179c-7 -5 -13 -7 -18 -7c-6 0 -10 3 -15 9l-10 12c-6 8 -6 13 3 22c20 20 41 48 41 72c0 30 -41 52 -41 88c0 39 31 67 69 67c43 0 72 -43 72 -84z" />
    <glyph glyph-name="hyphen" unicode="-" horiz-adv-x="287" 
d="M252 296v-63c0 -19 -6 -27 -25 -27h-168c-19 0 -24 10 -24 26v65c0 17 5 24 23 24h168c20 0 26 -7 26 -25z" />
    <glyph glyph-name="period" unicode="." horiz-adv-x="219" 
d="M186 55c0 -41 -37 -67 -71 -67c-35 0 -71 24 -71 66c0 43 34 68 71 68c36 0 71 -25 71 -67z" />
    <glyph glyph-name="slash" unicode="/" horiz-adv-x="336" 
d="M328 681l-210 -673c-5 -16 -10 -20 -27 -20h-68c-15 0 -20 7 -15 24l210 673c5 16 10 20 27 20h68c15 0 20 -7 15 -24z" />
    <glyph glyph-name="zero" unicode="0" horiz-adv-x="561" 
d="M528 348c0 -189 -68 -360 -247 -360s-248 166 -248 355c0 188 75 362 250 362c178 0 245 -169 245 -357zM394 348c0 152 -33 246 -111 246c-83 0 -116 -100 -116 -246c0 -149 29 -248 114 -248c86 0 113 100 113 248z" />
    <glyph glyph-name="one" unicode="1" horiz-adv-x="561" 
d="M406 667v-637c0 -23 -9 -30 -31 -30h-65c-26 0 -32 5 -32 29v522l-139 -79c-15 -9 -28 -9 -37 9l-24 47c-7 14 -4 26 10 34l200 119c15 9 25 11 45 11h48c16 0 25 -7 25 -25z" />
    <glyph glyph-name="two" unicode="2" horiz-adv-x="561" 
d="M511 512c0 -114 -99 -214 -203 -312c-35 -33 -70 -65 -99 -93h265c20 0 29 -6 29 -25v-53c0 -19 -8 -29 -29 -29h-392c-24 0 -31 8 -31 31v48c0 20 4 28 18 42c62 63 131 123 187 181c76 79 124 144 124 202c0 62 -44 92 -103 92c-45 0 -88 -13 -144 -44
c-13 -7 -25 -7 -33 10l-23 50c-6 14 -5 25 11 34c59 36 130 59 206 59c124 0 217 -68 217 -193z" />
    <glyph glyph-name="three" unicode="3" horiz-adv-x="561" 
d="M499 205c0 -133 -118 -217 -248 -217c-72 0 -134 14 -183 39c-14 7 -21 18 -14 38l18 49c5 15 18 17 32 11c41 -18 89 -32 139 -32c80 0 129 47 129 116c0 90 -87 115 -160 115h-18c-19 0 -24 12 -24 27v42c0 16 4 26 23 26h33c73 0 119 30 119 98c0 55 -40 86 -101 86
c-40 0 -84 -13 -126 -35c-14 -7 -25 -8 -32 9l-19 48c-4 11 -3 22 9 30c54 35 116 50 188 50c107 0 208 -60 208 -177c0 -72 -46 -132 -107 -152c71 -19 134 -83 134 -171z" />
    <glyph glyph-name="four" unicode="4" horiz-adv-x="561" 
d="M499 412v-387c0 -19 -12 -25 -28 -25h-73c-17 0 -27 6 -27 26v124h-315c-24 0 -28 13 -28 31v37c0 18 2 28 13 50l189 398c8 18 15 26 35 26h72c21 0 25 -15 17 -32l-186 -403h203v155c0 20 11 25 28 25h72c18 0 28 -5 28 -25z" />
    <glyph glyph-name="five" unicode="5" horiz-adv-x="561" 
d="M520 218c0 -147 -115 -230 -262 -230c-65 0 -129 16 -185 46c-15 8 -20 20 -13 36l23 53c7 15 19 17 34 8c48 -27 98 -37 147 -37c71 0 127 43 127 118c0 40 -14 73 -38 94c-32 28 -78 38 -133 38h-83c-25 0 -34 13 -34 38v276c0 26 10 34 32 34h324c20 0 29 -8 29 -28
v-52c0 -19 -7 -28 -28 -28h-230v-145h18c144 0 272 -64 272 -221z" />
    <glyph glyph-name="six" unicode="6" horiz-adv-x="561" 
d="M523 236c0 -133 -85 -248 -231 -248c-188 0 -246 154 -246 311c0 204 93 406 309 406c34 0 68 -5 99 -15c17 -5 20 -15 17 -30l-12 -54c-3 -13 -14 -21 -29 -16c-16 5 -41 11 -66 11c-119 0 -167 -92 -176 -196c35 29 75 42 125 42c120 0 210 -71 210 -211zM392 227
c0 62 -28 116 -96 116c-41 0 -90 -22 -118 -50v-25c0 -109 39 -174 115 -174c72 0 99 72 99 133z" />
    <glyph glyph-name="seven" unicode="7" horiz-adv-x="561" 
d="M520 665v-49c0 -16 -3 -28 -11 -45l-263 -545c-11 -22 -22 -26 -44 -26h-88c-20 0 -24 19 -16 34l272 548h-284c-20 0 -26 11 -26 28v55c0 17 5 27 25 27h407c20 0 28 -8 28 -27z" />
    <glyph glyph-name="eight" unicode="8" horiz-adv-x="561" 
d="M526 204c0 -134 -115 -216 -247 -216s-243 68 -243 205c0 80 61 145 132 178c-58 28 -102 86 -102 152c0 114 98 182 218 182c117 0 210 -63 210 -179c0 -63 -50 -122 -105 -151c81 -33 137 -97 137 -171zM367 522c0 49 -34 84 -88 84c-47 0 -87 -35 -87 -80
c0 -50 46 -87 93 -110c38 21 82 54 82 106zM397 198c0 67 -71 106 -125 127c-52 -25 -107 -67 -107 -126c0 -67 54 -111 117 -111s115 39 115 110z" />
    <glyph glyph-name="nine" unicode="9" horiz-adv-x="561" 
d="M41 457c0 133 85 248 231 248c188 0 246 -154 246 -311c0 -204 -93 -406 -309 -406c-34 0 -68 5 -99 15c-17 5 -20 15 -17 30l12 54c3 13 14 21 29 16c16 -5 41 -11 66 -11c119 0 167 92 176 196c-35 -29 -75 -42 -125 -42c-120 0 -210 71 -210 211zM172 466
c0 -62 28 -116 96 -116c41 0 90 22 118 50v25c0 109 -39 174 -115 174c-72 0 -99 -72 -99 -133z" />
    <glyph glyph-name="colon" unicode=":" horiz-adv-x="237" 
d="M197 430c0 -42 -38 -67 -71 -67c-34 0 -71 24 -71 67c0 44 35 68 71 68c35 0 71 -25 71 -68zM197 56c0 -42 -38 -68 -71 -68c-34 0 -71 24 -71 67c0 44 35 67 71 67c35 0 71 -23 71 -66z" />
    <glyph glyph-name="semicolon" unicode=";" horiz-adv-x="237" 
d="M197 430c0 -42 -38 -67 -71 -67c-34 0 -71 24 -71 67c0 44 35 68 71 68c35 0 71 -25 71 -68zM196 38c0 -73 -44 -139 -101 -179c-7 -5 -13 -7 -18 -7c-6 0 -10 3 -15 9l-10 12c-6 8 -6 13 3 22c20 20 41 48 41 72c0 30 -41 52 -41 88c0 39 31 67 69 67
c43 0 72 -43 72 -84z" />
    <glyph glyph-name="less" unicode="&#x3c;" horiz-adv-x="523" 
d="M53 256v30c0 14 4 21 17 29l330 204c13 8 22 8 29 -4l35 -59c7 -12 7 -18 -6 -26l-252 -159l252 -159c13 -8 13 -14 6 -26l-35 -59c-7 -12 -16 -12 -29 -4l-330 204c-13 8 -17 15 -17 29z" />
    <glyph glyph-name="equal" unicode="=" horiz-adv-x="523" 
d="M460 311h-398c-19 0 -24 9 -24 25v56c0 17 5 24 23 24h398c20 0 26 -7 26 -25v-53c0 -19 -6 -27 -25 -27zM460 119h-398c-19 0 -24 9 -24 25v56c0 17 5 24 23 24h398c20 0 26 -7 26 -25v-53c0 -19 -6 -27 -25 -27z" />
    <glyph glyph-name="greater" unicode="&#x3e;" horiz-adv-x="523" 
d="M469 286v-30c0 -14 -4 -21 -17 -29l-330 -204c-13 -8 -22 -8 -29 4l-35 59c-7 12 -7 18 6 26l252 159l-252 159c-13 8 -13 14 -6 26l35 59c7 12 16 12 29 4l330 -204c13 -8 17 -15 17 -29z" />
    <glyph glyph-name="question" unicode="?" horiz-adv-x="440" 
d="M404 536c0 -54 -28 -103 -66 -143l-73 -77c-24 -25 -41 -46 -43 -94c0 -11 1 -32 1 -38c0 -11 -5 -15 -15 -15h-64c-11 0 -16 3 -19 15c-4 18 -7 38 -7 59c0 47 17 82 51 117l71 73c20 21 49 55 49 91c0 64 -48 85 -97 85c-30 0 -73 -12 -104 -29c-13 -7 -18 -2 -21 6
l-20 54c-3 9 -4 17 7 23c50 28 109 42 162 42c100 0 188 -63 188 -169zM245 52c0 -40 -35 -64 -67 -64s-68 22 -68 63c0 42 34 65 68 65s67 -23 67 -64z" />
    <glyph glyph-name="at" unicode="@" horiz-adv-x="832" 
d="M787 393c0 -111 -75 -243 -197 -243c-46 0 -92 20 -101 72h-1c-28 -40 -66 -63 -111 -63c-82 0 -115 67 -115 142c0 105 70 229 185 229c33 0 68 -18 80 -51l7 28c2 8 6 10 15 10h46c11 0 15 -6 13 -15l-49 -202c-4 -16 -7 -34 -7 -51c0 -26 12 -46 41 -46
c59 -1 117 73 117 189c0 151 -105 233 -252 233c-172 0 -295 -143 -295 -314c0 -163 107 -248 264 -248c57 0 118 11 172 32c10 4 15 3 19 -7l14 -37c4 -10 4 -15 -8 -21c-60 -30 -133 -42 -207 -42c-202 0 -368 109 -368 320c0 230 184 397 410 397
c187 0 328 -120 328 -312zM477 293l28 120c-6 22 -20 46 -50 46c-66 0 -93 -107 -93 -156c0 -28 11 -63 44 -63c34 0 55 23 71 53z" />
    <glyph glyph-name="A" unicode="A" horiz-adv-x="643" 
d="M9 25l244 647c5 12 12 20 27 20h80c15 0 24 -7 28 -18l246 -648c5 -14 0 -26 -15 -26h-91c-21 0 -28 8 -34 24l-52 147h-253l-52 -150c-4 -13 -11 -21 -27 -21h-86c-16 0 -20 11 -15 25zM223 268h185l-71 211l-20 65h-2l-21 -66z" />
    <glyph glyph-name="B" unicode="B" horiz-adv-x="598" 
d="M557 202c0 -162 -131 -202 -273 -202h-186c-21 0 -26 8 -26 29v637c0 21 9 26 30 26h150c161 0 251 -49 251 -169c0 -70 -40 -131 -113 -147v-1c95 -7 167 -72 167 -173zM426 206c0 47 -21 77 -53 93c-31 15 -65 18 -107 18h-66v-218h74c35 0 69 3 94 13
c35 15 58 46 58 94zM377 508c0 65 -51 86 -121 86h-56v-186h52c73 0 125 19 125 100z" />
    <glyph glyph-name="C" unicode="C" horiz-adv-x="596" 
d="M549 119l22 -59c6 -15 2 -24 -14 -31c-66 -27 -126 -41 -199 -41c-211 0 -314 149 -314 355c0 205 123 362 324 362c69 0 131 -14 188 -42c16 -8 19 -13 13 -30l-23 -63c-4 -12 -12 -16 -25 -9c-50 26 -95 36 -145 36c-139 0 -193 -128 -193 -249
c0 -154 72 -252 195 -252c48 0 97 11 144 32c13 6 21 6 27 -9z" />
    <glyph glyph-name="D" unicode="D" horiz-adv-x="692" 
d="M649 343c0 -120 -41 -210 -109 -268c-62 -52 -149 -75 -248 -75h-191c-20 0 -29 5 -29 28v634c0 21 6 30 31 30h144c115 0 193 -13 259 -51c90 -52 143 -150 143 -298zM511 344c0 91 -27 160 -78 198c-41 30 -94 41 -158 41h-73v-475h77c69 0 127 11 169 53
c40 40 63 100 63 183z" />
    <glyph glyph-name="E" unicode="E" horiz-adv-x="538" 
d="M458 385v-59c0 -14 -5 -22 -24 -22h-232v-200h268c17 0 25 -7 25 -23v-57c0 -16 -7 -24 -24 -24h-371c-20 0 -27 5 -27 27v640c0 16 7 25 23 25h377c20 0 23 -9 21 -23l-7 -60c-2 -18 -13 -21 -34 -21h-251v-181h232c19 0 24 -8 24 -22z" />
    <glyph glyph-name="F" unicode="F" horiz-adv-x="532" 
d="M96 692h375c19 0 25 -8 23 -23l-7 -60c-2 -18 -11 -21 -30 -21h-255v-181h231c19 0 25 -8 25 -22v-57c0 -17 -7 -24 -24 -24h-232v-279c0 -18 -7 -25 -24 -25h-78c-20 0 -27 5 -27 27v640c0 16 7 25 23 25z" />
    <glyph glyph-name="G" unicode="G" horiz-adv-x="679" 
d="M617 384v-312c0 -20 -5 -28 -24 -38c-55 -28 -148 -46 -224 -46c-208 0 -326 144 -326 356c0 209 135 361 339 361c64 0 123 -11 183 -38c18 -8 16 -18 11 -30l-24 -62c-5 -13 -14 -14 -28 -8c-33 14 -90 29 -136 29c-54 0 -106 -20 -141 -57c-42 -44 -66 -109 -66 -191
c0 -155 73 -252 193 -252c41 0 86 6 113 17v191h-89c-14 0 -22 5 -22 22v61c0 16 8 20 23 20h194c17 0 24 -5 24 -23z" />
    <glyph glyph-name="H" unicode="H" horiz-adv-x="689" 
d="M616 668v-643c0 -18 -7 -25 -24 -25h-79c-18 0 -26 7 -26 25v279h-284v-279c0 -18 -8 -25 -25 -25h-78c-18 0 -27 7 -27 25v643c0 17 11 24 27 24h78c16 0 25 -6 25 -24v-261h284v261c0 17 10 24 26 24h79c16 0 24 -6 24 -24z" />
    <glyph glyph-name="I" unicode="I" horiz-adv-x="402" 
d="M342 673v-44c0 -16 -7 -21 -21 -21h-57v-524h55c14 0 21 -9 21 -21v-43c0 -12 -5 -20 -18 -20h-240c-13 0 -20 7 -20 19v45c0 14 6 20 20 20h54v524h-58c-14 0 -20 7 -20 20v44c0 11 6 20 18 20h245c14 0 21 -9 21 -19z" />
    <glyph glyph-name="J" unicode="J" horiz-adv-x="419" 
d="M345 669v-440c0 -91 -19 -160 -70 -200c-39 -30 -93 -41 -146 -41c-24 0 -52 3 -72 8c-14 4 -18 9 -15 25l10 57c3 15 9 18 24 15c13 -3 32 -6 51 -6c26 0 52 6 69 27c14 19 21 50 21 93v401h-113c-16 0 -21 10 -21 22v41c0 14 7 21 21 21h217c15 0 24 -9 24 -23z" />
    <glyph glyph-name="K" unicode="K" horiz-adv-x="596" 
d="M563 0h-95c-24 0 -35 8 -48 25l-216 277h-2v-277c0 -18 -7 -25 -24 -25h-80c-18 0 -25 7 -25 25v643c0 17 9 24 25 24h80c16 0 24 -6 24 -24v-283h2l206 289c10 13 19 18 37 18h77c15 0 18 -7 18 -13s-3 -12 -8 -19l-225 -302l261 -321c10 -12 12 -18 12 -24
s-4 -13 -19 -13z" />
    <glyph glyph-name="L" unicode="L" horiz-adv-x="493" 
d="M479 84v-60c0 -18 -9 -24 -24 -24h-354c-18 0 -28 6 -28 28v639c0 16 8 25 24 25h80c18 0 25 -7 25 -26v-559h253c17 0 24 -8 24 -23z" />
    <glyph glyph-name="M" unicode="M" horiz-adv-x="873" 
d="M72 26l25 643c1 17 8 23 24 23h59c20 0 27 -7 34 -22l231 -494h2l211 494c7 16 14 22 32 22h59c16 0 22 -6 23 -22l30 -643c1 -17 -4 -27 -23 -27h-81c-21 0 -25 8 -26 33l-14 406h-2l-170 -421c-6 -15 -13 -18 -27 -18h-35c-16 0 -24 3 -31 19l-189 420h-2l-9 -414
c0 -22 -9 -25 -27 -25h-68c-19 0 -27 7 -26 26z" />
    <glyph glyph-name="N" unicode="N" horiz-adv-x="727" 
d="M556 692h73c18 0 26 -7 26 -26v-639c0 -22 -9 -27 -24 -27h-64c-19 0 -30 6 -41 21l-326 446h-2v-441c0 -19 -9 -26 -26 -26h-72c-19 0 -27 5 -27 25v640c0 21 9 27 27 27h65c16 0 24 -5 34 -19l329 -452h2v445c0 19 9 26 26 26z" />
    <glyph glyph-name="O" unicode="O" horiz-adv-x="695" 
d="M652 350c0 -226 -129 -362 -308 -362c-191 0 -301 139 -301 356c0 215 120 361 308 361c198 0 301 -150 301 -355zM514 347c0 168 -59 249 -166 249c-100 0 -167 -93 -167 -249c0 -166 61 -250 167 -250c99 0 166 87 166 250z" />
    <glyph glyph-name="P" unicode="P" horiz-adv-x="556" 
d="M526 474c0 -79 -30 -137 -79 -176c-51 -39 -117 -55 -200 -55h-45v-219c0 -15 -6 -24 -25 -24h-80c-16 0 -24 7 -24 27v638c0 20 6 27 25 27h145c106 0 184 -20 233 -76c32 -37 50 -88 50 -142zM396 469c0 91 -56 123 -142 123h-52v-250h27c58 0 106 4 137 37
c19 21 30 51 30 90z" />
    <glyph glyph-name="Q" unicode="Q" horiz-adv-x="689" 
d="M359 -10c-15 0 -29 0 -43 1c-182 11 -273 161 -273 352c0 200 109 362 308 362c206 0 301 -162 301 -355c0 -138 -50 -256 -149 -317c36 -20 86 -40 141 -56c25 -7 27 -17 21 -35l-18 -53c-7 -19 -15 -23 -56 -10c-60 19 -111 57 -151 83c-26 17 -43 28 -81 28zM514 347
c0 150 -49 249 -166 249c-109 0 -167 -109 -167 -249c0 -148 50 -252 167 -252c110 0 166 107 166 252z" />
    <glyph glyph-name="R" unicode="R" horiz-adv-x="592" 
d="M399 279l161 -249c11 -18 9 -30 -10 -30h-89c-21 0 -29 5 -38 20l-144 235h-77v-230c0 -15 -6 -25 -23 -25h-82c-17 0 -24 8 -24 25v638c0 22 5 29 27 29h148c87 0 179 -13 232 -74c32 -37 48 -86 48 -140c0 -92 -49 -164 -129 -199zM397 476c0 87 -58 118 -145 118h-50
v-242h62c80 0 133 43 133 124z" />
    <glyph glyph-name="S" unicode="S" horiz-adv-x="540" 
d="M500 202c0 -139 -113 -214 -243 -214c-60 0 -131 11 -191 32c-18 7 -20 17 -15 32l21 65c5 17 16 19 33 13c47 -17 99 -30 149 -30c54 0 115 26 115 89c0 46 -34 71 -73 90l-130 65c-71 35 -118 94 -118 172c0 122 120 189 231 189c66 0 121 -10 179 -35
c19 -8 24 -16 17 -33l-24 -61c-6 -17 -17 -18 -33 -11c-42 18 -92 31 -132 31c-47 0 -101 -20 -101 -76c0 -41 38 -65 71 -81l111 -54c79 -38 133 -91 133 -183z" />
    <glyph glyph-name="T" unicode="T" horiz-adv-x="575" 
d="M223 25v563h-187c-17 0 -23 7 -23 24v59c0 15 7 21 22 21h507c25 0 32 -6 30 -25l-7 -58c-2 -16 -11 -21 -31 -21h-181v-563c0 -18 -7 -25 -24 -25h-81c-18 0 -25 7 -25 25z" />
    <glyph glyph-name="U" unicode="U" horiz-adv-x="720" 
d="M650 668v-361c0 -206 -97 -319 -292 -319c-211 0 -288 116 -288 321v359c0 17 10 24 26 24h79c17 0 24 -7 24 -24v-348c0 -147 38 -223 164 -223c121 0 159 80 159 223v348c0 17 9 24 25 24h79c17 0 24 -7 24 -24z" />
    <glyph glyph-name="V" unicode="V" horiz-adv-x="652" 
d="M38 692h87c21 0 30 -5 36 -21l177 -494h3l167 491c6 18 13 24 37 24h69c18 0 24 -10 18 -27l-234 -643c-6 -15 -12 -22 -31 -22h-66c-19 0 -29 8 -35 25l-245 637c-7 18 -1 30 17 30z" />
    <glyph glyph-name="W" unicode="W" horiz-adv-x="940" 
d="M919 662l-185 -635c-6 -21 -14 -27 -35 -27h-62c-20 0 -29 7 -34 26l-130 458h-2l-130 -455c-7 -23 -16 -29 -37 -29h-57c-23 0 -30 7 -37 30l-191 632c-6 21 0 30 21 30h91c21 0 29 -7 34 -25l122 -461h1l127 464c5 17 12 22 30 22h65c20 0 26 -6 30 -21l127 -465h2
l121 463c5 18 11 23 31 23h78c19 0 26 -8 20 -30z" />
    <glyph glyph-name="X" unicode="X" horiz-adv-x="606" 
d="M371 366l214 -337c10 -16 3 -29 -15 -29h-95c-19 0 -30 7 -39 22l-138 233h-1l-138 -233c-9 -16 -19 -22 -40 -22h-83c-18 0 -22 13 -13 28l207 328l-193 309c-8 13 -4 27 13 27h96c15 0 27 -7 36 -22l123 -207h1l126 210c9 15 16 19 34 19h90c17 0 21 -14 12 -27z" />
    <glyph glyph-name="Y" unicode="Y" horiz-adv-x="592" 
d="M306 390h2l142 281c8 16 16 21 35 21h73c18 0 22 -10 14 -25l-206 -381v-263c0 -15 -8 -23 -23 -23h-84c-15 0 -23 7 -23 25v256l-217 387c-6 11 -3 24 15 24h93c18 0 28 -5 35 -19z" />
    <glyph glyph-name="Z" unicode="Z" horiz-adv-x="585" 
d="M556 81v-57c0 -16 -7 -24 -25 -24h-484c-13 0 -19 9 -19 21v31c0 12 2 20 10 32l331 503v1h-293c-18 0 -25 6 -25 23v61c0 13 6 20 20 20h447c18 0 24 -9 24 -22v-24c0 -15 -2 -28 -12 -43l-329 -498v-1h332c15 0 23 -5 23 -23z" />
    <glyph glyph-name="bracketleft" unicode="[" horiz-adv-x="335" 
d="M320 -70v-51c0 -17 -4 -22 -25 -22h-186c-22 0 -27 5 -27 28v791c0 24 8 29 27 29h183c22 0 28 -4 28 -23v-51c0 -15 -4 -21 -23 -21h-94v-659h92c21 0 25 -4 25 -21z" />
    <glyph glyph-name="backslash" unicode="\" horiz-adv-x="336" 
d="M218 8l-210 673c-5 17 0 24 15 24h68c17 0 22 -4 27 -20l210 -673c5 -17 0 -24 -15 -24h-68c-17 0 -22 4 -27 20z" />
    <glyph glyph-name="bracketright" unicode="]" horiz-adv-x="334" 
d="M252 677v-791c0 -25 -7 -29 -26 -29h-184c-23 0 -27 4 -27 23v51c0 16 5 21 24 21h92v659h-91c-22 0 -25 4 -25 21v51c0 17 3 22 25 22h186c22 0 26 -5 26 -28z" />
    <glyph glyph-name="asciicircum" unicode="^" horiz-adv-x="523" 
d="M254 692h14c13 0 19 -5 28 -17l188 -270c12 -17 9 -25 -4 -34l-55 -38c-12 -8 -20 -6 -30 9l-134 201l-134 -201c-10 -15 -18 -17 -30 -9l-55 38c-13 9 -16 17 -4 34l188 270c9 12 15 17 28 17z" />
    <glyph glyph-name="underscore" unicode="_" horiz-adv-x="500" 
d="M500 -101v-20c0 -15 -3 -19 -17 -19h-463c-17 0 -20 4 -20 15v26c0 12 4 15 17 15h463c18 0 20 -3 20 -17z" />
    <glyph glyph-name="grave" unicode="`" horiz-adv-x="344" 
d="M129 712l137 -97c15 -10 15 -17 5 -32l-17 -25c-10 -14 -17 -15 -32 -7l-152 84c-13 7 -14 16 -6 28l30 45c10 15 19 16 35 4z" />
    <glyph glyph-name="a" unicode="a" horiz-adv-x="558" 
d="M534 66v-47c0 -12 -8 -19 -20 -19h-48c-52 0 -75 25 -82 59h-2c-30 -40 -88 -71 -145 -71c-141 0 -205 116 -205 246c0 173 104 264 216 264c53 0 103 -24 128 -58l2 27c1 11 9 18 21 18h70c13 0 21 -7 21 -22v-353c0 -18 4 -27 18 -27h8c12 0 18 -4 18 -17zM369 155v193
c-20 29 -61 51 -99 51c-61 0 -113 -52 -113 -157c0 -84 32 -155 106 -155c49 0 91 37 106 68z" />
    <glyph glyph-name="b" unicode="b" horiz-adv-x="554" 
d="M520 242c0 -138 -75 -254 -211 -254c-54 0 -99 18 -136 57l-4 -33c-1 -9 -8 -12 -21 -12h-61c-17 0 -24 7 -24 25v652c0 16 4 25 20 27l81 11c11 1 20 -2 20 -18v-248c32 28 80 49 132 49c55 0 96 -18 128 -47c53 -47 76 -125 76 -209zM395 241c0 81 -25 155 -108 155
c-37 0 -76 -20 -103 -45v-214c27 -31 61 -49 98 -49c87 0 113 75 113 153z" />
    <glyph glyph-name="c" unicode="c" horiz-adv-x="447" 
d="M285 82c43 0 70 8 105 22c11 4 19 2 22 -8l14 -49c4 -15 3 -22 -12 -29c-48 -22 -92 -30 -145 -30c-154 0 -239 96 -239 250c0 155 93 260 248 260c45 0 92 -9 134 -28c13 -6 13 -13 10 -26l-13 -54c-3 -11 -10 -15 -23 -9c-29 13 -61 22 -96 22
c-86 0 -135 -61 -135 -159c0 -96 44 -162 130 -162z" />
    <glyph glyph-name="d" unicode="d" horiz-adv-x="557" 
d="M494 697v-672c0 -17 -10 -25 -22 -25h-65c-16 0 -23 8 -24 20l-2 27c-28 -32 -84 -59 -136 -59c-145 0 -211 115 -211 249c0 140 78 261 219 261c45 0 92 -18 120 -47v226c0 16 4 25 20 27l81 11c11 1 20 -2 20 -18zM373 136v216c-20 27 -58 49 -96 49
c-81 0 -117 -75 -117 -157s30 -158 111 -158c37 0 82 25 102 50z" />
    <glyph glyph-name="e" unicode="e" horiz-adv-x="515" 
d="M304 85c42 0 84 9 123 24c16 6 22 2 25 -9l14 -51c4 -13 2 -22 -14 -29c-49 -22 -116 -32 -168 -32c-157 0 -250 100 -250 256c0 150 99 254 248 254c61 0 111 -23 146 -60c46 -48 59 -111 59 -179v-15c0 -24 -8 -29 -33 -29h-293c8 -77 64 -130 143 -130zM163 294h205
v11c-2 52 -32 100 -93 100c-65 0 -104 -52 -112 -111z" />
    <glyph glyph-name="f" unicode="f" horiz-adv-x="364" 
d="M269 728c33 0 77 -8 106 -21c15 -7 15 -17 11 -36l-8 -42c-3 -15 -10 -17 -23 -13c-21 7 -44 13 -68 13c-60 0 -73 -40 -73 -98v-46h111c12 0 20 -4 20 -17v-47c0 -13 -8 -19 -20 -19h-111v-374c0 -18 -6 -28 -25 -28h-72c-17 0 -24 9 -24 26v376h-54c-18 0 -21 4 -21 25
v38c0 12 6 20 19 20h56v27c0 33 3 59 7 81c16 84 69 135 169 135z" />
    <glyph glyph-name="g" unicode="g" horiz-adv-x="558" 
d="M495 461v-428c0 -162 -69 -252 -237 -252c-49 0 -100 10 -148 31c-16 7 -19 15 -14 31l16 48c5 16 12 19 29 12c36 -15 77 -26 112 -26c100 0 121 53 121 133v40c-30 -29 -86 -51 -130 -51c-62 0 -112 20 -147 57c-42 43 -63 108 -63 181c0 134 78 261 223 261
c45 0 94 -18 123 -56l2 25c1 13 8 18 23 18h66c18 0 24 -7 24 -24zM374 145v207c-20 27 -59 49 -97 49c-31 0 -56 -12 -74 -29c-31 -30 -43 -82 -43 -128c0 -44 10 -91 40 -120c18 -18 44 -27 71 -27c39 0 83 23 103 48z" />
    <glyph glyph-name="h" unicode="h" horiz-adv-x="563" 
d="M379 25v273c0 54 -15 94 -75 94c-39 0 -89 -21 -120 -48v-319c0 -18 -8 -25 -25 -25h-70c-18 0 -26 7 -26 25v652c0 16 4 25 20 27l81 11c11 1 20 -2 20 -18v-253c42 35 105 54 158 54c112 0 158 -71 158 -179v-294c0 -18 -8 -25 -25 -25h-70c-18 0 -26 7 -26 25z" />
    <glyph glyph-name="i" unicode="i" horiz-adv-x="261" 
d="M198 612c0 -39 -34 -63 -67 -63s-68 22 -68 62s33 64 68 64c34 0 67 -23 67 -63zM192 462v-437c0 -18 -8 -25 -25 -25h-70c-18 0 -26 7 -26 25v437c0 17 10 23 26 23h70c16 0 25 -5 25 -23z" />
    <glyph glyph-name="j" unicode="j" horiz-adv-x="284" 
d="M221 611c0 -40 -34 -63 -67 -63s-67 22 -67 62c0 41 32 65 67 65c34 0 67 -24 67 -64zM213 463v-440c0 -91 -19 -157 -66 -197c-34 -29 -78 -44 -146 -44c-19 0 -45 2 -67 7c-16 4 -18 13 -16 25l10 56c2 11 7 14 16 13c12 -1 25 -3 37 -3c36 0 79 15 97 49
c9 18 14 44 14 77v457c0 15 10 22 24 22h74c15 0 23 -6 23 -22z" />
    <glyph glyph-name="k" unicode="k" horiz-adv-x="484" 
d="M63 25v652c0 16 4 25 20 27l81 11c11 1 20 -2 20 -18v-406h2l131 180c8 11 14 14 27 14h88c15 0 18 -10 10 -21l-143 -180l164 -257c10 -16 7 -27 -9 -27h-91c-18 0 -30 5 -40 21l-128 210l-11 -10v-196c0 -18 -8 -25 -25 -25h-70c-18 0 -26 7 -26 25z" />
    <glyph glyph-name="l" unicode="l" horiz-adv-x="247" 
d="M184 697v-672c0 -17 -8 -25 -22 -25h-76c-14 0 -23 7 -23 24v653c0 16 4 25 20 27l81 11c11 1 20 -2 20 -18z" />
    <glyph glyph-name="m" unicode="m" horiz-adv-x="850" 
d="M787 278v-253c0 -18 -7 -25 -24 -25h-70c-18 0 -26 7 -26 25v274c0 54 -14 95 -75 95c-38 0 -82 -20 -113 -45c2 -9 4 -143 4 -157v-167c0 -18 -7 -25 -24 -25h-66c-18 0 -26 7 -26 25v274c0 53 -11 95 -72 95c-39 0 -79 -22 -111 -50v-319c0 -18 -8 -25 -25 -25h-70
c-18 0 -26 7 -26 25v437c0 16 9 23 24 23h65c15 0 24 -5 25 -19l1 -25c41 36 95 57 147 57c61 0 104 -27 127 -65c45 43 110 65 171 65c73 0 119 -36 140 -75c19 -37 24 -81 24 -145z" />
    <glyph glyph-name="n" unicode="n" horiz-adv-x="561" 
d="M498 319v-293c0 -17 -6 -26 -24 -26h-72c-18 0 -24 9 -24 26v272c0 55 -15 94 -76 94c-39 0 -87 -21 -118 -48v-319c0 -17 -7 -25 -24 -25h-73c-15 0 -24 8 -24 24v436c0 16 7 25 25 25h65c14 0 23 -4 24 -19l1 -26c46 37 104 58 162 58c112 0 158 -70 158 -179z" />
    <glyph glyph-name="o" unicode="o" horiz-adv-x="550" 
d="M516 243c0 -144 -88 -255 -244 -255c-163 0 -238 110 -238 256c0 144 88 254 244 254c163 0 238 -108 238 -255zM391 243c0 82 -26 160 -114 160c-89 0 -118 -77 -118 -157c0 -82 25 -163 114 -163c88 0 118 78 118 160z" />
    <glyph glyph-name="p" unicode="p" horiz-adv-x="557" 
d="M523 250c0 -76 -23 -145 -65 -194c-37 -42 -89 -68 -154 -68c-46 0 -92 17 -121 47v-225c0 -20 -9 -26 -26 -26h-70c-16 0 -24 9 -24 26v652c0 17 8 23 24 23h60c17 0 26 -4 27 -19l1 -26c29 33 86 58 140 58c66 0 112 -25 145 -61c43 -47 63 -117 63 -187zM397 244
c0 47 -9 88 -29 116c-19 27 -47 41 -82 41c-37 0 -83 -24 -103 -49v-218c20 -27 60 -49 98 -49c35 0 63 16 80 37c25 31 36 73 36 122z" />
    <glyph glyph-name="q" unicode="q" horiz-adv-x="555" 
d="M492 461v-651c0 -18 -6 -26 -23 -26h-73c-16 0 -25 7 -25 23v232c-31 -30 -80 -51 -127 -51c-54 0 -94 14 -127 41c-57 47 -83 128 -83 214c0 79 25 153 74 200c38 36 86 55 143 55c44 0 99 -18 130 -53l2 24c1 11 7 16 23 16h62c18 0 24 -8 24 -24zM371 137v210
c-23 28 -64 52 -101 52c-87 0 -110 -81 -110 -155c0 -46 9 -91 32 -120c16 -20 40 -34 75 -34c38 0 79 21 104 47z" />
    <glyph glyph-name="r" unicode="r" horiz-adv-x="345" 
d="M299 498c14 0 28 -2 33 -7c4 -4 5 -9 4 -17l-11 -71c-2 -13 -9 -16 -20 -14c-6 1 -13 2 -25 2c-34 0 -71 -18 -96 -48v-318c0 -16 -7 -25 -24 -25h-73c-16 0 -24 8 -24 25v435c0 20 10 25 25 25h64c16 0 25 -5 25 -19l1 -32c31 39 65 64 121 64z" />
    <glyph glyph-name="s" unicode="s" horiz-adv-x="411" 
d="M386 143c0 -105 -91 -155 -193 -155c-52 0 -109 15 -154 35c-11 5 -15 12 -11 23l18 55c4 12 12 15 24 10c47 -20 91 -31 126 -31c44 0 74 20 74 53c0 28 -19 43 -60 59l-79 30c-57 21 -103 65 -103 133c0 98 92 143 181 143c48 0 96 -8 145 -30c13 -6 13 -12 10 -24
l-17 -54c-4 -12 -14 -13 -24 -9c-34 13 -76 24 -108 24c-42 0 -63 -23 -63 -46c0 -22 11 -36 49 -51l90 -37c53 -22 95 -63 95 -128z" />
    <glyph glyph-name="t" unicode="t" horiz-adv-x="380" 
d="M207 610v-125h113c12 0 19 -4 19 -17v-47c0 -12 -8 -19 -20 -19h-112v-229c0 -30 2 -52 13 -68c9 -13 23 -21 47 -21c25 0 46 6 64 12c10 3 20 4 23 -10l10 -50c3 -13 -2 -20 -14 -25c-31 -13 -72 -23 -112 -23c-51 0 -95 13 -120 42c-31 35 -32 76 -32 149v223h-47
c-19 0 -22 4 -22 25v38c0 12 6 20 18 20h51v105c0 16 4 25 20 27l81 11c11 1 20 -2 20 -18z" />
    <glyph glyph-name="u" unicode="u" horiz-adv-x="557" 
d="M495 462v-434c0 -21 -6 -28 -26 -28h-64c-13 0 -23 7 -24 20l-1 25c-46 -37 -101 -57 -159 -57c-112 0 -158 71 -158 179v295c0 17 10 23 26 23h70c16 0 25 -5 25 -23v-274c0 -55 14 -93 74 -93c38 0 86 21 116 48v319c0 17 9 23 25 23h71c16 0 25 -5 25 -23z" />
    <glyph glyph-name="v" unicode="v" horiz-adv-x="484" 
d="M453 485c20 0 24 -8 18 -24l-175 -442c-6 -15 -14 -19 -29 -19h-52c-15 0 -25 4 -30 18l-172 446c-5 13 -1 21 16 21h88c17 0 25 -7 29 -20l76 -233c10 -30 19 -63 25 -85h1c5 19 15 54 24 82l78 235c5 17 13 21 31 21h72z" />
    <glyph glyph-name="w" unicode="w" horiz-adv-x="719" 
d="M614 485h76c14 0 20 -6 15 -21l-134 -440c-5 -15 -13 -24 -31 -24h-66c-20 0 -28 9 -33 25l-83 285h-2l-82 -287c-5 -16 -14 -23 -32 -23h-67c-16 0 -27 10 -31 24l-131 440c-4 13 1 21 19 21h82c19 0 25 -7 28 -19l72 -316h1l93 315c4 15 14 20 27 20h56
c15 0 24 -5 27 -17l91 -320h1l75 315c3 14 11 22 29 22z" />
    <glyph glyph-name="x" unicode="x" horiz-adv-x="504" 
d="M15 22l172 229l-147 210c-7 10 -4 24 10 24h102c15 0 23 -4 31 -16l79 -126h1l82 125c9 13 16 17 29 17h87c15 0 17 -12 10 -22l-152 -198l169 -241c8 -11 4 -24 -12 -24h-102c-20 0 -28 6 -35 18l-94 153h-1l-96 -151c-9 -14 -19 -20 -38 -20h-85c-14 0 -18 12 -10 22z
" />
    <glyph glyph-name="y" unicode="y" horiz-adv-x="514" 
d="M404 485h81c15 0 20 -9 14 -24l-197 -518c-45 -119 -101 -161 -221 -161c-19 0 -39 1 -53 5c-16 5 -16 13 -14 26l7 52c2 13 7 18 18 18c10 0 28 -3 40 -3c62 0 88 22 108 69l19 45l-182 469c-5 12 -1 22 13 22h94c17 0 24 -7 28 -20l110 -328l105 325c5 16 13 23 30 23z
" />
    <glyph glyph-name="z" unicode="z" horiz-adv-x="430" 
d="M406 66v-47c0 -12 -7 -19 -19 -19h-339c-18 0 -24 10 -24 24v25c0 14 1 21 10 34l216 318v1h-185c-19 0 -23 5 -23 26v36c0 13 6 21 19 21h316c19 0 23 -10 23 -21v-28c0 -12 -2 -22 -10 -33l-220 -318v-2h216c12 0 20 -4 20 -17z" />
    <glyph glyph-name="braceleft" unicode="{" horiz-adv-x="358" 
d="M26 263v42c0 11 1 15 19 17c43 5 62 39 63 103l3 142c2 94 63 145 146 145h73c17 0 19 -7 17 -18l-9 -42c-3 -12 -7 -15 -22 -15h-22c-46 0 -60 -19 -61 -75l-3 -129c-3 -107 -62 -145 -105 -148v-2c43 -3 102 -41 105 -148l3 -128c1 -56 15 -75 61 -75h22
c15 0 19 -3 22 -15l9 -42c2 -11 0 -18 -17 -18h-73c-83 0 -144 51 -146 145l-3 141c-1 64 -20 98 -63 103c-18 2 -19 6 -19 17z" />
    <glyph glyph-name="bar" unicode="|" horiz-adv-x="230" 
d="M170 694v-692c0 -19 -3 -24 -23 -24h-59c-18 0 -28 5 -28 23v692c0 16 7 22 20 22h66c16 0 24 -6 24 -21z" />
    <glyph glyph-name="braceright" unicode="}" horiz-adv-x="358" 
d="M332 305v-42c0 -11 -1 -15 -19 -17c-43 -5 -62 -39 -63 -103l-3 -141c-2 -94 -63 -145 -146 -145h-73c-17 0 -19 7 -17 18l9 42c3 12 7 15 22 15h22c46 0 60 19 61 75l3 128c3 107 62 145 105 148v2c-43 3 -102 41 -105 148l-3 129c-1 56 -15 75 -61 75h-22
c-15 0 -19 3 -22 15l-9 42c-2 11 0 18 17 18h73c83 0 144 -51 146 -145l3 -142c1 -64 20 -98 63 -103c18 -2 19 -6 19 -17z" />
    <glyph glyph-name="asciitilde" unicode="~" horiz-adv-x="523" 
d="M475 271c-49 -36 -97 -62 -140 -62c-58 0 -110 54 -158 54c-26 0 -56 -14 -85 -33c-14 -8 -25 -5 -34 9l-18 28c-13 20 -13 33 7 47c52 36 97 62 140 62c58 0 110 -54 158 -54c26 0 56 13 85 33c13 9 25 5 34 -9l18 -28c13 -20 13 -33 -7 -47z" />
    <glyph glyph-name="Adieresis" unicode="&#xc4;" horiz-adv-x="643" 
d="M9 25l244 647c5 12 12 20 27 20h80c15 0 24 -7 28 -18l246 -648c5 -14 0 -26 -15 -26h-91c-21 0 -28 8 -34 24l-52 147h-253l-52 -150c-4 -13 -11 -21 -27 -21h-86c-16 0 -20 11 -15 25zM223 268h185l-71 211l-20 65h-2l-21 -66zM291 833c0 -37 -33 -58 -61 -58
c-29 0 -62 20 -62 57c0 38 30 59 62 59c30 0 61 -21 61 -58zM474 833c0 -37 -33 -58 -61 -58c-29 0 -62 20 -62 57c0 38 30 59 62 59c30 0 61 -21 61 -58z" />
    <glyph glyph-name="Aring" unicode="&#xc5;" horiz-adv-x="643" 
d="M9 25l244 647c5 12 12 20 27 20h80c15 0 24 -7 28 -18l246 -648c5 -14 0 -26 -15 -26h-91c-21 0 -28 8 -34 24l-52 147h-253l-52 -150c-4 -13 -11 -21 -27 -21h-86c-16 0 -20 11 -15 25zM223 268h185l-71 211l-20 65h-2l-21 -66zM322 798c16 0 26 12 26 27s-10 27 -26 27
s-26 -12 -26 -27s10 -27 26 -27zM322 745c-47 0 -82 34 -82 80s35 80 82 80s82 -34 82 -80s-35 -80 -82 -80z" />
    <glyph glyph-name="Ccedilla" unicode="&#xc7;" horiz-adv-x="596" 
d="M479 -129c0 -50 -46 -87 -115 -87c-25 0 -51 5 -73 14c-12 5 -15 9 -13 19l7 32c2 7 5 11 21 6s38 -9 50 -9c22 0 41 9 41 26c0 16 -7 26 -49 26h-14c-34 0 -37 9 -35 31l7 63c-176 22 -262 163 -262 351c0 205 123 362 324 362c69 0 131 -14 188 -42
c16 -8 19 -13 13 -30l-23 -63c-4 -12 -12 -16 -25 -9c-50 26 -95 36 -145 36c-139 0 -193 -128 -193 -249c0 -154 72 -252 195 -252c48 0 97 11 144 32c13 6 21 6 27 -9l22 -59c6 -15 2 -24 -14 -31c-63 -26 -120 -39 -187 -41l-2 -32h8c65 0 103 -29 103 -85z" />
    <glyph glyph-name="Eacute" unicode="&#xc9;" horiz-adv-x="538" 
d="M458 385v-59c0 -14 -5 -22 -24 -22h-232v-200h268c17 0 25 -7 25 -23v-57c0 -16 -7 -24 -24 -24h-371c-20 0 -27 5 -27 27v640c0 16 7 25 23 25h377c20 0 23 -9 21 -23l-7 -60c-2 -18 -13 -21 -34 -21h-251v-181h232c19 0 24 -8 24 -22zM197 815l137 97
c16 12 25 11 35 -4l30 -45c8 -12 7 -21 -6 -28l-152 -84c-15 -8 -22 -7 -32 7l-17 25c-10 15 -10 22 5 32z" />
    <glyph glyph-name="Ntilde" unicode="&#xd1;" horiz-adv-x="727" 
d="M556 692h73c18 0 26 -7 26 -26v-639c0 -22 -9 -27 -24 -27h-64c-19 0 -30 6 -41 21l-326 446h-2v-441c0 -19 -9 -26 -26 -26h-72c-19 0 -27 5 -27 25v640c0 21 9 27 27 27h65c16 0 24 -5 34 -19l329 -452h2v445c0 19 9 26 26 26zM480 867c15 9 22 8 28 -4l16 -32
c6 -12 4 -20 -10 -29c-27 -18 -61 -33 -91 -33c-49 0 -86 35 -119 35c-19 0 -37 -7 -60 -21c-15 -9 -22 -8 -28 4l-16 32c-6 12 -4 20 10 29c27 18 61 33 91 33c49 0 86 -35 119 -35c19 0 37 7 60 21z" />
    <glyph glyph-name="Odieresis" unicode="&#xd6;" horiz-adv-x="695" 
d="M652 350c0 -226 -129 -362 -308 -362c-191 0 -301 139 -301 356c0 215 120 361 308 361c198 0 301 -150 301 -355zM514 347c0 168 -59 249 -166 249c-100 0 -167 -93 -167 -249c0 -166 61 -250 167 -250c99 0 166 87 166 250zM324 833c0 -37 -33 -58 -61 -58
c-29 0 -62 20 -62 57c0 38 30 59 62 59c30 0 61 -21 61 -58zM507 833c0 -37 -33 -58 -61 -58c-29 0 -62 20 -62 57c0 38 30 59 62 59c30 0 61 -21 61 -58z" />
    <glyph glyph-name="Udieresis" unicode="&#xdc;" horiz-adv-x="720" 
d="M650 668v-361c0 -206 -97 -319 -292 -319c-211 0 -288 116 -288 321v359c0 17 10 24 26 24h79c17 0 24 -7 24 -24v-348c0 -147 38 -223 164 -223c121 0 159 80 159 223v348c0 17 9 24 25 24h79c17 0 24 -7 24 -24zM330 833c0 -37 -33 -58 -61 -58c-29 0 -62 20 -62 57
c0 38 30 59 62 59c30 0 61 -21 61 -58zM513 833c0 -37 -33 -58 -61 -58c-29 0 -62 20 -62 57c0 38 30 59 62 59c30 0 61 -21 61 -58z" />
    <glyph glyph-name="aacute" unicode="&#xe1;" horiz-adv-x="558" 
d="M534 66v-47c0 -12 -8 -19 -20 -19h-48c-52 0 -75 25 -82 59h-2c-30 -40 -88 -71 -145 -71c-141 0 -205 116 -205 246c0 173 104 264 216 264c53 0 103 -24 128 -58l2 27c1 11 9 18 21 18h70c13 0 21 -7 21 -22v-353c0 -18 4 -27 18 -27h8c12 0 18 -4 18 -17zM369 155v193
c-20 29 -61 51 -99 51c-61 0 -113 -52 -113 -157c0 -84 32 -155 106 -155c49 0 91 37 106 68zM187 615l137 97c16 12 25 11 35 -4l30 -45c8 -12 7 -21 -6 -28l-152 -84c-15 -8 -22 -7 -32 7l-17 25c-10 15 -10 22 5 32z" />
    <glyph glyph-name="agrave" unicode="&#xe0;" horiz-adv-x="558" 
d="M534 66v-47c0 -12 -8 -19 -20 -19h-48c-52 0 -75 25 -82 59h-2c-30 -40 -88 -71 -145 -71c-141 0 -205 116 -205 246c0 173 104 264 216 264c53 0 103 -24 128 -58l2 27c1 11 9 18 21 18h70c13 0 21 -7 21 -22v-353c0 -18 4 -27 18 -27h8c12 0 18 -4 18 -17zM369 155v193
c-20 29 -61 51 -99 51c-61 0 -113 -52 -113 -157c0 -84 32 -155 106 -155c49 0 91 37 106 68zM236 712l137 -97c15 -10 15 -17 5 -32l-17 -25c-10 -14 -17 -15 -32 -7l-152 84c-13 7 -14 16 -6 28l30 45c10 15 19 16 35 4z" />
    <glyph glyph-name="acircumflex" unicode="&#xe2;" horiz-adv-x="558" 
d="M534 66v-47c0 -12 -8 -19 -20 -19h-48c-52 0 -75 25 -82 59h-2c-30 -40 -88 -71 -145 -71c-141 0 -205 116 -205 246c0 173 104 264 216 264c53 0 103 -24 128 -58l2 27c1 11 9 18 21 18h70c13 0 21 -7 21 -22v-353c0 -18 4 -27 18 -27h8c12 0 18 -4 18 -17zM369 155v193
c-20 29 -61 51 -99 51c-61 0 -113 -52 -113 -157c0 -84 32 -155 106 -155c49 0 91 37 106 68zM273 705h16c14 0 20 -3 29 -11l100 -91c10 -10 11 -17 2 -26l-17 -18c-10 -10 -17 -11 -35 1l-87 57l-87 -57c-18 -12 -25 -11 -35 -1l-17 18c-9 9 -8 16 2 26l100 91
c9 8 15 11 29 11z" />
    <glyph glyph-name="adieresis" unicode="&#xe4;" horiz-adv-x="558" 
d="M534 66v-47c0 -12 -8 -19 -20 -19h-48c-52 0 -75 25 -82 59h-2c-30 -40 -88 -71 -145 -71c-141 0 -205 116 -205 246c0 173 104 264 216 264c53 0 103 -24 128 -58l2 27c1 11 9 18 21 18h70c13 0 21 -7 21 -22v-353c0 -18 4 -27 18 -27h8c12 0 18 -4 18 -17zM369 155v193
c-20 29 -61 51 -99 51c-61 0 -113 -52 -113 -157c0 -84 32 -155 106 -155c49 0 91 37 106 68zM257 633c0 -37 -33 -58 -61 -58c-29 0 -62 20 -62 57c0 38 30 59 62 59c30 0 61 -21 61 -58zM440 633c0 -37 -33 -58 -61 -58c-29 0 -62 20 -62 57c0 38 30 59 62 59
c30 0 61 -21 61 -58z" />
    <glyph glyph-name="atilde" unicode="&#xe3;" horiz-adv-x="558" 
d="M534 66v-47c0 -12 -8 -19 -20 -19h-48c-52 0 -75 25 -82 59h-2c-30 -40 -88 -71 -145 -71c-141 0 -205 116 -205 246c0 173 104 264 216 264c53 0 103 -24 128 -58l2 27c1 11 9 18 21 18h70c13 0 21 -7 21 -22v-353c0 -18 4 -27 18 -27h8c12 0 18 -4 18 -17zM369 155v193
c-20 29 -61 51 -99 51c-61 0 -113 -52 -113 -157c0 -84 32 -155 106 -155c49 0 91 37 106 68zM399 667c15 9 22 8 28 -4l16 -32c6 -12 4 -20 -10 -29c-27 -18 -61 -33 -91 -33c-49 0 -86 35 -119 35c-19 0 -37 -7 -60 -21c-15 -9 -22 -8 -28 4l-16 32c-6 12 -4 20 10 29
c27 18 61 33 91 33c49 0 86 -35 119 -35c19 0 37 7 60 21z" />
    <glyph glyph-name="aring" unicode="&#xe5;" horiz-adv-x="558" 
d="M534 66v-47c0 -12 -8 -19 -20 -19h-48c-52 0 -75 25 -82 59h-2c-30 -40 -88 -71 -145 -71c-141 0 -205 116 -205 246c0 173 104 264 216 264c53 0 103 -24 128 -58l2 27c1 11 9 18 21 18h70c13 0 21 -7 21 -22v-353c0 -18 4 -27 18 -27h8c12 0 18 -4 18 -17zM369 155v193
c-20 29 -61 51 -99 51c-61 0 -113 -52 -113 -157c0 -84 32 -155 106 -155c49 0 91 37 106 68zM279 598c16 0 26 12 26 27s-10 27 -26 27s-26 -12 -26 -27s10 -27 26 -27zM279 545c-47 0 -82 34 -82 80s35 80 82 80s82 -34 82 -80s-35 -80 -82 -80z" />
    <glyph glyph-name="ccedilla" unicode="&#xe7;" horiz-adv-x="447" 
d="M384 -129c0 -50 -46 -87 -115 -87c-25 0 -51 5 -73 14c-12 5 -15 9 -13 19l7 32c2 7 5 11 21 6s38 -9 50 -9c22 0 41 9 41 26c0 16 -7 26 -49 26h-14c-34 0 -37 9 -35 31l7 64c-117 21 -181 111 -181 245c0 155 93 260 248 260c45 0 92 -9 134 -28c13 -6 13 -13 10 -26
l-13 -54c-3 -11 -10 -15 -23 -9c-29 13 -61 22 -96 22c-86 0 -135 -61 -135 -159c0 -96 44 -162 130 -162c43 0 70 8 105 22c11 4 19 2 22 -8l14 -49c4 -15 3 -22 -12 -29c-46 -21 -89 -29 -139 -30l-2 -32h8c65 0 103 -29 103 -85z" />
    <glyph glyph-name="eacute" unicode="&#xe9;" horiz-adv-x="515" 
d="M304 85c42 0 84 9 123 24c16 6 22 2 25 -9l14 -51c4 -13 2 -22 -14 -29c-49 -22 -116 -32 -168 -32c-157 0 -250 100 -250 256c0 150 99 254 248 254c61 0 111 -23 146 -60c46 -48 59 -111 59 -179v-15c0 -24 -8 -29 -33 -29h-293c8 -77 64 -130 143 -130zM163 294h205
v11c-2 52 -32 100 -93 100c-65 0 -104 -52 -112 -111zM185 615l137 97c16 12 25 11 35 -4l30 -45c8 -12 7 -21 -6 -28l-152 -84c-15 -8 -22 -7 -32 7l-17 25c-10 15 -10 22 5 32z" />
    <glyph glyph-name="egrave" unicode="&#xe8;" horiz-adv-x="515" 
d="M304 85c42 0 84 9 123 24c16 6 22 2 25 -9l14 -51c4 -13 2 -22 -14 -29c-49 -22 -116 -32 -168 -32c-157 0 -250 100 -250 256c0 150 99 254 248 254c61 0 111 -23 146 -60c46 -48 59 -111 59 -179v-15c0 -24 -8 -29 -33 -29h-293c8 -77 64 -130 143 -130zM163 294h205
v11c-2 52 -32 100 -93 100c-65 0 -104 -52 -112 -111zM224 712l137 -97c15 -10 15 -17 5 -32l-17 -25c-10 -14 -17 -15 -32 -7l-152 84c-13 7 -14 16 -6 28l30 45c10 15 19 16 35 4z" />
    <glyph glyph-name="ecircumflex" unicode="&#xea;" horiz-adv-x="515" 
d="M304 85c42 0 84 9 123 24c16 6 22 2 25 -9l14 -51c4 -13 2 -22 -14 -29c-49 -22 -116 -32 -168 -32c-157 0 -250 100 -250 256c0 150 99 254 248 254c61 0 111 -23 146 -60c46 -48 59 -111 59 -179v-15c0 -24 -8 -29 -33 -29h-293c8 -77 64 -130 143 -130zM163 294h205
v11c-2 52 -32 100 -93 100c-65 0 -104 -52 -112 -111zM265 705h16c14 0 20 -3 29 -11l100 -91c10 -10 11 -17 2 -26l-17 -18c-10 -10 -17 -11 -35 1l-87 57l-87 -57c-18 -12 -25 -11 -35 -1l-17 18c-9 9 -8 16 2 26l100 91c9 8 15 11 29 11z" />
    <glyph glyph-name="edieresis" unicode="&#xeb;" horiz-adv-x="515" 
d="M304 85c42 0 84 9 123 24c16 6 22 2 25 -9l14 -51c4 -13 2 -22 -14 -29c-49 -22 -116 -32 -168 -32c-157 0 -250 100 -250 256c0 150 99 254 248 254c61 0 111 -23 146 -60c46 -48 59 -111 59 -179v-15c0 -24 -8 -29 -33 -29h-293c8 -77 64 -130 143 -130zM163 294h205
v11c-2 52 -32 100 -93 100c-65 0 -104 -52 -112 -111zM247 633c0 -37 -33 -58 -61 -58c-29 0 -62 20 -62 57c0 38 30 59 62 59c30 0 61 -21 61 -58zM430 633c0 -37 -33 -58 -61 -58c-29 0 -62 20 -62 57c0 38 30 59 62 59c30 0 61 -21 61 -58z" />
    <glyph glyph-name="iacute" unicode="&#xed;" horiz-adv-x="261" 
d="M192 462v-437c0 -18 -8 -25 -25 -25h-70c-18 0 -26 7 -26 25v437c0 17 10 23 26 23h70c16 0 25 -5 25 -23zM29 615l137 97c16 12 25 11 35 -4l30 -45c8 -12 7 -21 -6 -28l-152 -84c-15 -8 -22 -7 -32 7l-17 25c-10 15 -10 22 5 32z" />
    <glyph glyph-name="igrave" unicode="&#xec;" horiz-adv-x="261" 
d="M192 462v-437c0 -18 -8 -25 -25 -25h-70c-18 0 -26 7 -26 25v437c0 17 10 23 26 23h70c16 0 25 -5 25 -23zM88 712l137 -97c15 -10 15 -17 5 -32l-17 -25c-10 -14 -17 -15 -32 -7l-152 84c-13 7 -14 16 -6 28l30 45c10 15 19 16 35 4z" />
    <glyph glyph-name="icircumflex" unicode="&#xee;" horiz-adv-x="261" 
d="M192 462v-437c0 -18 -8 -25 -25 -25h-70c-18 0 -26 7 -26 25v437c0 17 10 23 26 23h70c16 0 25 -5 25 -23zM122 705h16c14 0 20 -3 29 -11l100 -91c10 -10 11 -17 2 -26l-17 -18c-10 -10 -17 -11 -35 1l-87 57l-87 -57c-18 -12 -25 -11 -35 -1l-17 18c-9 9 -8 16 2 26
l100 91c9 8 15 11 29 11z" />
    <glyph glyph-name="idieresis" unicode="&#xef;" horiz-adv-x="261" 
d="M192 462v-437c0 -18 -8 -25 -25 -25h-70c-18 0 -26 7 -26 25v437c0 17 10 23 26 23h70c16 0 25 -5 25 -23zM101 633c0 -37 -33 -58 -61 -58c-29 0 -62 20 -62 57c0 38 30 59 62 59c30 0 61 -21 61 -58zM284 633c0 -37 -33 -58 -61 -58c-29 0 -62 20 -62 57
c0 38 30 59 62 59c30 0 61 -21 61 -58z" />
    <glyph glyph-name="ntilde" unicode="&#xf1;" horiz-adv-x="561" 
d="M498 319v-293c0 -17 -6 -26 -24 -26h-72c-18 0 -24 9 -24 26v272c0 55 -15 94 -76 94c-39 0 -87 -21 -118 -48v-319c0 -17 -7 -25 -24 -25h-73c-15 0 -24 8 -24 24v436c0 16 7 25 25 25h65c14 0 23 -4 24 -19l1 -26c46 37 104 58 162 58c112 0 158 -70 158 -179zM407 667
c15 9 22 8 28 -4l16 -32c6 -12 4 -20 -10 -29c-27 -18 -61 -33 -91 -33c-49 0 -86 35 -119 35c-19 0 -37 -7 -60 -21c-15 -9 -22 -8 -28 4l-16 32c-6 12 -4 20 10 29c27 18 61 33 91 33c49 0 86 -35 119 -35c19 0 37 7 60 21z" />
    <glyph glyph-name="oacute" unicode="&#xf3;" horiz-adv-x="550" 
d="M516 243c0 -144 -88 -255 -244 -255c-163 0 -238 110 -238 256c0 144 88 254 244 254c163 0 238 -108 238 -255zM391 243c0 82 -26 160 -114 160c-89 0 -118 -77 -118 -157c0 -82 25 -163 114 -163c88 0 118 78 118 160zM173 615l137 97c16 12 25 11 35 -4l30 -45
c8 -12 7 -21 -6 -28l-152 -84c-15 -8 -22 -7 -32 7l-17 25c-10 15 -10 22 5 32z" />
    <glyph glyph-name="ograve" unicode="&#xf2;" horiz-adv-x="550" 
d="M516 243c0 -144 -88 -255 -244 -255c-163 0 -238 110 -238 256c0 144 88 254 244 254c163 0 238 -108 238 -255zM391 243c0 82 -26 160 -114 160c-89 0 -118 -77 -118 -157c0 -82 25 -163 114 -163c88 0 118 78 118 160zM236 712l137 -97c15 -10 15 -17 5 -32l-17 -25
c-10 -14 -17 -15 -32 -7l-152 84c-13 7 -14 16 -6 28l30 45c10 15 19 16 35 4z" />
    <glyph glyph-name="ocircumflex" unicode="&#xf4;" horiz-adv-x="550" 
d="M516 243c0 -144 -88 -255 -244 -255c-163 0 -238 110 -238 256c0 144 88 254 244 254c163 0 238 -108 238 -255zM391 243c0 82 -26 160 -114 160c-89 0 -118 -77 -118 -157c0 -82 25 -163 114 -163c88 0 118 78 118 160zM266 705h16c14 0 20 -3 29 -11l100 -91
c10 -10 11 -17 2 -26l-17 -18c-10 -10 -17 -11 -35 1l-87 57l-87 -57c-18 -12 -25 -11 -35 -1l-17 18c-9 9 -8 16 2 26l100 91c9 8 15 11 29 11z" />
    <glyph glyph-name="odieresis" unicode="&#xf6;" horiz-adv-x="550" 
d="M516 243c0 -144 -88 -255 -244 -255c-163 0 -238 110 -238 256c0 144 88 254 244 254c163 0 238 -108 238 -255zM391 243c0 82 -26 160 -114 160c-89 0 -118 -77 -118 -157c0 -82 25 -163 114 -163c88 0 118 78 118 160zM245 633c0 -37 -33 -58 -61 -58
c-29 0 -62 20 -62 57c0 38 30 59 62 59c30 0 61 -21 61 -58zM428 633c0 -37 -33 -58 -61 -58c-29 0 -62 20 -62 57c0 38 30 59 62 59c30 0 61 -21 61 -58z" />
    <glyph glyph-name="otilde" unicode="&#xf5;" horiz-adv-x="550" 
d="M516 243c0 -144 -88 -255 -244 -255c-163 0 -238 110 -238 256c0 144 88 254 244 254c163 0 238 -108 238 -255zM391 243c0 82 -26 160 -114 160c-89 0 -118 -77 -118 -157c0 -82 25 -163 114 -163c88 0 118 78 118 160zM394 667c15 9 22 8 28 -4l16 -32
c6 -12 4 -20 -10 -29c-27 -18 -61 -33 -91 -33c-49 0 -86 35 -119 35c-19 0 -37 -7 -60 -21c-15 -9 -22 -8 -28 4l-16 32c-6 12 -4 20 10 29c27 18 61 33 91 33c49 0 86 -35 119 -35c19 0 37 7 60 21z" />
    <glyph glyph-name="uacute" unicode="&#xfa;" horiz-adv-x="556" 
d="M495 462v-434c0 -21 -6 -28 -26 -28h-64c-13 0 -23 7 -24 20l-1 25c-46 -37 -101 -57 -159 -57c-112 0 -158 71 -158 179v295c0 17 10 23 26 23h70c16 0 25 -5 25 -23v-274c0 -55 14 -93 74 -93c38 0 86 21 116 48v319c0 17 9 23 25 23h71c16 0 25 -5 25 -23zM196 615
l137 97c16 12 25 11 35 -4l30 -45c8 -12 7 -21 -6 -28l-152 -84c-15 -8 -22 -7 -32 7l-17 25c-10 15 -10 22 5 32z" />
    <glyph glyph-name="ugrave" unicode="&#xf9;" horiz-adv-x="556" 
d="M495 462v-434c0 -21 -6 -28 -26 -28h-64c-13 0 -23 7 -24 20l-1 25c-46 -37 -101 -57 -159 -57c-112 0 -158 71 -158 179v295c0 17 10 23 26 23h70c16 0 25 -5 25 -23v-274c0 -55 14 -93 74 -93c38 0 86 21 116 48v319c0 17 9 23 25 23h71c16 0 25 -5 25 -23zM235 712
l137 -97c15 -10 15 -17 5 -32l-17 -25c-10 -14 -17 -15 -32 -7l-152 84c-13 7 -14 16 -6 28l30 45c10 15 19 16 35 4z" />
    <glyph glyph-name="ucircumflex" unicode="&#xfb;" horiz-adv-x="556" 
d="M495 462v-434c0 -21 -6 -28 -26 -28h-64c-13 0 -23 7 -24 20l-1 25c-46 -37 -101 -57 -159 -57c-112 0 -158 71 -158 179v295c0 17 10 23 26 23h70c16 0 25 -5 25 -23v-274c0 -55 14 -93 74 -93c38 0 86 21 116 48v319c0 17 9 23 25 23h71c16 0 25 -5 25 -23zM269 705h16
c14 0 20 -3 29 -11l100 -91c10 -10 11 -17 2 -26l-17 -18c-10 -10 -17 -11 -35 1l-87 57l-87 -57c-18 -12 -25 -11 -35 -1l-17 18c-9 9 -8 16 2 26l100 91c9 8 15 11 29 11z" />
    <glyph glyph-name="udieresis" unicode="&#xfc;" horiz-adv-x="556" 
d="M495 462v-434c0 -21 -6 -28 -26 -28h-64c-13 0 -23 7 -24 20l-1 25c-46 -37 -101 -57 -159 -57c-112 0 -158 71 -158 179v295c0 17 10 23 26 23h70c16 0 25 -5 25 -23v-274c0 -55 14 -93 74 -93c38 0 86 21 116 48v319c0 17 9 23 25 23h71c16 0 25 -5 25 -23zM250 633
c0 -37 -33 -58 -61 -58c-29 0 -62 20 -62 57c0 38 30 59 62 59c30 0 61 -21 61 -58zM433 633c0 -37 -33 -58 -61 -58c-29 0 -62 20 -62 57c0 38 30 59 62 59c30 0 61 -21 61 -58z" />
    <glyph glyph-name="dagger" unicode="&#x2020;" horiz-adv-x="512" 
d="M475 445v-65c0 -13 -6 -17 -19 -17l-146 2l-3 -345c0 -15 -4 -20 -19 -20h-65c-13 0 -19 5 -19 21l-4 344l-144 -2c-13 0 -19 3 -19 16v65c0 14 5 17 17 17l146 -1l-3 213c0 14 5 19 20 19h78c12 0 18 -3 18 -17l-2 -215l143 1c16 0 21 -2 21 -16z" />
    <glyph glyph-name="degree" unicode="&#xb0;" horiz-adv-x="282" 
d="M237 612c0 -52 -39 -93 -96 -93s-96 41 -96 93s39 93 96 93s96 -41 96 -93zM176 612c0 20 -15 35 -35 35s-35 -15 -35 -35s15 -35 35 -35s35 15 35 35z" />
    <glyph glyph-name="cent" unicode="&#xa2;" horiz-adv-x="561" 
d="M469 95l14 -45c6 -18 5 -24 -12 -32c-37 -17 -73 -26 -110 -28v-70c0 -15 -3 -20 -21 -20h-21c-17 0 -19 6 -19 22v67c-137 11 -218 104 -218 249c0 144 83 244 218 258v75c0 15 2 18 17 18h26c16 0 18 -3 18 -18v-74c36 -2 76 -12 108 -27c13 -6 14 -13 11 -26l-13 -53
c-3 -14 -12 -16 -25 -10c-23 10 -51 18 -81 20v-318c31 2 58 10 86 21c12 4 18 3 22 -9zM300 87v310c-55 -15 -93 -66 -93 -153c0 -84 32 -141 93 -157z" />
    <glyph glyph-name="sterling" unicode="&#xa3;" horiz-adv-x="561" 
d="M132 215v93h-48c-16 0 -20 3 -20 18v54c0 17 5 18 21 18h47v79c0 73 18 125 54 165s93 63 165 63c47 0 93 -9 136 -27c16 -7 20 -14 15 -29l-18 -54c-4 -13 -10 -15 -24 -10c-29 11 -61 19 -95 19c-38 0 -67 -11 -85 -32c-16 -20 -25 -45 -25 -98v-76h144
c17 0 21 -4 21 -17v-56c0 -16 -5 -17 -21 -17h-145v-85c0 -53 -13 -93 -48 -117v-2h284c17 0 25 -7 25 -23v-57c0 -16 -7 -24 -24 -24h-422c-16 0 -25 9 -25 25v42c0 16 5 24 19 29c51 20 69 60 69 119z" />
    <glyph glyph-name="section" unicode="&#xa7;" horiz-adv-x="463" 
d="M415 350c0 -46 -18 -84 -48 -109c27 -23 44 -55 44 -98c0 -104 -90 -155 -192 -155c-49 0 -107 13 -154 33c-9 4 -12 9 -12 15c0 3 1 8 2 11l16 50c3 10 7 15 13 15c3 0 6 -1 11 -3c43 -17 92 -29 127 -29c43 0 74 20 74 53c0 28 -19 43 -60 59l-79 31
c-57 22 -103 65 -103 133c0 46 22 81 54 104c-30 25 -50 59 -50 103c0 98 92 142 181 142c51 0 98 -8 144 -28c6 -3 12 -6 12 -12c0 -3 -1 -7 -2 -11l-17 -56c-2 -8 -7 -11 -12 -11c-4 0 -9 2 -14 4c-33 13 -74 22 -104 22c-42 0 -65 -23 -65 -46c0 -21 11 -38 49 -53
l90 -36c53 -21 95 -63 95 -128zM306 337c0 28 -25 47 -66 62l-35 13c-22 -9 -34 -26 -34 -46c0 -25 17 -42 55 -58l48 -20c18 10 32 29 32 49z" />
    <glyph glyph-name="bullet" unicode="&#x2022;" horiz-adv-x="505" 
d="M421 269c0 -88 -75 -158 -168 -158s-169 70 -169 158s76 159 169 159s168 -71 168 -159z" />
    <glyph glyph-name="paragraph" unicode="&#xb6;" horiz-adv-x="535" 
d="M465 667v-787c0 -13 -4 -21 -18 -21h-37c-14 0 -19 7 -19 22v711h-80v-707c0 -17 -6 -26 -23 -26h-74c-16 0 -23 5 -23 25v464c-88 12 -157 82 -157 171c0 98 82 173 179 173h227c19 0 25 -6 25 -25z" />
    <glyph glyph-name="germandbls" unicode="&#xdf;" horiz-adv-x="595" 
d="M186 -66c0 -18 -5 -27 -24 -27h-73c-17 0 -24 9 -24 26v564c0 77 18 131 57 171c36 38 95 60 170 60c129 0 219 -65 219 -181c0 -68 -39 -140 -111 -158v-1c93 -11 163 -78 163 -179c0 -158 -120 -218 -252 -218c-17 0 -33 1 -48 3c-14 2 -17 8 -17 21v54
c0 15 4 19 19 19c7 0 23 -1 40 -1c88 0 136 53 136 124c0 86 -67 120 -146 120h-28c-19 0 -21 5 -21 16v57c0 13 3 15 16 15h13c70 0 114 40 114 112c0 65 -35 102 -99 102c-35 0 -60 -11 -78 -32c-16 -19 -26 -48 -26 -95v-572z" />
    <glyph glyph-name="registered" unicode="&#xae;" horiz-adv-x="831" 
d="M779 348c0 -199 -163 -360 -363 -360c-207 0 -363 161 -363 360s159 357 363 357c200 0 363 -158 363 -357zM688 347c0 155 -117 276 -272 276s-273 -121 -273 -276s118 -277 273 -277s272 122 272 277zM477 312l81 -124c7 -10 4 -17 -7 -17h-48c-10 0 -15 3 -20 11
l-71 116h-35v-113c0 -9 -4 -14 -14 -14h-42c-10 0 -14 5 -14 14v321c0 11 4 17 14 17h44c71 0 102 -2 139 -28c25 -19 36 -46 36 -82c0 -46 -23 -83 -63 -101zM469 411c0 41 -27 57 -69 57h-23v-116h20c47 0 72 17 72 59z" />
    <glyph glyph-name="copyright" unicode="&#xa9;" horiz-adv-x="831" 
d="M779 348c0 -199 -163 -360 -363 -360c-207 0 -363 161 -363 360s159 357 363 357c200 0 363 -158 363 -357zM688 347c0 155 -117 276 -272 276s-273 -121 -273 -276s118 -277 273 -277s272 122 272 277zM535 197c0 -5 -3 -9 -10 -12c-33 -14 -64 -20 -101 -20
c-108 0 -159 77 -159 181c0 103 62 183 164 183c35 0 66 -8 95 -22c6 -3 10 -5 10 -10c0 -2 -1 -5 -2 -8l-11 -31c-4 -11 -9 -11 -17 -7c-25 13 -48 18 -72 18c-27 0 -52 -12 -68 -33c-17 -22 -25 -53 -25 -88c0 -76 36 -124 95 -124c23 0 48 6 71 16c9 4 13 3 17 -5l11 -30
c1 -3 2 -6 2 -8z" />
    <glyph glyph-name="trademark" unicode="&#x2122;" horiz-adv-x="653" 
d="M578 678l14 -260c1 -14 -3 -17 -15 -17h-38c-15 0 -16 9 -16 19l-3 139l-58 -147c-4 -10 -9 -11 -16 -11h-19c-9 0 -13 3 -17 12l-66 148l-2 -144c0 -13 -8 -16 -17 -16h-33c-11 0 -15 6 -15 17l11 258c1 13 5 16 16 16h28c11 0 14 -1 19 -12l86 -188l80 188
c4 9 6 12 17 12h29c10 0 14 -3 15 -14zM42 692h208c11 0 14 -3 13 -15l-3 -27c-1 -7 -3 -13 -14 -13h-67v-221c0 -10 -3 -15 -14 -15h-43c-11 0 -14 5 -14 15v221h-66c-10 0 -14 3 -14 14v27c0 11 5 14 14 14z" />
    <glyph glyph-name="acute" unicode="&#xb4;" horiz-adv-x="344" 
d="M70 615l137 97c16 12 25 11 35 -4l30 -45c8 -12 7 -21 -6 -28l-152 -84c-15 -8 -22 -7 -32 7l-17 25c-10 15 -10 22 5 32z" />
    <glyph glyph-name="dieresis" unicode="&#xa8;" horiz-adv-x="344" 
d="M142 633c0 -37 -33 -58 -61 -58c-29 0 -62 20 -62 57c0 38 30 59 62 59c30 0 61 -21 61 -58zM325 633c0 -37 -33 -58 -61 -58c-29 0 -62 20 -62 57c0 38 30 59 62 59c30 0 61 -21 61 -58z" />
    <glyph glyph-name="notequal" unicode="&#x2260;" horiz-adv-x="523" 
d="M460 119h-249l-48 -80c-10 -17 -16 -19 -33 -9l-20 12c-17 10 -17 15 -7 32l27 45h-68c-19 0 -24 9 -24 25v56c0 17 5 24 23 24h132l53 87h-184c-19 0 -24 9 -24 25v56c0 17 5 24 23 24h248l40 66c10 17 16 19 33 9l20 -12c17 -10 17 -15 7 -32l-19 -31h69
c20 0 26 -7 26 -25v-53c0 -19 -6 -27 -25 -27h-133l-53 -87h185c20 0 26 -7 26 -25v-53c0 -19 -6 -27 -25 -27z" />
    <glyph glyph-name="AE" unicode="&#xc6;" horiz-adv-x="924" 
d="M881 81v-57c0 -16 -7 -24 -24 -24h-366c-19 0 -31 6 -31 27v144h-223l-93 -150c-9 -15 -15 -21 -30 -21h-87c-11 0 -19 11 -11 24l399 646c8 13 16 22 32 22h412c15 0 24 -6 22 -21l-8 -62c-2 -18 -12 -21 -33 -21h-252v-181h231c19 0 26 -8 26 -22v-57
c0 -17 -8 -24 -25 -24h-232v-200h268c17 0 25 -7 25 -23zM291 268h169v281z" />
    <glyph glyph-name="Oslash" unicode="&#xd8;" horiz-adv-x="700" 
d="M659 350c0 -226 -129 -362 -308 -362c-68 0 -126 18 -172 50l-46 -65c-14 -19 -23 -19 -38 -8l-28 20c-14 10 -17 18 -5 34l57 80c-45 60 -69 144 -69 245c0 215 120 361 308 361c63 0 116 -16 159 -44l51 71c9 12 16 16 26 9l36 -27c16 -12 16 -19 8 -30l-56 -79
c51 -63 77 -152 77 -255zM209 222l239 344c-25 21 -57 32 -94 32c-100 0 -166 -95 -166 -251c0 -50 7 -92 21 -125zM521 347c0 58 -8 106 -23 144l-247 -355c27 -27 62 -41 104 -41c99 0 166 89 166 252z" />
    <glyph glyph-name="infinity" unicode="&#x221e;" horiz-adv-x="817" 
d="M41 327c0 101 67 166 176 166c74 0 134 -38 192 -95c54 55 112 94 189 94c108 0 177 -62 177 -165c0 -107 -79 -163 -177 -163c-74 0 -131 34 -190 92c-52 -52 -114 -93 -192 -93c-98 0 -175 57 -175 164zM587 268c42 0 74 25 74 62c0 40 -30 63 -72 63
c-48 0 -84 -29 -115 -62c41 -43 72 -63 113 -63zM227 268c46 0 85 26 116 63c-34 34 -70 63 -119 63c-43 0 -70 -26 -70 -64c0 -40 33 -62 73 -62z" />
    <glyph glyph-name="plusminus" unicode="&#xb1;" horiz-adv-x="523" 
d="M209 203v148h-147c-19 0 -24 9 -24 25v56c0 17 5 24 23 24h148v145c0 20 7 26 25 26h53c19 0 27 -6 27 -25v-146h145c20 0 26 -7 26 -25v-53c0 -19 -6 -27 -25 -27h-146v-147c0 -19 -9 -24 -25 -24h-56c-17 0 -24 5 -24 23zM61 105h398c20 0 26 -7 26 -25v-53
c0 -19 -6 -27 -25 -27h-398c-19 0 -24 9 -24 25v56c0 17 5 24 23 24z" />
    <glyph glyph-name="lessequal" unicode="&#x2264;" horiz-adv-x="523" 
d="M61 105h398c20 0 26 -7 26 -25v-53c0 -19 -6 -27 -25 -27h-398c-19 0 -24 9 -24 25v56c0 17 5 24 23 24zM39 390v30c0 14 4 21 17 29l330 204c13 8 22 8 29 -4l35 -59c7 -12 7 -18 -6 -26l-252 -159l252 -159c13 -8 13 -14 6 -26l-35 -59c-7 -12 -16 -12 -29 -4l-330 204
c-13 8 -17 15 -17 29z" />
    <glyph glyph-name="greaterequal" unicode="&#x2265;" horiz-adv-x="523" 
d="M484 420v-30c0 -14 -4 -21 -17 -29l-330 -204c-13 -8 -22 -8 -29 4l-35 59c-7 12 -7 18 6 26l252 159l-252 159c-13 8 -13 14 -6 26l35 59c7 12 16 12 29 4l330 -204c13 -8 17 -15 17 -29zM64 105h398c18 0 23 -7 23 -24v-56c0 -16 -5 -25 -24 -25h-398
c-19 0 -25 8 -25 27v53c0 18 6 25 26 25z" />
    <glyph glyph-name="yen" unicode="&#xa5;" horiz-adv-x="561" 
d="M458 692h75c16 0 23 -8 14 -25l-180 -347h77c17 0 20 -5 20 -18v-28c0 -15 -5 -17 -21 -17h-91v-43h94c17 0 19 -3 19 -18v-22c0 -19 -3 -21 -20 -21h-93v-130c0 -15 -6 -23 -21 -23h-85c-15 0 -22 8 -22 25v128h-94c-16 0 -19 6 -19 22v20c0 16 3 19 20 19h93v43h-96
c-15 0 -18 3 -18 18v26c0 16 4 19 20 19h76l-185 348c-7 13 -1 24 14 24h93c21 0 29 -4 36 -19l131 -262h1l128 261c8 16 15 20 34 20z" />
    <glyph glyph-name="mu" unicode="&#xb5;" horiz-adv-x="588" 
d="M374 460c0 18 8 25 25 25h70c18 0 26 -7 26 -25v-317c0 -31 7 -48 23 -48c8 0 17 3 24 6c11 5 22 3 25 -8l15 -43c4 -10 2 -21 -8 -28c-24 -19 -69 -30 -102 -30c-38 0 -72 17 -84 45c-31 -28 -75 -49 -126 -49c-32 0 -59 8 -78 23v-161c0 -18 -8 -25 -25 -25h-70
c-18 0 -26 7 -26 25v610c0 18 8 25 25 25h70c18 0 26 -7 26 -25v-278c0 -53 14 -94 75 -94c39 0 84 18 115 45v327z" />
    <glyph glyph-name="partialdiff" unicode="&#x2202;" horiz-adv-x="558" 
d="M45 222c0 142 92 225 211 225c39 0 91 -12 127 -42c0 122 -45 211 -151 211c-34 0 -71 -12 -103 -25c-15 -6 -21 -3 -27 10l-23 52c-6 14 -5 24 11 32c44 22 100 37 150 37c231 0 278 -211 278 -378c0 -199 -64 -356 -247 -356c-145 0 -226 100 -226 234zM172 220
c0 -64 31 -125 101 -125c87 0 116 82 116 198c-30 33 -69 51 -110 51c-77 0 -107 -60 -107 -124z" />
    <glyph glyph-name="summation" unicode="&#x2211;" horiz-adv-x="567" 
d="M523 -174h-463c-15 0 -20 6 -20 20v46c0 13 4 23 13 35l253 338l-257 324c-6 8 -9 14 -9 27v56c0 14 7 20 22 20h458c15 0 20 -6 20 -17v-67c-1 -16 -12 -20 -30 -20h-290l188 -237c18 -24 21 -29 21 -47v-35c0 -24 -4 -33 -19 -53l-213 -286h327c16 0 23 -8 23 -24v-60
c0 -14 -8 -20 -24 -20z" />
    <glyph glyph-name="product" unicode="&#x220f;" horiz-adv-x="667" 
d="M543 588v-742c0 -14 -3 -20 -19 -20h-89c-16 0 -19 6 -19 20v742h-172v-742c0 -14 -3 -20 -19 -20h-89c-16 0 -19 6 -19 20v742h-64c-17 0 -23 8 -23 24v60c0 14 7 20 22 20h566c15 0 21 -6 20 -17l-6 -67c-2 -16 -12 -20 -30 -20h-59z" />
    <glyph glyph-name="pi" unicode="&#x3c0;" horiz-adv-x="678" 
d="M119 25v369h-68c-12 0 -22 6 -22 19v53c0 13 7 19 21 19h541c14 0 21 -6 21 -19v-53c0 -13 -10 -19 -22 -19h-85v-210c0 -57 3 -89 40 -89c14 0 30 3 43 10c11 6 24 5 30 -8l20 -45c6 -13 2 -22 -7 -28c-30 -20 -71 -30 -112 -30c-118 0 -135 71 -135 177v223h-144v-369
c0 -18 -8 -25 -25 -25h-70c-18 0 -26 7 -26 25z" />
    <glyph glyph-name="integral" unicode="&#x222b;" horiz-adv-x="409" 
d="M93 -168c-20 0 -46 3 -66 8c-17 4 -19 12 -17 24l11 56c3 14 10 15 22 13c18 -3 34 -5 49 -5c65 0 92 42 92 103c0 7 0 15 -1 22c-12 122 -69 294 -77 429c-1 9 -1 17 -1 26c0 137 69 212 211 212c20 0 46 -3 66 -8c17 -4 19 -12 17 -24l-11 -56c-3 -14 -10 -15 -22 -13
c-18 3 -34 5 -49 5c-67 0 -91 -46 -91 -109v-16c10 -149 62 -293 77 -429c2 -14 2 -27 2 -40c0 -127 -79 -198 -212 -198z" />
    <glyph glyph-name="ordfeminine" unicode="&#xaa;" horiz-adv-x="306" 
d="M191 352l-4 12c-23 -19 -52 -28 -81 -28c-55 0 -86 38 -86 81c0 67 58 89 162 89v4c0 23 -10 39 -41 39c-23 0 -46 -8 -68 -19c-11 -6 -17 -4 -22 6l-14 28c-4 9 -5 15 4 20c31 18 72 31 112 31c45 0 73 -10 92 -28s27 -44 27 -82v-147c0 -13 -4 -18 -19 -18h-39
c-15 0 -20 3 -23 12zM182 415v44c-45 1 -71 -11 -71 -35c0 -15 11 -24 30 -24c14 0 29 5 41 15z" />
    <glyph glyph-name="ordmasculine" unicode="&#xba;" horiz-adv-x="318" 
d="M301 475c0 -83 -48 -139 -142 -139s-142 56 -142 139s48 140 142 140s142 -57 142 -140zM208 475c0 43 -14 74 -49 74s-49 -31 -49 -74s14 -73 49 -73s49 30 49 73z" />
    <glyph glyph-name="Omega" unicode="&#x3a9;" horiz-adv-x="732" 
d="M162 93v2c-63 39 -99 137 -99 256c0 219 112 354 305 354c199 0 304 -142 304 -346c0 -125 -43 -222 -106 -264v-2h96c15 0 25 -6 25 -21v-48c0 -17 -8 -24 -25 -24h-227c-17 0 -25 7 -25 24v38c0 19 10 29 27 38c66 34 98 117 98 244c0 186 -62 255 -168 255
c-108 0 -169 -75 -169 -252c0 -127 36 -210 100 -246c17 -10 27 -20 27 -39v-38c0 -17 -8 -24 -25 -24h-230c-17 0 -25 7 -25 24v48c0 15 10 21 25 21h92z" />
    <glyph glyph-name="ae" unicode="&#xe6;" horiz-adv-x="781" 
d="M550 -12c-77 0 -138 23 -180 65c-47 -38 -107 -65 -179 -65c-92 0 -165 53 -165 146c0 129 136 175 286 172v24c0 47 -23 77 -89 77c-37 0 -81 -12 -127 -35c-11 -5 -18 -2 -22 9l-17 46c-4 12 0 20 14 28c48 27 111 43 169 43c62 0 120 -20 147 -66h2
c33 40 92 66 159 66c138 0 202 -112 202 -243c0 -33 -8 -39 -29 -39h-294c8 -77 64 -131 143 -131c42 0 84 9 123 24c16 6 22 2 25 -9l14 -51c4 -13 2 -22 -14 -29c-49 -22 -116 -32 -168 -32zM330 125c-11 24 -18 60 -18 89v11c-100 0 -163 -27 -163 -82
c0 -38 30 -61 72 -61c41 0 85 20 109 43zM429 294h205c0 59 -26 111 -93 111c-65 0 -104 -52 -112 -111z" />
    <glyph glyph-name="oslash" unicode="&#xf8;" horiz-adv-x="550" 
d="M516 243c0 -144 -88 -255 -244 -255c-42 0 -79 7 -109 21l-27 -43c-8 -14 -16 -13 -25 -7l-20 13c-11 7 -11 13 -6 21l29 46c-54 46 -80 119 -80 205c0 144 88 254 244 254c42 0 79 -7 109 -21l23 37c10 16 18 20 31 12l16 -10c11 -7 10 -13 3 -25l-26 -42
c56 -45 82 -119 82 -206zM391 243c0 38 -6 75 -20 104l-154 -250c15 -9 33 -14 56 -14c88 0 118 78 118 160zM178 142l154 247c-15 9 -33 14 -55 14c-89 0 -118 -77 -118 -157c0 -37 5 -74 19 -104z" />
    <glyph glyph-name="questiondown" unicode="&#xbf;" horiz-adv-x="440" 
d="M36 -50c0 54 28 103 66 143l73 77c24 25 41 46 43 94c0 11 -1 32 -1 38c0 11 5 15 15 15h64c11 0 16 -3 19 -15c4 -18 7 -38 7 -59c0 -47 -17 -82 -51 -117l-71 -73c-20 -21 -49 -55 -49 -91c0 -64 48 -85 97 -85c30 0 73 12 104 29c13 7 18 2 21 -6l20 -54
c3 -9 4 -17 -7 -23c-50 -28 -109 -42 -162 -42c-100 0 -188 63 -188 169zM195 434c0 40 35 64 67 64s68 -22 68 -63c0 -42 -34 -65 -68 -65s-67 23 -67 64z" />
    <glyph glyph-name="exclamdown" unicode="&#xa1;" horiz-adv-x="259" 
d="M197 434c0 -41 -33 -64 -67 -64s-68 23 -68 65c0 41 36 63 68 63s67 -24 67 -64zM178 313l12 -500c0 -14 -4 -19 -18 -19h-80c-14 0 -18 5 -18 19l11 499c0 14 4 20 20 20h54c14 0 19 -6 19 -19z" />
    <glyph glyph-name="logicalnot" unicode="&#xac;" horiz-adv-x="523" 
d="M485 391v-248c0 -19 -9 -24 -25 -24h-56c-17 0 -24 5 -24 23v169h-318c-19 0 -24 9 -24 25v56c0 17 5 24 23 24h398c20 0 26 -7 26 -25z" />
    <glyph glyph-name="radical" unicode="&#x221a;" horiz-adv-x="618" 
d="M46 413v48c0 17 7 24 24 24h144c16 0 22 -6 27 -21l98 -312l180 535c6 17 13 21 31 21h65c17 0 21 -10 16 -24l-236 -667c-6 -15 -12 -17 -27 -17h-70c-14 0 -23 3 -28 16l-130 373h-70c-18 0 -24 7 -24 24z" />
    <glyph glyph-name="florin" unicode="&#x192;" horiz-adv-x="561" 
d="M570 683c12 -6 13 -13 9 -25l-18 -51c-5 -15 -12 -17 -26 -12c-20 7 -42 13 -65 13c-60 0 -80 -51 -92 -111l-23 -117h100c11 0 15 -2 15 -14l-1 -58c0 -9 -3 -13 -14 -13h-116l-53 -272c-26 -142 -91 -216 -216 -216c-32 0 -76 7 -105 20c-11 5 -14 9 -10 20l21 59
c5 14 11 19 25 13c20 -8 42 -13 65 -13c55 0 82 44 97 120l51 269h-81c-11 0 -16 4 -15 13l4 61c1 8 4 11 14 11h95l21 111c23 122 79 216 216 216c37 0 78 -11 102 -24z" />
    <glyph glyph-name="approxequal" unicode="&#x2248;" horiz-adv-x="523" 
d="M463 373c-28 -52 -67 -80 -118 -80c-66 0 -124 51 -169 51c-17 0 -27 -9 -43 -24c-14 -13 -23 -16 -42 -8l-21 9c-22 10 -26 18 -11 47c28 52 67 80 118 80c66 0 124 -51 169 -51c17 0 27 9 43 24c14 13 23 16 42 8l21 -9c22 -10 26 -18 11 -47zM463 167
c-28 -52 -67 -80 -118 -80c-66 0 -124 51 -169 51c-17 0 -27 -9 -43 -24c-14 -13 -23 -16 -42 -8l-21 9c-22 10 -26 18 -11 47c28 52 67 80 118 80c66 0 124 -51 169 -51c17 0 27 9 43 24c14 13 23 16 42 8l21 -9c22 -10 26 -18 11 -47z" />
    <glyph glyph-name="Delta" unicode="&#x2206;" horiz-adv-x="609" 
d="M43 143l193 526c5 13 13 23 29 23h82c16 0 26 -9 30 -21l191 -531c8 -23 16 -48 16 -64v-48c0 -22 -10 -28 -28 -28h-503c-18 0 -28 6 -28 28v50c0 13 10 44 18 65zM152 103h294l-141 450h-3z" />
    <glyph glyph-name="guillemotleft" unicode="&#xab;" horiz-adv-x="460" 
d="M227 351l-81 -121l81 -121c7 -11 4 -16 -8 -23l-36 -21c-11 -6 -18 -6 -29 7l-111 141c-4 6 -7 11 -7 17s3 11 7 17l111 141c11 13 18 13 29 7l36 -21c12 -7 15 -12 8 -23zM410 351l-81 -121l81 -121c7 -11 4 -16 -8 -23l-36 -21c-11 -6 -18 -6 -29 7l-111 141
c-4 6 -7 11 -7 17s3 11 7 17l111 141c11 13 18 13 29 7l36 -21c12 -7 15 -12 8 -23z" />
    <glyph glyph-name="guillemotright" unicode="&#xbb;" horiz-adv-x="460" 
d="M131 230l-81 121c-7 11 -4 16 8 23l36 21c11 6 18 6 29 -7l111 -141c4 -6 7 -11 7 -17s-3 -11 -7 -17l-111 -141c-11 -13 -18 -13 -29 -7l-36 21c-12 7 -15 12 -8 23zM314 230l-81 121c-7 11 -4 16 8 23l36 21c11 6 18 6 29 -7l111 -141c4 -6 7 -11 7 -17s-3 -11 -7 -17
l-111 -141c-11 -13 -18 -13 -29 -7l-36 21c-12 7 -15 12 -8 23z" />
    <glyph glyph-name="ellipsis" unicode="&#x2026;" horiz-adv-x="657" 
d="M186 55c0 -41 -37 -67 -71 -67c-35 0 -71 24 -71 66c0 43 34 68 71 68c36 0 71 -25 71 -67zM405 55c0 -41 -37 -67 -71 -67c-35 0 -71 24 -71 66c0 43 34 68 71 68c36 0 71 -25 71 -67zM624 55c0 -41 -37 -67 -71 -67c-35 0 -71 24 -71 66c0 43 34 68 71 68
c36 0 71 -25 71 -67z" />
    <glyph glyph-name="nbspace" unicode="&#xa0;" horiz-adv-x="242" 
 />
    <glyph glyph-name="Agrave" unicode="&#xc0;" horiz-adv-x="643" 
d="M9 25l244 647c5 12 12 20 27 20h80c15 0 24 -7 28 -18l246 -648c5 -14 0 -26 -15 -26h-91c-21 0 -28 8 -34 24l-52 147h-253l-52 -150c-4 -13 -11 -21 -27 -21h-86c-16 0 -20 11 -15 25zM223 268h185l-71 211l-20 65h-2l-21 -66zM278 912l137 -97c15 -10 15 -17 5 -32
l-17 -25c-10 -14 -17 -15 -32 -7l-152 84c-13 7 -14 16 -6 28l30 45c10 15 19 16 35 4z" />
    <glyph glyph-name="Atilde" unicode="&#xc3;" horiz-adv-x="643" 
d="M9 25l244 647c5 12 12 20 27 20h80c15 0 24 -7 28 -18l246 -648c5 -14 0 -26 -15 -26h-91c-21 0 -28 8 -34 24l-52 147h-253l-52 -150c-4 -13 -11 -21 -27 -21h-86c-16 0 -20 11 -15 25zM223 268h185l-71 211l-20 65h-2l-21 -66zM438 867c15 9 22 8 28 -4l16 -32
c6 -12 4 -20 -10 -29c-27 -18 -61 -33 -91 -33c-49 0 -86 35 -119 35c-19 0 -37 -7 -60 -21c-15 -9 -22 -8 -28 4l-16 32c-6 12 -4 20 10 29c27 18 61 33 91 33c49 0 86 -35 119 -35c19 0 37 7 60 21z" />
    <glyph glyph-name="Otilde" unicode="&#xd5;" horiz-adv-x="695" 
d="M652 350c0 -226 -129 -362 -308 -362c-191 0 -301 139 -301 356c0 215 120 361 308 361c198 0 301 -150 301 -355zM514 347c0 168 -59 249 -166 249c-100 0 -167 -93 -167 -249c0 -166 61 -250 167 -250c99 0 166 87 166 250zM474 867c15 9 22 8 28 -4l16 -32
c6 -12 4 -20 -10 -29c-27 -18 -61 -33 -91 -33c-49 0 -86 35 -119 35c-19 0 -37 -7 -60 -21c-15 -9 -22 -8 -28 4l-16 32c-6 12 -4 20 10 29c27 18 61 33 91 33c49 0 86 -35 119 -35c19 0 37 7 60 21z" />
    <glyph glyph-name="OE" unicode="&#x152;" horiz-adv-x="969" 
d="M926 81v-57c0 -16 -7 -24 -24 -24h-370c-22 0 -28 14 -28 41c-37 -30 -103 -53 -164 -53c-191 0 -295 139 -295 356c0 216 120 361 308 361c62 0 115 -19 152 -48c0 22 5 35 22 35h377c13 0 23 -7 21 -21l-7 -62c-2 -18 -12 -21 -33 -21h-252v-181h231c19 0 26 -8 26 -22
v-57c0 -17 -8 -24 -25 -24h-232v-200h268c17 0 25 -7 25 -23zM504 146v394c-36 39 -99 57 -145 57c-47 0 -89 -19 -119 -55c-36 -43 -57 -109 -57 -195c0 -164 61 -251 167 -251c54 0 116 20 154 50z" />
    <glyph glyph-name="oe" unicode="&#x153;" horiz-adv-x="858" 
d="M830 259v-15c0 -24 -8 -29 -33 -29h-292c8 -77 63 -130 142 -130c42 0 86 10 123 24c4 1 8 3 12 3c7 0 12 -4 14 -12l14 -55c1 -3 1 -5 1 -7c0 -10 -7 -14 -16 -18c-49 -22 -116 -32 -168 -32c-84 0 -144 31 -182 82c-37 -49 -93 -82 -173 -82c-163 0 -238 110 -238 256
c0 144 88 254 244 254c83 0 137 -32 171 -80c39 49 98 80 176 80c61 0 112 -23 147 -60c46 -48 58 -111 58 -179zM507 294h204c0 57 -27 111 -93 111c-65 0 -103 -52 -111 -111zM391 242c0 81 -26 162 -114 162c-89 0 -118 -80 -118 -159c0 -81 25 -163 114 -163
c88 0 118 78 118 160z" />
    <glyph glyph-name="endash" unicode="&#x2013;" horiz-adv-x="500" 
d="M500 296v-63c0 -19 -6 -27 -25 -27h-451c-19 0 -24 10 -24 26v65c0 17 5 24 23 24h451c20 0 26 -7 26 -25z" />
    <glyph glyph-name="emdash" unicode="&#x2014;" horiz-adv-x="1000" 
d="M1000 296v-63c0 -19 -6 -27 -25 -27h-951c-19 0 -24 10 -24 26v65c0 17 5 24 23 24h951c20 0 26 -7 26 -25z" />
    <glyph glyph-name="quotedblleft" unicode="&#x201c;" horiz-adv-x="406" 
d="M224 521c0 73 44 139 101 179c7 5 13 7 18 7c6 0 10 -3 15 -9l10 -12c6 -8 6 -13 -3 -22c-20 -20 -41 -48 -41 -72c0 -30 41 -52 41 -88c0 -39 -31 -67 -69 -67c-43 0 -72 43 -72 84zM32 521c0 73 44 139 101 179c7 5 13 7 18 7c6 0 10 -3 15 -9l10 -12
c6 -8 6 -13 -3 -22c-20 -20 -41 -48 -41 -72c0 -30 41 -52 41 -88c0 -39 -31 -67 -69 -67c-43 0 -72 43 -72 84z" />
    <glyph glyph-name="quotedblright" unicode="&#x201d;" horiz-adv-x="406" 
d="M182 623c0 -73 -44 -139 -101 -179c-7 -5 -13 -7 -18 -7c-6 0 -10 3 -15 9l-10 12c-6 8 -6 13 3 22c20 20 41 48 41 72c0 30 -41 52 -41 88c0 39 31 67 69 67c43 0 72 -43 72 -84zM374 623c0 -73 -44 -139 -101 -179c-7 -5 -13 -7 -18 -7c-6 0 -10 3 -15 9l-10 12
c-6 8 -6 13 3 22c20 20 41 48 41 72c0 30 -41 52 -41 88c0 39 31 67 69 67c43 0 72 -43 72 -84z" />
    <glyph glyph-name="quoteleft" unicode="&#x2018;" horiz-adv-x="214" 
d="M32 521c0 73 44 139 101 179c7 5 13 7 18 7c6 0 10 -3 15 -9l10 -12c6 -8 6 -13 -3 -22c-20 -20 -41 -48 -41 -72c0 -30 41 -52 41 -88c0 -39 -31 -67 -69 -67c-43 0 -72 43 -72 84z" />
    <glyph glyph-name="quoteright" unicode="&#x2019;" horiz-adv-x="214" 
d="M182 623c0 -73 -44 -139 -101 -179c-7 -5 -13 -7 -18 -7c-6 0 -10 3 -15 9l-10 12c-6 8 -6 13 3 22c20 20 41 48 41 72c0 30 -41 52 -41 88c0 39 31 67 69 67c43 0 72 -43 72 -84z" />
    <glyph glyph-name="divide" unicode="&#xf7;" horiz-adv-x="523" 
d="M333 437c0 -42 -37 -67 -70 -67c-34 0 -72 24 -72 67c0 44 36 67 72 67c35 0 70 -24 70 -67zM333 92c0 -42 -37 -67 -70 -67c-34 0 -72 23 -72 66c0 44 36 68 72 68c35 0 70 -24 70 -67zM460 211h-398c-19 0 -24 9 -24 25v56c0 17 5 24 23 24h398c20 0 26 -7 26 -25v-53
c0 -19 -6 -27 -25 -27z" />
    <glyph glyph-name="lozenge" unicode="&#x25ca;" horiz-adv-x="512" 
d="M482 352v-8c0 -16 -5 -31 -14 -48l-163 -291c-7 -13 -13 -17 -28 -17h-42c-15 0 -21 4 -28 17l-163 291c-9 17 -14 32 -14 48v8c0 16 5 31 14 48l163 288c7 13 13 17 28 17h42c15 0 21 -4 28 -17l163 -288c9 -17 14 -32 14 -48zM369 348l-113 206l-113 -206l113 -209z
" />
    <glyph glyph-name="ydieresis" unicode="&#xff;" horiz-adv-x="514" 
d="M404 485h81c15 0 20 -9 14 -24l-197 -518c-45 -119 -101 -161 -221 -161c-19 0 -39 1 -53 5c-16 5 -16 13 -14 26l7 52c2 13 7 18 18 18c10 0 28 -3 40 -3c62 0 88 22 108 69l19 45l-182 469c-5 12 -1 22 13 22h94c17 0 24 -7 28 -20l110 -328l105 325c5 16 13 23 30 23z
M240 633c0 -37 -33 -58 -61 -58c-29 0 -62 20 -62 57c0 38 30 59 62 59c30 0 61 -21 61 -58zM423 633c0 -37 -33 -58 -61 -58c-29 0 -62 20 -62 57c0 38 30 59 62 59c30 0 61 -21 61 -58z" />
    <glyph glyph-name="Ydieresis" unicode="&#x178;" horiz-adv-x="592" 
d="M306 390h2l142 281c8 16 16 21 35 21h73c18 0 22 -10 14 -25l-206 -381v-263c0 -15 -8 -23 -23 -23h-84c-15 0 -23 7 -23 25v256l-217 387c-6 11 -3 24 15 24h93c18 0 28 -5 35 -19zM275 833c0 -37 -33 -58 -61 -58c-29 0 -62 20 -62 57c0 38 30 59 62 59
c30 0 61 -21 61 -58zM458 833c0 -37 -33 -58 -61 -58c-29 0 -62 20 -62 57c0 38 30 59 62 59c30 0 61 -21 61 -58z" />
    <glyph glyph-name="fraction" unicode="&#x2044;" horiz-adv-x="163" 
d="M347 682l-419 -675c-9 -15 -16 -19 -34 -19h-61c-18 0 -26 9 -17 23l419 675c9 15 16 19 34 19h61c18 0 26 -9 17 -23z" />
    <glyph glyph-name="Euro" unicode="&#x20ac;" horiz-adv-x="561" 
d="M90 352h-49c-12 0 -16 3 -16 16v28c0 13 4 16 16 16h54c10 173 119 293 285 293c56 0 114 -16 158 -40c12 -7 15 -16 9 -29l-27 -59c-5 -10 -12 -13 -23 -8c-37 18 -69 28 -109 28c-100 0 -146 -78 -155 -185h186c14 0 18 -5 15 -18l-6 -26c-3 -14 -7 -16 -21 -16h-176
c0 -18 0 -33 1 -45h168c14 0 18 -5 15 -18l-6 -26c-3 -14 -7 -16 -21 -16h-152c14 -88 66 -151 154 -151c37 0 70 9 107 27c11 5 18 2 23 -8l27 -58c6 -13 3 -22 -9 -29c-44 -24 -100 -40 -158 -40c-166 0 -263 103 -282 259h-57c-12 0 -16 3 -16 16v28c0 13 4 16 16 16h50
c-1 12 -1 28 -1 45z" />
    <glyph glyph-name="guilsinglleft" unicode="&#x2039;" horiz-adv-x="277" 
d="M227 351l-81 -121l81 -121c7 -11 4 -16 -8 -23l-36 -21c-11 -6 -18 -6 -29 7l-111 141c-4 6 -7 11 -7 17s3 11 7 17l111 141c11 13 18 13 29 7l36 -21c12 -7 15 -12 8 -23z" />
    <glyph glyph-name="guilsinglright" unicode="&#x203a;" horiz-adv-x="277" 
d="M50 109l81 121l-81 121c-7 11 -4 16 8 23l36 21c11 6 18 6 29 -7l111 -141c4 -6 7 -11 7 -17s-3 -11 -7 -17l-111 -141c-11 -13 -18 -13 -29 -7l-36 21c-12 7 -15 12 -8 23z" />
    <glyph glyph-name="daggerdbl" unicode="&#x2021;" horiz-adv-x="512" 
d="M475 506v-65c0 -14 -6 -17 -19 -17l-146 2l-1 -99l125 1c13 0 21 -1 21 -16v-65c0 -14 -6 -17 -19 -17l-127 1l-2 -211c0 -15 -4 -20 -19 -20h-68c-13 0 -16 4 -16 21l-2 211l-126 -2c-13 0 -19 2 -19 16v64c0 13 5 18 17 18l127 -1l-1 99l-144 -2c-13 0 -19 2 -19 16v64
c0 13 5 18 17 18l146 -1l-3 152c0 14 5 19 20 19h78c12 0 18 -3 18 -17l-2 -154l143 1c13 0 21 -1 21 -16z" />
    <glyph glyph-name="periodcentered" unicode="&#xb7;" horiz-adv-x="230" 
d="M186 270c0 -41 -37 -67 -71 -67c-35 0 -71 24 -71 66c0 43 34 68 71 68c36 0 71 -25 71 -67z" />
    <glyph glyph-name="quotesinglbase" unicode="&#x201a;" horiz-adv-x="214" 
d="M182 32c0 -73 -44 -139 -101 -179c-7 -5 -13 -7 -18 -7c-6 0 -10 3 -15 9l-10 12c-6 8 -6 13 3 22c20 20 41 48 41 72c0 30 -41 52 -41 88c0 39 31 67 69 67c43 0 72 -43 72 -84z" />
    <glyph glyph-name="quotedblbase" unicode="&#x201e;" horiz-adv-x="406" 
d="M182 32c0 -73 -44 -139 -101 -179c-7 -5 -13 -7 -18 -7c-6 0 -10 3 -15 9l-10 12c-6 8 -6 13 3 22c20 20 41 48 41 72c0 30 -41 52 -41 88c0 39 31 67 69 67c43 0 72 -43 72 -84zM374 32c0 -73 -44 -139 -101 -179c-7 -5 -13 -7 -18 -7c-6 0 -10 3 -15 9l-10 12
c-6 8 -6 13 3 22c20 20 41 48 41 72c0 30 -41 52 -41 88c0 39 31 67 69 67c43 0 72 -43 72 -84z" />
    <glyph glyph-name="perthousand" unicode="&#x2030;" horiz-adv-x="1122" 
d="M664 682l-419 -675c-9 -15 -16 -19 -34 -19h-61c-18 0 -26 9 -17 23l419 675c9 15 16 19 34 19h61c18 0 26 -9 17 -23zM760 176c0 -110 -54 -180 -148 -180s-148 70 -148 180s54 180 148 180s148 -70 148 -180zM662 176c0 69 -18 104 -50 104s-50 -35 -50 -104
s18 -104 50 -104s50 35 50 104zM332 516c0 -110 -54 -180 -148 -180s-148 70 -148 180s54 180 148 180s148 -70 148 -180zM234 516c0 69 -18 104 -50 104s-50 -35 -50 -104s18 -104 50 -104s50 35 50 104zM1086 176c0 -110 -54 -180 -148 -180s-148 70 -148 180
s54 180 148 180s148 -70 148 -180zM988 176c0 69 -18 104 -50 104s-50 -35 -50 -104s18 -104 50 -104s50 35 50 104z" />
    <glyph glyph-name="Acircumflex" unicode="&#xc2;" horiz-adv-x="643" 
d="M9 25l244 647c5 12 12 20 27 20h80c15 0 24 -7 28 -18l246 -648c5 -14 0 -26 -15 -26h-91c-21 0 -28 8 -34 24l-52 147h-253l-52 -150c-4 -13 -11 -21 -27 -21h-86c-16 0 -20 11 -15 25zM223 268h185l-71 211l-20 65h-2l-21 -66zM312 905h16c14 0 20 -3 29 -11l100 -91
c10 -10 11 -17 2 -26l-17 -18c-10 -10 -17 -11 -35 1l-87 57l-87 -57c-18 -12 -25 -11 -35 -1l-17 18c-9 9 -8 16 2 26l100 91c9 8 15 11 29 11z" />
    <glyph glyph-name="Ecircumflex" unicode="&#xca;" horiz-adv-x="538" 
d="M458 385v-59c0 -14 -5 -22 -24 -22h-232v-200h268c17 0 25 -7 25 -23v-57c0 -16 -7 -24 -24 -24h-371c-20 0 -27 5 -27 27v640c0 16 7 25 23 25h377c20 0 23 -9 21 -23l-7 -60c-2 -18 -13 -21 -34 -21h-251v-181h232c19 0 24 -8 24 -22zM280 905h16c14 0 20 -3 29 -11
l100 -91c10 -10 11 -17 2 -26l-17 -18c-10 -10 -17 -11 -35 1l-87 57l-87 -57c-18 -12 -25 -11 -35 -1l-17 18c-9 9 -8 16 2 26l100 91c9 8 15 11 29 11z" />
    <glyph glyph-name="Aacute" unicode="&#xc1;" horiz-adv-x="643" 
d="M9 25l244 647c5 12 12 20 27 20h80c15 0 24 -7 28 -18l246 -648c5 -14 0 -26 -15 -26h-91c-21 0 -28 8 -34 24l-52 147h-253l-52 -150c-4 -13 -11 -21 -27 -21h-86c-16 0 -20 11 -15 25zM223 268h185l-71 211l-20 65h-2l-21 -66zM219 815l137 97c16 12 25 11 35 -4
l30 -45c8 -12 7 -21 -6 -28l-152 -84c-15 -8 -22 -7 -32 7l-17 25c-10 15 -10 22 5 32z" />
    <glyph glyph-name="Edieresis" unicode="&#xcb;" horiz-adv-x="538" 
d="M458 385v-59c0 -14 -5 -22 -24 -22h-232v-200h268c17 0 25 -7 25 -23v-57c0 -16 -7 -24 -24 -24h-371c-20 0 -27 5 -27 27v640c0 16 7 25 23 25h377c20 0 23 -9 21 -23l-7 -60c-2 -18 -13 -21 -34 -21h-251v-181h232c19 0 24 -8 24 -22zM259 833c0 -37 -33 -58 -61 -58
c-29 0 -62 20 -62 57c0 38 30 59 62 59c30 0 61 -21 61 -58zM442 833c0 -37 -33 -58 -61 -58c-29 0 -62 20 -62 57c0 38 30 59 62 59c30 0 61 -21 61 -58z" />
    <glyph glyph-name="Egrave" unicode="&#xc8;" horiz-adv-x="538" 
d="M458 385v-59c0 -14 -5 -22 -24 -22h-232v-200h268c17 0 25 -7 25 -23v-57c0 -16 -7 -24 -24 -24h-371c-20 0 -27 5 -27 27v640c0 16 7 25 23 25h377c20 0 23 -9 21 -23l-7 -60c-2 -18 -13 -21 -34 -21h-251v-181h232c19 0 24 -8 24 -22zM256 912l137 -97
c15 -10 15 -17 5 -32l-17 -25c-10 -14 -17 -15 -32 -7l-152 84c-13 7 -14 16 -6 28l30 45c10 15 19 16 35 4z" />
    <glyph glyph-name="Iacute" unicode="&#xcd;" horiz-adv-x="402" 
d="M342 673v-44c0 -16 -7 -21 -21 -21h-57v-524h55c14 0 21 -9 21 -21v-43c0 -12 -5 -20 -18 -20h-240c-13 0 -20 7 -20 19v45c0 14 6 20 20 20h54v524h-58c-14 0 -20 7 -20 20v44c0 11 6 20 18 20h245c14 0 21 -9 21 -19zM99 815l137 97c16 12 25 11 35 -4l30 -45
c8 -12 7 -21 -6 -28l-152 -84c-15 -8 -22 -7 -32 7l-17 25c-10 15 -10 22 5 32z" />
    <glyph glyph-name="Icircumflex" unicode="&#xce;" horiz-adv-x="402" 
d="M342 673v-44c0 -16 -7 -21 -21 -21h-57v-524h55c14 0 21 -9 21 -21v-43c0 -12 -5 -20 -18 -20h-240c-13 0 -20 7 -20 19v45c0 14 6 20 20 20h54v524h-58c-14 0 -20 7 -20 20v44c0 11 6 20 18 20h245c14 0 21 -9 21 -19zM192 905h16c14 0 20 -3 29 -11l100 -91
c10 -10 11 -17 2 -26l-17 -18c-10 -10 -17 -11 -35 1l-87 57l-87 -57c-18 -12 -25 -11 -35 -1l-17 18c-9 9 -8 16 2 26l100 91c9 8 15 11 29 11z" />
    <glyph glyph-name="Idieresis" unicode="&#xcf;" horiz-adv-x="402" 
d="M342 673v-44c0 -16 -7 -21 -21 -21h-57v-524h55c14 0 21 -9 21 -21v-43c0 -12 -5 -20 -18 -20h-240c-13 0 -20 7 -20 19v45c0 14 6 20 20 20h54v524h-58c-14 0 -20 7 -20 20v44c0 11 6 20 18 20h245c14 0 21 -9 21 -19zM171 833c0 -37 -33 -58 -61 -58
c-29 0 -62 20 -62 57c0 38 30 59 62 59c30 0 61 -21 61 -58zM354 833c0 -37 -33 -58 -61 -58c-29 0 -62 20 -62 57c0 38 30 59 62 59c30 0 61 -21 61 -58z" />
    <glyph glyph-name="Igrave" unicode="&#xcc;" horiz-adv-x="402" 
d="M342 673v-44c0 -16 -7 -21 -21 -21h-57v-524h55c14 0 21 -9 21 -21v-43c0 -12 -5 -20 -18 -20h-240c-13 0 -20 7 -20 19v45c0 14 6 20 20 20h54v524h-58c-14 0 -20 7 -20 20v44c0 11 6 20 18 20h245c14 0 21 -9 21 -19zM158 912l137 -97c15 -10 15 -17 5 -32l-17 -25
c-10 -14 -17 -15 -32 -7l-152 84c-13 7 -14 16 -6 28l30 45c10 15 19 16 35 4z" />
    <glyph glyph-name="Oacute" unicode="&#xd3;" horiz-adv-x="695" 
d="M652 350c0 -226 -129 -362 -308 -362c-191 0 -301 139 -301 356c0 215 120 361 308 361c198 0 301 -150 301 -355zM514 347c0 168 -59 249 -166 249c-100 0 -167 -93 -167 -249c0 -166 61 -250 167 -250c99 0 166 87 166 250zM255 815l137 97c16 12 25 11 35 -4l30 -45
c8 -12 7 -21 -6 -28l-152 -84c-15 -8 -22 -7 -32 7l-17 25c-10 15 -10 22 5 32z" />
    <glyph glyph-name="Ocircumflex" unicode="&#xd4;" horiz-adv-x="695" 
d="M652 350c0 -226 -129 -362 -308 -362c-191 0 -301 139 -301 356c0 215 120 361 308 361c198 0 301 -150 301 -355zM514 347c0 168 -59 249 -166 249c-100 0 -167 -93 -167 -249c0 -166 61 -250 167 -250c99 0 166 87 166 250zM348 905h16c14 0 20 -3 29 -11l100 -91
c10 -10 11 -17 2 -26l-17 -18c-10 -10 -17 -11 -35 1l-87 57l-87 -57c-18 -12 -25 -11 -35 -1l-17 18c-9 9 -8 16 2 26l100 91c9 8 15 11 29 11z" />
    <glyph glyph-name="apple" horiz-adv-x="591" 
d="M491 202h-261v65h196v66h-196v195h261v-65h-196v-65h196v-196zM491 594h-326v-529h73v-65h-138v659h391v-65z" />
    <glyph glyph-name="Ograve" unicode="&#xd2;" horiz-adv-x="695" 
d="M652 350c0 -226 -129 -362 -308 -362c-191 0 -301 139 -301 356c0 215 120 361 308 361c198 0 301 -150 301 -355zM514 347c0 168 -59 249 -166 249c-100 0 -167 -93 -167 -249c0 -166 61 -250 167 -250c99 0 166 87 166 250zM314 912l137 -97c15 -10 15 -17 5 -32
l-17 -25c-10 -14 -17 -15 -32 -7l-152 84c-13 7 -14 16 -6 28l30 45c10 15 19 16 35 4z" />
    <glyph glyph-name="Uacute" unicode="&#xda;" horiz-adv-x="720" 
d="M650 668v-361c0 -206 -97 -319 -292 -319c-211 0 -288 116 -288 321v359c0 17 10 24 26 24h79c17 0 24 -7 24 -24v-348c0 -147 38 -223 164 -223c121 0 159 80 159 223v348c0 17 9 24 25 24h79c17 0 24 -7 24 -24zM268 815l137 97c16 12 25 11 35 -4l30 -45
c8 -12 7 -21 -6 -28l-152 -84c-15 -8 -22 -7 -32 7l-17 25c-10 15 -10 22 5 32z" />
    <glyph glyph-name="Ucircumflex" unicode="&#xdb;" horiz-adv-x="720" 
d="M650 668v-361c0 -206 -97 -319 -292 -319c-211 0 -288 116 -288 321v359c0 17 10 24 26 24h79c17 0 24 -7 24 -24v-348c0 -147 38 -223 164 -223c121 0 159 80 159 223v348c0 17 9 24 25 24h79c17 0 24 -7 24 -24zM357 905h16c14 0 20 -3 29 -11l100 -91
c10 -10 11 -17 2 -26l-17 -18c-10 -10 -17 -11 -35 1l-87 57l-87 -57c-18 -12 -25 -11 -35 -1l-17 18c-9 9 -8 16 2 26l100 91c9 8 15 11 29 11z" />
    <glyph glyph-name="Ugrave" unicode="&#xd9;" horiz-adv-x="720" 
d="M650 668v-361c0 -206 -97 -319 -292 -319c-211 0 -288 116 -288 321v359c0 17 10 24 26 24h79c17 0 24 -7 24 -24v-348c0 -147 38 -223 164 -223c121 0 159 80 159 223v348c0 17 9 24 25 24h79c17 0 24 -7 24 -24zM317 912l137 -97c15 -10 15 -17 5 -32l-17 -25
c-10 -14 -17 -15 -32 -7l-152 84c-13 7 -14 16 -6 28l30 45c10 15 19 16 35 4z" />
    <glyph glyph-name="dotlessi" unicode="&#x131;" horiz-adv-x="261" 
d="M192 462v-437c0 -18 -8 -25 -25 -25h-70c-18 0 -26 7 -26 25v437c0 17 10 23 26 23h70c16 0 25 -5 25 -23z" />
    <glyph glyph-name="circumflex" unicode="&#x2c6;" horiz-adv-x="344" 
d="M164 705h16c14 0 20 -3 29 -11l100 -91c10 -10 11 -17 2 -26l-17 -18c-10 -10 -17 -11 -35 1l-87 57l-87 -57c-18 -12 -25 -11 -35 -1l-17 18c-9 9 -8 16 2 26l100 91c9 8 15 11 29 11z" />
    <glyph glyph-name="tilde" unicode="&#x2dc;" horiz-adv-x="344" 
d="M290 667c15 9 22 8 28 -4l16 -32c6 -12 4 -20 -10 -29c-27 -18 -61 -33 -91 -33c-49 0 -86 35 -119 35c-19 0 -37 -7 -60 -21c-15 -9 -22 -8 -28 4l-16 32c-6 12 -4 20 10 29c27 18 61 33 91 33c49 0 86 -35 119 -35c19 0 37 7 60 21z" />
    <glyph glyph-name="macron" unicode="&#xaf;" horiz-adv-x="344" 
d="M51 667h241c15 0 20 -4 20 -19v-38c0 -15 -5 -19 -20 -19h-241c-15 0 -20 4 -20 19v38c0 15 5 19 20 19z" />
    <glyph glyph-name="breve" unicode="&#x2d8;" horiz-adv-x="344" 
d="M172 562c-68 0 -124 40 -135 103c-3 17 3 24 19 24h31c20 0 22 -5 28 -18c11 -24 30 -34 57 -34s46 10 57 34c6 13 8 18 28 18h31c16 0 22 -7 19 -24c-11 -63 -65 -103 -135 -103z" />
    <glyph glyph-name="dotaccent" unicode="&#x2d9;" horiz-adv-x="344" 
d="M236 630c0 -38 -33 -61 -63 -61s-65 22 -65 60c0 39 33 61 65 61s63 -22 63 -60z" />
    <glyph glyph-name="ring" unicode="&#x2da;" horiz-adv-x="344" 
d="M172 598c16 0 26 12 26 27s-10 27 -26 27s-26 -12 -26 -27s10 -27 26 -27zM172 545c-47 0 -82 34 -82 80s35 80 82 80s82 -34 82 -80s-35 -80 -82 -80z" />
    <glyph glyph-name="cedilla" unicode="&#xb8;" horiz-adv-x="344" 
d="M296 -129c0 -50 -46 -87 -115 -87c-25 0 -51 5 -73 14c-12 5 -15 9 -13 19l7 32c2 7 5 11 21 6s38 -9 50 -9c22 0 41 9 41 26c0 16 -7 26 -49 26h-14c-34 0 -37 9 -35 31l8 71h64l-3 -44h8c65 0 103 -29 103 -85z" />
    <glyph glyph-name="hungarumlaut" unicode="&#x2dd;" horiz-adv-x="344" 
d="M141 725l29 -33c10 -11 12 -19 -1 -28l-127 -100c-17 -14 -24 -13 -34 -1l-14 17c-10 12 -10 16 2 29l109 111c15 15 25 18 36 5zM321 725l29 -33c10 -11 12 -19 -1 -28l-127 -100c-17 -14 -24 -13 -34 -1l-14 17c-10 12 -10 16 2 29l109 111c15 15 25 18 36 5z" />
    <glyph glyph-name="ogonek" unicode="&#x2db;" horiz-adv-x="344" 
d="M272 -151l8 -27c2 -7 3 -13 -12 -20c-20 -9 -55 -16 -83 -16c-67 0 -112 37 -112 93c0 61 51 107 121 135l44 -14c-56 -39 -81 -72 -81 -107c0 -26 17 -43 49 -43c16 0 30 3 49 8c11 3 14 0 17 -9z" />
    <glyph glyph-name="caron" unicode="&#x2c7;" horiz-adv-x="344" 
d="M180 551h-16c-14 0 -20 3 -29 11l-100 91c-10 10 -11 17 -2 26l17 18c10 10 17 11 35 -1l87 -57l87 57c18 12 25 11 35 1l17 -18c9 -9 8 -16 -2 -26l-100 -91c-9 -8 -15 -11 -29 -11z" />
    <glyph glyph-name="Scaron" unicode="&#x160;" horiz-adv-x="540" 
d="M500 202c0 -139 -113 -214 -243 -214c-60 0 -131 11 -191 32c-18 7 -20 17 -15 32l21 65c5 17 16 19 33 13c47 -17 99 -30 149 -30c54 0 115 26 115 89c0 46 -34 71 -73 90l-130 65c-71 35 -118 94 -118 172c0 122 120 189 231 189c66 0 121 -10 179 -35
c19 -8 24 -16 17 -33l-24 -61c-6 -17 -17 -18 -33 -11c-42 18 -92 31 -132 31c-47 0 -101 -20 -101 -76c0 -41 38 -65 71 -81l111 -54c79 -38 133 -91 133 -183zM286 751h-16c-14 0 -20 3 -29 11l-100 91c-10 10 -11 17 -2 26l17 18c10 10 17 11 35 -1l87 -57l87 57
c18 12 25 11 35 1l17 -18c9 -9 8 -16 -2 -26l-100 -91c-9 -8 -15 -11 -29 -11z" />
    <glyph glyph-name="scaron" unicode="&#x161;" horiz-adv-x="411" 
d="M386 143c0 -105 -91 -155 -193 -155c-52 0 -109 15 -154 35c-11 5 -15 12 -11 23l18 55c4 12 12 15 24 10c47 -20 91 -31 126 -31c44 0 74 20 74 53c0 28 -19 43 -60 59l-79 30c-57 21 -103 65 -103 133c0 98 92 143 181 143c48 0 96 -8 145 -30c13 -6 13 -12 10 -24
l-17 -54c-4 -12 -14 -13 -24 -9c-34 13 -76 24 -108 24c-42 0 -63 -23 -63 -46c0 -22 11 -36 49 -51l90 -37c53 -22 95 -63 95 -128zM215 551h-16c-14 0 -20 3 -29 11l-100 91c-10 10 -11 17 -2 26l17 18c10 10 17 11 35 -1l87 -57l87 57c18 12 25 11 35 1l17 -18
c9 -9 8 -16 -2 -26l-100 -91c-9 -8 -15 -11 -29 -11z" />
    <glyph glyph-name="currency" unicode="&#xa4;" horiz-adv-x="561" 
d="M441 346c0 -24 -6 -49 -14 -69l47 -47c9 -9 9 -17 -2 -28l-30 -30c-12 -12 -19 -13 -29 -3l-44 44c-25 -16 -56 -24 -89 -24s-64 8 -89 24l-44 -44c-10 -10 -17 -9 -29 3l-30 30c-11 11 -11 19 -2 28l47 47c-8 20 -14 45 -14 69s6 49 14 69l-47 47c-9 9 -9 17 2 28l30 30
c12 12 19 13 29 3l44 -44c25 16 56 24 89 24s64 -8 89 -24l44 44c10 10 17 9 29 -3l30 -30c11 -11 11 -19 2 -28l-47 -47c8 -20 14 -45 14 -69zM353 346c0 42 -26 75 -73 75s-73 -33 -73 -75s26 -75 73 -75s73 33 73 75z" />
    <glyph glyph-name="brokenbar" unicode="&#xa6;" horiz-adv-x="230" 
d="M170 686v-231c0 -18 -7 -26 -24 -26h-60c-18 0 -26 8 -26 26v230c0 17 9 24 25 24h61c17 0 24 -5 24 -23zM170 242v-232c0 -18 -7 -25 -24 -25h-60c-18 0 -26 7 -26 25v231c0 17 9 24 25 24h61c17 0 24 -5 24 -23z" />
    <glyph glyph-name="uni00AD" unicode="&#xad;" horiz-adv-x="287" 
d="M252 296v-63c0 -19 -6 -27 -25 -27h-168c-19 0 -24 10 -24 26v65c0 17 5 24 23 24h168c20 0 26 -7 26 -25z" />
    <glyph glyph-name="Eth" unicode="&#xd0;" horiz-adv-x="708" 
d="M665 343c0 -120 -41 -210 -109 -268c-62 -52 -149 -75 -248 -75h-191c-20 0 -29 5 -29 28v283h-67c-17 0 -21 4 -21 19v40c0 16 4 19 20 19h68v273c0 21 6 30 31 30h144c115 0 193 -13 259 -51c90 -52 143 -150 143 -298zM218 389h113c16 0 20 -3 20 -19v-40
c0 -15 -4 -19 -21 -19h-112v-203h77c69 0 127 11 169 53c40 40 63 100 63 183c0 91 -27 160 -78 198c-40 30 -94 41 -158 41h-73v-194z" />
    <glyph glyph-name="multiply" unicode="&#xd7;" horiz-adv-x="523" 
d="M366 85l-105 104l-103 -104c-14 -13 -24 -10 -35 1l-40 40c-12 12 -13 20 0 33l104 104l-102 103c-14 14 -14 23 -1 36l37 38c14 13 24 14 37 1l103 -103l103 102c14 14 23 14 36 1l38 -37c13 -14 14 -24 1 -37l-103 -104l104 -103c13 -14 10 -24 -1 -35l-40 -40
c-12 -12 -20 -13 -33 0z" />
    <glyph glyph-name="Yacute" unicode="&#xdd;" horiz-adv-x="592" 
d="M306 390h2l142 281c8 16 16 21 35 21h73c18 0 22 -10 14 -25l-206 -381v-263c0 -15 -8 -23 -23 -23h-84c-15 0 -23 7 -23 25v256l-217 387c-6 11 -3 24 15 24h93c18 0 28 -5 35 -19zM206 815l137 97c16 12 25 11 35 -4l30 -45c8 -12 7 -21 -6 -28l-152 -84
c-15 -8 -22 -7 -32 7l-17 25c-10 15 -10 22 5 32z" />
    <glyph glyph-name="Thorn" unicode="&#xde;" horiz-adv-x="556" 
d="M202 668v-88h41c106 0 184 -20 233 -76c32 -37 50 -88 50 -142c0 -79 -30 -137 -79 -176c-51 -39 -117 -55 -187 -55c-18 0 -38 1 -58 3v-109c0 -18 -7 -25 -24 -25h-79c-18 0 -26 7 -26 25v643c0 17 10 24 26 24h79c16 0 24 -6 24 -24zM396 357c0 91 -56 123 -142 123
h-52v-248c9 -1 25 -2 45 -2c40 0 88 4 119 37c19 21 30 51 30 90z" />
    <glyph glyph-name="eth" unicode="&#xf0;" horiz-adv-x="553" 
d="M366 753l19 -25c11 -14 10 -19 -6 -31l-33 -24c123 -116 167 -265 167 -398c0 -160 -79 -287 -240 -287c-159 0 -239 110 -239 256c0 144 92 254 238 254c35 0 66 -8 88 -24c-20 48 -52 99 -90 143l-72 -52c-14 -10 -21 -9 -29 3l-19 28c-7 11 -8 17 6 27l62 45
c-13 12 -27 22 -40 31c-14 9 -13 15 -5 24l27 31c9 10 17 10 34 1c19 -11 37 -23 54 -36l49 36c14 10 21 9 29 -2zM391 243c0 82 -26 161 -114 161c-89 0 -118 -78 -118 -158c0 -82 26 -162 114 -162s118 77 118 159z" />
    <glyph glyph-name="yacute" unicode="&#xfd;" horiz-adv-x="514" 
d="M404 485h81c15 0 20 -9 14 -24l-197 -518c-45 -119 -101 -161 -221 -161c-19 0 -39 1 -53 5c-16 5 -16 13 -14 26l7 52c2 13 7 18 18 18c10 0 28 -3 40 -3c62 0 88 22 108 69l19 45l-182 469c-5 12 -1 22 13 22h94c17 0 24 -7 28 -20l110 -328l105 325c5 16 13 23 30 23z
M175 615l137 97c16 12 25 11 35 -4l30 -45c8 -12 7 -21 -6 -28l-152 -84c-15 -8 -22 -7 -32 7l-17 25c-10 15 -10 22 5 32z" />
    <glyph glyph-name="thorn" unicode="&#xfe;" horiz-adv-x="557" 
d="M63 -190v866c0 16 4 25 20 27l81 11c11 1 20 -2 20 -18v-249c30 30 81 51 131 51c65 0 112 -25 145 -61c41 -45 63 -113 63 -187c0 -76 -23 -146 -65 -194c-37 -42 -88 -68 -153 -68c-46 0 -92 17 -121 47v-225c0 -20 -10 -26 -27 -26h-70c-16 0 -24 9 -24 26zM397 244
c0 52 -10 91 -28 116c-20 29 -50 41 -83 41c-37 0 -82 -24 -102 -49v-218c20 -27 60 -49 98 -49c34 0 62 16 79 37c24 30 36 69 36 122z" />
    <glyph glyph-name="Lslash" unicode="&#x141;" horiz-adv-x="500" 
d="M209 461l86 72c10 8 21 7 21 -6v-48c0 -19 -2 -26 -20 -42l-87 -73v-257h253c17 0 24 -8 24 -23v-60c0 -18 -9 -24 -24 -24h-356c-18 0 -26 6 -26 28v227l-75 -62c-10 -8 -21 -7 -21 6v48c0 19 2 26 20 42l76 64v314c0 16 8 25 24 25h80c18 0 25 -7 25 -26v-205z" />
    <glyph glyph-name="lslash" unicode="&#x142;" horiz-adv-x="327" 
d="M228 697v-267l70 58c13 11 23 7 23 -6v-42c0 -20 -3 -28 -20 -42l-73 -61v-312c0 -17 -8 -25 -22 -25h-76c-14 0 -23 7 -23 24v212l-70 -58c-13 -11 -23 -7 -23 6v42c0 20 3 28 20 42l73 61v348c0 16 4 25 20 27l81 11c11 1 20 -2 20 -18z" />
    <glyph glyph-name="Zcaron" unicode="&#x17d;" horiz-adv-x="585" 
d="M556 81v-57c0 -16 -7 -24 -25 -24h-484c-13 0 -19 9 -19 21v31c0 12 2 20 10 32l331 503v1h-293c-18 0 -25 6 -25 23v61c0 13 6 20 20 20h447c18 0 24 -9 24 -22v-24c0 -15 -2 -28 -12 -43l-329 -498v-1h332c15 0 23 -5 23 -23zM308 751h-16c-14 0 -20 3 -29 11l-100 91
c-10 10 -11 17 -2 26l17 18c10 10 17 11 35 -1l87 -57l87 57c18 12 25 11 35 1l17 -18c9 -9 8 -16 -2 -26l-100 -91c-9 -8 -15 -11 -29 -11z" />
    <glyph glyph-name="zcaron" unicode="&#x17e;" horiz-adv-x="430" 
d="M406 66v-47c0 -12 -7 -19 -19 -19h-339c-18 0 -24 10 -24 24v25c0 14 1 21 10 34l216 318v1h-185c-19 0 -23 5 -23 26v36c0 13 6 21 19 21h316c19 0 23 -10 23 -21v-28c0 -12 -2 -22 -10 -33l-220 -318v-2h216c12 0 20 -4 20 -17zM233 551h-16c-14 0 -20 3 -29 11
l-100 91c-10 10 -11 17 -2 26l17 18c10 10 17 11 35 -1l87 -57l87 57c18 12 25 11 35 1l17 -18c9 -9 8 -16 -2 -26l-100 -91c-9 -8 -15 -11 -29 -11z" />
    <glyph glyph-name="onesuperior" unicode="&#xb9;" horiz-adv-x="340" 
d="M245 782v-317c0 -13 -4 -19 -22 -19h-49c-18 0 -22 6 -22 19v234l-62 -32c-14 -7 -21 -6 -28 6l-20 34c-6 10 -6 18 7 25l107 57c14 7 20 9 37 9h34c13 0 18 -4 18 -16z" />
    <glyph glyph-name="twosuperior" unicode="&#xb2;" horiz-adv-x="340" 
d="M43 464v16c0 20 4 25 22 43c97 92 131 127 131 168c0 23 -16 36 -44 36c-21 0 -45 -8 -69 -20c-10 -5 -17 -4 -22 7l-14 32c-5 12 -4 20 5 25c29 17 74 31 116 31c72 0 125 -38 125 -102c0 -52 -30 -100 -126 -178h107c14 0 18 -4 18 -17v-43c0 -11 -3 -16 -17 -16h-215
c-12 0 -17 4 -17 18z" />
    <glyph glyph-name="threesuperior" unicode="&#xb3;" horiz-adv-x="340" 
d="M104 612v36c0 10 3 14 14 14h20c31 0 53 7 53 34c0 21 -19 31 -43 31c-20 0 -43 -6 -66 -15c-12 -5 -17 -2 -21 7l-13 33c-4 12 -4 18 9 25c32 17 70 25 107 25c69 0 122 -33 122 -93c0 -34 -18 -60 -49 -74c37 -12 65 -38 65 -82c0 -64 -56 -111 -141 -111
c-43 0 -83 9 -114 26c-11 6 -13 12 -9 23l13 35c5 13 12 16 24 11c27 -12 55 -19 75 -19c32 0 55 13 55 41s-24 39 -72 39h-15c-12 0 -14 4 -14 14z" />
    <glyph glyph-name="onequarter" unicode="&#xbc;" horiz-adv-x="844" 
d="M678 139v60c0 12 3 17 20 17h52c17 0 20 -5 20 -17v-182c0 -12 -3 -17 -20 -17h-52c-17 0 -20 5 -20 17v46h-166c-13 0 -18 5 -18 19v19c0 18 4 35 14 57l78 179c5 11 9 15 24 15h56c14 0 19 -7 14 -20l-81 -193h79zM257 676v-317c0 -13 -4 -19 -22 -19h-49
c-18 0 -22 6 -22 19v234l-62 -32c-14 -7 -21 -6 -28 6l-20 34c-6 10 -6 18 7 25l107 57c14 7 20 9 37 9h34c13 0 18 -4 18 -16zM681 682l-419 -675c-9 -15 -16 -19 -34 -19h-61c-18 0 -26 9 -17 23l419 675c9 15 16 19 34 19h61c18 0 26 -9 17 -23z" />
    <glyph glyph-name="onehalf" unicode="&#xbd;" horiz-adv-x="844" 
d="M257 676v-317c0 -13 -4 -19 -22 -19h-49c-18 0 -22 6 -22 19v234l-62 -32c-14 -7 -21 -6 -28 6l-20 34c-6 10 -6 18 7 25l107 57c14 7 20 9 37 9h34c13 0 18 -4 18 -16zM681 682l-419 -675c-9 -15 -16 -19 -34 -19h-61c-18 0 -26 9 -17 23l419 675c9 15 16 19 34 19h61
c18 0 26 -9 17 -23zM520 18v16c0 20 4 25 22 43c97 92 131 127 131 168c0 23 -16 36 -44 36c-21 0 -45 -8 -69 -20c-10 -5 -17 -4 -22 7l-14 32c-5 12 -4 20 5 25c29 17 74 31 116 31c72 0 125 -38 125 -102c0 -52 -30 -100 -126 -178h107c14 0 18 -4 18 -17v-43
c0 -11 -3 -16 -17 -16h-215c-12 0 -17 4 -17 18z" />
    <glyph glyph-name="threequarters" unicode="&#xbe;" horiz-adv-x="844" 
d="M120 506v36c0 10 3 14 14 14h20c31 0 53 7 53 34c0 21 -19 31 -43 31c-20 0 -43 -6 -66 -15c-12 -5 -17 -2 -21 7l-13 33c-4 12 -4 18 9 25c32 17 70 25 107 25c69 0 122 -33 122 -93c0 -34 -18 -60 -49 -74c37 -12 65 -38 65 -82c0 -64 -56 -111 -141 -111
c-43 0 -83 9 -114 26c-11 6 -13 12 -9 23l13 35c5 13 12 16 24 11c27 -12 55 -19 75 -19c32 0 55 13 55 41s-24 39 -72 39h-15c-12 0 -14 4 -14 14zM696 139v60c0 12 3 17 20 17h52c17 0 20 -5 20 -17v-182c0 -12 -3 -17 -20 -17h-52c-17 0 -20 5 -20 17v46h-166
c-13 0 -18 5 -18 19v19c0 18 4 35 14 57l78 179c5 11 9 15 24 15h56c14 0 19 -7 14 -20l-81 -193h79zM699 682l-419 -675c-9 -15 -16 -19 -34 -19h-61c-18 0 -26 9 -17 23l419 675c9 15 16 19 34 19h61c18 0 26 -9 17 -23z" />
    <glyph glyph-name="estimated" unicode="&#x212e;" horiz-adv-x="872" 
d="M832 336h-641c-3 0 -5 -1 -5 -5v-193c0 -9 4 -16 9 -23c60 -64 147 -105 243 -105c102 0 193 46 254 118h58c-72 -84 -186 -139 -313 -139c-218 0 -397 159 -397 356c0 198 179 356 397 356s395 -158 395 -356v-9zM687 361v196c0 9 -4 17 -10 23
c-61 61 -146 100 -239 100c-96 0 -181 -40 -242 -103c-6 -6 -10 -15 -10 -25v-191c0 -3 2 -5 5 -5h491c3 0 5 2 5 5z" />
    <glyph glyph-name="minus" unicode="&#x2212;" horiz-adv-x="523" 
d="M460 211h-398c-19 0 -24 9 -24 25v56c0 17 5 24 23 24h398c20 0 26 -7 26 -25v-53c0 -19 -6 -27 -25 -27z" />
    <glyph glyph-name="litre" unicode="&#x2113;" horiz-adv-x="533" 
d="M264 253v-57c0 -74 19 -114 69 -114c34 0 64 24 94 58c7 8 14 8 22 0l31 -28c8 -8 9 -12 1 -23c-50 -67 -109 -101 -179 -101c-52 0 -91 17 -116 44c-30 33 -42 78 -42 142v30c-13 -5 -57 -19 -69 -22s-16 0 -18 9l-9 39c-2 9 -3 15 9 20l87 37v203c0 121 41 215 166 215
c104 0 159 -67 159 -170c0 -120 -62 -210 -205 -282zM357 532c0 52 -14 85 -46 85c-35 0 -47 -40 -47 -102v-170c67 68 93 123 93 187z" />
    <glyph glyph-name="numero" unicode="&#x2116;" horiz-adv-x="1042" 
d="M652 667v-642c0 -21 -9 -25 -24 -25h-67c-15 0 -27 6 -37 20l-323 450h-1v-445c0 -19 -8 -25 -25 -25h-74c-18 0 -26 4 -26 24v643c0 21 9 25 26 25h67c16 0 24 -5 33 -17l324 -452h1v446c0 17 9 23 25 23h78c21 0 23 -11 23 -25zM995 48v-23c0 -18 -6 -25 -25 -25h-239
c-17 0 -23 9 -23 25v23c0 16 5 24 23 24h240c16 0 24 -7 24 -24zM996 275c0 -84 -49 -154 -145 -154s-145 70 -145 154s49 154 145 154s145 -70 145 -154zM911 275c0 45 -18 87 -60 87s-60 -42 -60 -87s18 -87 60 -87s60 42 60 87z" />
    <glyph glyph-name="numbersign.lprop" horiz-adv-x="561" 
d="M437 400l-17 -111h74c15 0 19 -6 18 -18l-7 -57c-2 -14 -8 -16 -19 -16h-81l-27 -183c-2 -12 -6 -15 -18 -15h-73c-16 0 -20 5 -18 19l27 179h-82l-27 -183c-2 -12 -6 -15 -18 -15h-73c-16 0 -20 5 -18 19l27 179h-69c-15 0 -19 6 -18 18l7 57c2 14 8 16 19 16h75l17 111
h-69c-15 0 -19 6 -18 18l7 57c2 14 8 16 19 16h75l28 186c2 12 6 15 18 15h73c16 0 20 -5 18 -19l-28 -182h83l29 186c2 12 6 15 18 15h73c16 0 20 -5 18 -19l-30 -182h75c15 0 19 -6 18 -18l-7 -57c-2 -14 -8 -16 -19 -16h-80zM328 400h-81l-19 -111h83z" />
    <glyph glyph-name="dollar.lprop" horiz-adv-x="533" 
d="M498 197c0 -119 -82 -188 -189 -205v-73c0 -16 0 -21 -19 -21h-25c-17 0 -18 7 -18 21v69c-59 0 -120 11 -180 32c-18 7 -20 14 -15 33l18 63c5 16 17 17 32 12c43 -16 97 -29 144 -31h1v212l-83 40c-71 34 -116 91 -116 169c0 111 97 176 199 186v79c0 12 6 16 15 16h30
c14 0 17 -4 17 -17v-77c52 -3 98 -14 147 -35c14 -6 18 -12 18 -20c0 -3 -1 -7 -2 -10l-22 -62c-7 -19 -20 -16 -36 -9c-31 13 -70 24 -105 29v-193l47 -22c79 -37 142 -94 142 -186zM247 434v163c-37 -6 -73 -33 -73 -75c0 -45 30 -67 73 -88zM377 189c0 43 -31 75 -68 91
v-175c38 12 68 40 68 84z" />
    <glyph glyph-name="percent.lprop" horiz-adv-x="796" 
d="M664 682l-419 -675c-9 -15 -16 -19 -34 -19h-61c-18 0 -26 9 -17 23l419 675c9 15 16 19 34 19h61c18 0 26 -9 17 -23zM760 176c0 -110 -54 -180 -148 -180s-148 70 -148 180s54 180 148 180s148 -70 148 -180zM662 176c0 69 -18 104 -50 104s-50 -35 -50 -104
s18 -104 50 -104s50 35 50 104zM332 516c0 -110 -54 -180 -148 -180s-148 70 -148 180s54 180 148 180s148 -70 148 -180zM234 516c0 69 -18 104 -50 104s-50 -35 -50 -104s18 -104 50 -104s50 35 50 104z" />
    <glyph glyph-name="zero.lprop" horiz-adv-x="561" 
d="M528 348c0 -189 -68 -360 -247 -360s-248 166 -248 355c0 188 75 362 250 362c178 0 245 -169 245 -357zM394 348c0 152 -33 246 -111 246c-83 0 -116 -100 -116 -246c0 -149 29 -248 114 -248c86 0 113 100 113 248z" />
    <glyph glyph-name="one.lprop" horiz-adv-x="406" 
d="M342 667v-637c0 -23 -9 -30 -31 -30h-65c-26 0 -32 5 -32 29v522l-139 -79c-15 -9 -28 -9 -37 9l-24 47c-7 14 -4 26 10 34l200 119c15 9 25 11 45 11h48c16 0 25 -7 25 -25z" />
    <glyph glyph-name="two.lprop" horiz-adv-x="516" 
d="M486 512c0 -114 -99 -214 -203 -312c-35 -33 -70 -65 -99 -93h265c20 0 29 -6 29 -25v-53c0 -19 -8 -29 -29 -29h-392c-24 0 -31 8 -31 31v48c0 20 4 28 18 42c62 63 131 123 187 181c76 79 124 144 124 202c0 62 -44 92 -103 92c-45 0 -88 -13 -144 -44
c-13 -7 -25 -7 -33 10l-23 50c-6 14 -5 25 11 34c59 36 130 59 206 59c124 0 217 -68 217 -193z" />
    <glyph glyph-name="three.lprop" horiz-adv-x="510" 
d="M474 205c0 -133 -118 -217 -248 -217c-72 0 -134 14 -183 39c-14 7 -21 18 -14 38l18 49c5 15 18 17 32 11c41 -18 89 -32 139 -32c80 0 129 47 129 116c0 90 -87 115 -160 115h-18c-19 0 -24 12 -24 27v42c0 16 4 26 23 26h33c73 0 119 30 119 98c0 55 -40 86 -101 86
c-40 0 -84 -13 -126 -35c-14 -7 -25 -8 -32 9l-19 48c-4 11 -3 22 9 30c54 35 116 50 188 50c107 0 208 -60 208 -177c0 -72 -46 -132 -107 -152c71 -19 134 -83 134 -171z" />
    <glyph glyph-name="four.lprop" horiz-adv-x="559" 
d="M499 412v-387c0 -19 -12 -25 -28 -25h-73c-17 0 -27 6 -27 26v124h-315c-24 0 -28 13 -28 31v37c0 18 2 28 13 50l189 398c8 18 15 26 35 26h72c21 0 25 -15 17 -32l-186 -403h203v155c0 20 11 25 28 25h72c18 0 28 -5 28 -25z" />
    <glyph glyph-name="five.lprop" horiz-adv-x="526" 
d="M494 218c0 -147 -115 -230 -262 -230c-65 0 -129 16 -185 46c-15 8 -20 20 -13 36l23 53c7 15 19 17 34 8c48 -27 98 -37 147 -37c71 0 127 43 127 118c0 40 -14 73 -38 94c-32 28 -78 38 -133 38h-83c-25 0 -34 13 -34 38v276c0 26 10 34 32 34h324c20 0 29 -8 29 -28
v-52c0 -19 -7 -28 -28 -28h-230v-145h18c144 0 272 -64 272 -221z" />
    <glyph glyph-name="six.lprop" horiz-adv-x="547" 
d="M517 236c0 -133 -85 -248 -231 -248c-188 0 -246 154 -246 311c0 204 93 406 309 406c34 0 68 -5 99 -15c17 -5 20 -15 17 -30l-12 -54c-3 -13 -14 -21 -29 -16c-16 5 -41 11 -66 11c-119 0 -167 -92 -176 -196c35 29 75 42 125 42c120 0 210 -71 210 -211zM386 227
c0 62 -28 116 -96 116c-41 0 -90 -22 -118 -50v-25c0 -109 39 -174 115 -174c72 0 99 72 99 133z" />
    <glyph glyph-name="seven.lprop" horiz-adv-x="501" 
d="M490 665v-49c0 -16 -3 -28 -11 -45l-263 -545c-11 -22 -22 -26 -44 -26h-88c-20 0 -24 19 -16 34l272 548h-284c-20 0 -26 11 -26 28v55c0 17 5 27 25 27h407c20 0 28 -8 28 -27z" />
    <glyph glyph-name="eight.lprop" horiz-adv-x="561" 
d="M526 204c0 -134 -115 -216 -247 -216s-243 68 -243 205c0 80 61 145 132 178c-58 28 -102 86 -102 152c0 114 98 182 218 182c117 0 210 -63 210 -179c0 -63 -50 -122 -105 -151c81 -33 137 -97 137 -171zM367 522c0 49 -34 84 -88 84c-47 0 -87 -35 -87 -80
c0 -50 46 -87 93 -110c38 21 82 54 82 106zM397 198c0 67 -71 106 -125 127c-52 -25 -107 -67 -107 -126c0 -67 54 -111 117 -111s115 39 115 110z" />
    <glyph glyph-name="nine.lprop" horiz-adv-x="547" 
d="M30 457c0 133 85 248 231 248c188 0 246 -154 246 -311c0 -204 -93 -406 -309 -406c-34 0 -68 5 -99 15c-17 5 -20 15 -17 30l12 54c3 13 14 21 29 16c16 -5 41 -11 66 -11c119 0 167 92 176 196c-35 -29 -75 -42 -125 -42c-120 0 -210 71 -210 211zM161 466
c0 -62 28 -116 96 -116c41 0 90 22 118 50v25c0 109 -39 174 -115 174c-72 0 -99 -72 -99 -133z" />
    <glyph glyph-name="cent.lprop" horiz-adv-x="489" 
d="M433 95l14 -45c6 -18 5 -24 -12 -32c-37 -17 -73 -26 -110 -28v-70c0 -15 -3 -20 -21 -20h-21c-17 0 -19 6 -19 22v67c-137 11 -218 104 -218 249c0 144 83 244 218 258v75c0 15 2 18 17 18h26c16 0 18 -3 18 -18v-74c36 -2 76 -12 108 -27c13 -6 14 -13 11 -26l-13 -53
c-3 -14 -12 -16 -25 -10c-23 10 -51 18 -81 20v-318c31 2 58 10 86 21c12 4 18 3 22 -9zM264 87v310c-55 -15 -93 -66 -93 -153c0 -84 32 -141 93 -157z" />
    <glyph glyph-name="sterling.lprop" horiz-adv-x="539" 
d="M132 215v93h-48c-16 0 -20 3 -20 18v54c0 17 5 18 21 18h47v79c0 73 18 125 54 165s93 63 165 63c47 0 93 -9 136 -27c16 -7 20 -14 15 -29l-18 -54c-4 -13 -10 -15 -24 -10c-29 11 -61 19 -95 19c-38 0 -67 -11 -85 -32c-16 -20 -25 -45 -25 -98v-76h144
c17 0 21 -4 21 -17v-56c0 -16 -5 -17 -21 -17h-145v-85c0 -53 -13 -93 -48 -117v-2h284c17 0 25 -7 25 -23v-57c0 -16 -7 -24 -24 -24h-422c-16 0 -25 9 -25 25v42c0 16 5 24 19 29c51 20 69 60 69 119z" />
    <glyph glyph-name="yen.lprop" horiz-adv-x="561" 
d="M458 692h75c16 0 23 -8 14 -25l-180 -347h77c17 0 20 -5 20 -18v-28c0 -15 -5 -17 -21 -17h-91v-43h94c17 0 19 -3 19 -18v-22c0 -19 -3 -21 -20 -21h-93v-130c0 -15 -6 -23 -21 -23h-85c-15 0 -22 8 -22 25v128h-94c-16 0 -19 6 -19 22v20c0 16 3 19 20 19h93v43h-96
c-15 0 -18 3 -18 18v26c0 16 4 19 20 19h76l-185 348c-7 13 -1 24 14 24h93c21 0 29 -4 36 -19l131 -262h1l128 261c8 16 15 20 34 20z" />
    <glyph glyph-name="Euro.lprop" horiz-adv-x="561" 
d="M90 352h-49c-12 0 -16 3 -16 16v28c0 13 4 16 16 16h54c10 173 119 293 285 293c56 0 114 -16 158 -40c12 -7 15 -16 9 -29l-27 -59c-5 -10 -12 -13 -23 -8c-37 18 -69 28 -109 28c-100 0 -146 -78 -155 -185h186c14 0 18 -5 15 -18l-6 -26c-3 -14 -7 -16 -21 -16h-176
c0 -18 0 -33 1 -45h168c14 0 18 -5 15 -18l-6 -26c-3 -14 -7 -16 -21 -16h-152c14 -88 66 -151 154 -151c37 0 70 9 107 27c11 5 18 2 23 -8l27 -58c6 -13 3 -22 -9 -29c-44 -24 -100 -40 -158 -40c-166 0 -263 103 -282 259h-57c-12 0 -16 3 -16 16v28c0 13 4 16 16 16h50
c-1 12 -1 28 -1 45z" />
    <glyph glyph-name="perthousand.lprop" horiz-adv-x="1122" 
d="M664 682l-419 -675c-9 -15 -16 -19 -34 -19h-61c-18 0 -26 9 -17 23l419 675c9 15 16 19 34 19h61c18 0 26 -9 17 -23zM760 176c0 -110 -54 -180 -148 -180s-148 70 -148 180s54 180 148 180s148 -70 148 -180zM662 176c0 69 -18 104 -50 104s-50 -35 -50 -104
s18 -104 50 -104s50 35 50 104zM332 516c0 -110 -54 -180 -148 -180s-148 70 -148 180s54 180 148 180s148 -70 148 -180zM234 516c0 69 -18 104 -50 104s-50 -35 -50 -104s18 -104 50 -104s50 35 50 104zM1086 176c0 -110 -54 -180 -148 -180s-148 70 -148 180
s54 180 148 180s148 -70 148 -180zM988 176c0 69 -18 104 -50 104s-50 -35 -50 -104s18 -104 50 -104s50 35 50 104z" />
    </font>
</defs>
</svg>
